<svg id="28c2ed00-840f-4530-84ab-4ba2bf186052" data-name="Слой 1" xmlns="http://www.w3.org/2000/svg" viewBox="0 0 201.91 20.9"><title>logo_interactivetrade</title><g id="af00a9ab-e1d7-4a88-8a9f-b523ec9a6c02" data-name="a4cVEI13zK"><g id="9703cf9e-f060-4eb7-b9b0-b95c9a0f4cde" data-name="d9okJD1HL" style="isolation:isolate"><g style="isolation:isolate"><path d="M2.89,8.77A4.13,4.13,0,0,1,2,8.69a1.21,1.21,0,0,1-.57-.28,1,1,0,0,1-.3-.54A3.71,3.71,0,0,1,1,7a3.81,3.81,0,0,1,.09-.89,1.13,1.13,0,0,1,.3-.56A1.16,1.16,0,0,1,2,5.25a4.14,4.14,0,0,1,.89-.08,4.16,4.16,0,0,1,.89.08,1,1,0,0,1,.85.85A4.14,4.14,0,0,1,4.71,7a4,4,0,0,1-.08.88,1,1,0,0,1-.29.54,1.17,1.17,0,0,1-.56.28A4.15,4.15,0,0,1,2.89,8.77ZM1.32,11.13H4.46V25H1.32Z" transform="translate(-1.05 -4.55)" style="fill:#4e5375"/><path d="M9,11.13h2.3l.38,1a12,12,0,0,1,1.58-.71A15.69,15.69,0,0,1,15,11a9.06,9.06,0,0,1,2.06-.22,3.93,3.93,0,0,1,3,1.08,4.88,4.88,0,0,1,1,3.37V25H18V15.56a5.19,5.19,0,0,0-.07-.93,1.2,1.2,0,0,0-.31-.63,1.45,1.45,0,0,0-.68-.36,4.9,4.9,0,0,0-1.2-.12,9.56,9.56,0,0,0-1.43.1q-.64.1-1.11.21a9.29,9.29,0,0,0-1,.29V25H9Z" transform="translate(-1.05 -4.55)" style="fill:#4e5375"/><path d="M26.41,13.73H24.35v-2.6h2.06V8.19l3.14-.7v3.64h3.51v2.6H29.55V21.2a3.72,3.72,0,0,0,.07.8,1,1,0,0,0,.26.51,1.05,1.05,0,0,0,.54.26,4.63,4.63,0,0,0,.9.07l.93,0,.71,0,.61-.07V24.8a9.1,9.1,0,0,1-1,.33q-.46.12-1.08.22a8.58,8.58,0,0,1-1.36.1,6.56,6.56,0,0,1-1.74-.2,2.82,2.82,0,0,1-1.15-.6,2.29,2.29,0,0,1-.64-1,4.63,4.63,0,0,1-.2-1.43Z" transform="translate(-1.05 -4.55)" style="fill:#4e5375"/><path d="M35.88,17.93a9.6,9.6,0,0,1,.57-3.57,5.63,5.63,0,0,1,1.5-2.2A5.25,5.25,0,0,1,40.08,11a9.79,9.79,0,0,1,2.46-.31,6.94,6.94,0,0,1,2.64.44,4.05,4.05,0,0,1,1.67,1.22,4.66,4.66,0,0,1,.87,1.88A10.83,10.83,0,0,1,48,16.68q0,.62,0,1.28t-.12,1.36H39.09a5.88,5.88,0,0,0,.2,1.58,2.25,2.25,0,0,0,.63,1,2.64,2.64,0,0,0,1.17.58,7.91,7.91,0,0,0,1.83.18q.92,0,1.73,0t1.41-.11q.71-.07,1.29-.17v2.19A13.75,13.75,0,0,1,45.9,25q-.67.17-1.57.31a12.61,12.61,0,0,1-1.91.14,9,9,0,0,1-2.77-.39,4.75,4.75,0,0,1-2-1.28,5.84,5.84,0,0,1-1.28-2.33A12.13,12.13,0,0,1,35.88,17.93Zm9.22-1v-.5a8.4,8.4,0,0,0-.1-1.38,2.1,2.1,0,0,0-.4-1,1.77,1.77,0,0,0-.86-.57,5.85,5.85,0,0,0-3.09,0,2.12,2.12,0,0,0-1,.69,2.62,2.62,0,0,0-.47,1.13A8.69,8.69,0,0,0,39.07,17Z" transform="translate(-1.05 -4.55)" style="fill:#4e5375"/><path d="M51.13,11.13h2.71L54,12.65a10.2,10.2,0,0,1,2.31-1.11A10.53,10.53,0,0,1,59.21,11l0,3.24q-1.65,0-2.85.17a8.08,8.08,0,0,0-2.06.48V25H51.13Z" transform="translate(-1.05 -4.55)" style="fill:#4e5375"/><path d="M61.37,21.1a5.09,5.09,0,0,1,.35-2,3.43,3.43,0,0,1,.95-1.32,3.71,3.71,0,0,1,1.41-.73,6.53,6.53,0,0,1,1.75-.22,12.77,12.77,0,0,1,1.72.11q.77.11,1.34.24a10.8,10.8,0,0,1,1.17.33V16.21c0-.32,0-.6,0-.82a2.91,2.91,0,0,0-.11-.58,1.28,1.28,0,0,0-.22-.42,2.16,2.16,0,0,0-.34-.33,2.82,2.82,0,0,0-1.16-.43,11.35,11.35,0,0,0-1.92-.13q-.75,0-1.46,0t-1.26.11l-1.23.14V11.6a8.46,8.46,0,0,1,1.3-.38q.66-.15,1.65-.27a19.08,19.08,0,0,1,2.35-.12,15.84,15.84,0,0,1,1.62.07,6.22,6.22,0,0,1,1.25.24,3.79,3.79,0,0,1,1,.45,3.36,3.36,0,0,1,.75.69,3.77,3.77,0,0,1,.46.73,4.28,4.28,0,0,1,.3.9,7.7,7.7,0,0,1,.17,1.18q0,.67,0,1.55V25H70.52l-.24-1a7.8,7.8,0,0,1-1.28.73,10.81,10.81,0,0,1-1.42.49,6.7,6.7,0,0,1-1.79.22,7.58,7.58,0,0,1-2-.24,3.18,3.18,0,0,1-1.38-.75,3,3,0,0,1-.78-1.34A7.21,7.21,0,0,1,61.37,21.1Zm3.2,0a2.41,2.41,0,0,0,.14.92,1.11,1.11,0,0,0,.42.52,1.64,1.64,0,0,0,.68.23,7.1,7.1,0,0,0,.92.05A6.26,6.26,0,0,0,68,22.7q.6-.13,1.06-.27a7.73,7.73,0,0,0,1-.4V19.62l-.91-.15q-.42-.07-1-.11t-1.13,0a9,9,0,0,0-1.13.06,1.88,1.88,0,0,0-.77.25,1.14,1.14,0,0,0-.45.54A2.47,2.47,0,0,0,64.58,21.1Z" transform="translate(-1.05 -4.55)" style="fill:#4e5375"/><path d="M76.67,18.08a10.28,10.28,0,0,1,.48-3.36,6.1,6.1,0,0,1,1.3-2.25,4.93,4.93,0,0,1,1.93-1.26,7,7,0,0,1,2.36-.39,10.69,10.69,0,0,1,1.73.13c.51.08.95.17,1.31.27a7.24,7.24,0,0,1,1.09.38v2.16l-1-.09-1-.06q-.57,0-1.19,0a7.41,7.41,0,0,0-1.7.17,2.27,2.27,0,0,0-1.16.65,3,3,0,0,0-.66,1.36,10.17,10.17,0,0,0-.21,2.3,9.18,9.18,0,0,0,.24,2.35A3,3,0,0,0,81,21.79a2.49,2.49,0,0,0,1.25.66,8.38,8.38,0,0,0,1.78.17q.65,0,1.19,0t1-.09q.47-.05.86-.13v2.19A5.13,5.13,0,0,1,86,25a10.58,10.58,0,0,1-1.29.29,11.13,11.13,0,0,1-1.82.13A8.1,8.1,0,0,1,80.44,25a4.69,4.69,0,0,1-2-1.19,5.87,5.87,0,0,1-1.32-2.25A10.88,10.88,0,0,1,76.67,18.08Z" transform="translate(-1.05 -4.55)" style="fill:#4e5375"/><path d="M91.31,13.73H89.26v-2.6h2.06V8.19l3.14-.7v3.64H98v2.6H94.45V21.2a3.66,3.66,0,0,0,.07.8,1,1,0,0,0,.26.51,1,1,0,0,0,.54.26,4.62,4.62,0,0,0,.9.07l.93,0,.71,0,.61-.07V24.8a9.08,9.08,0,0,1-1,.33q-.46.12-1.08.22a8.59,8.59,0,0,1-1.36.1,6.55,6.55,0,0,1-1.74-.2,2.8,2.8,0,0,1-1.15-.6,2.3,2.3,0,0,1-.64-1,4.63,4.63,0,0,1-.2-1.43Z" transform="translate(-1.05 -4.55)" style="fill:#4e5375"/><path d="M103.54,8.77a4.13,4.13,0,0,1-.89-.08,1.21,1.21,0,0,1-.57-.28,1,1,0,0,1-.3-.54,3.71,3.71,0,0,1-.09-.88,3.81,3.81,0,0,1,.09-.89,1.13,1.13,0,0,1,.3-.56,1.16,1.16,0,0,1,.57-.29,5.11,5.11,0,0,1,1.78,0,1,1,0,0,1,.85.85,4.14,4.14,0,0,1,.08.89,4,4,0,0,1-.08.88,1,1,0,0,1-.29.54,1.17,1.17,0,0,1-.56.28A4.15,4.15,0,0,1,103.54,8.77ZM102,11.13h3.14V25H102Z" transform="translate(-1.05 -4.55)" style="fill:#4e5375"/><path d="M107.58,11.13H111l3.43,11h.05l3.43-11h3.4L116.5,25h-4.1Z" transform="translate(-1.05 -4.55)" style="fill:#4e5375"/><path d="M122.61,17.93a9.6,9.6,0,0,1,.57-3.57,5.63,5.63,0,0,1,1.5-2.2A5.25,5.25,0,0,1,126.82,11a9.8,9.8,0,0,1,2.47-.31,6.94,6.94,0,0,1,2.64.44,4,4,0,0,1,1.67,1.22,4.66,4.66,0,0,1,.87,1.88,10.83,10.83,0,0,1,.25,2.41q0,.62,0,1.28t-.13,1.36h-8.71a5.84,5.84,0,0,0,.2,1.58,2.24,2.24,0,0,0,.63,1,2.64,2.64,0,0,0,1.17.58,7.9,7.9,0,0,0,1.83.18q.92,0,1.73,0t1.41-.11q.71-.07,1.29-.17v2.19a13.73,13.73,0,0,1-1.46.45q-.67.17-1.57.31a12.59,12.59,0,0,1-1.91.14,9,9,0,0,1-2.77-.39,4.75,4.75,0,0,1-2-1.28,5.83,5.83,0,0,1-1.28-2.33A12.1,12.1,0,0,1,122.61,17.93Zm9.21-1v-.5a8.4,8.4,0,0,0-.1-1.38,2.1,2.1,0,0,0-.4-1,1.77,1.77,0,0,0-.86-.57,5.85,5.85,0,0,0-3.09,0,2.11,2.11,0,0,0-1,.69,2.6,2.6,0,0,0-.47,1.13A8.6,8.6,0,0,0,125.8,17Z" transform="translate(-1.05 -4.55)" style="fill:#4e5375"/></g></g></g><g id="f86ac0c6-ceb6-4b67-94b2-6b2d9297fa10" data-name="a14LOVTkxA"><g id="487e0b44-7c28-4934-9cd7-06716d84ce32" data-name="a1Q0SwUJW7" style="isolation:isolate"><g style="isolation:isolate"><path d="M138.84,13.73h-2.06v-2.6h2.06V8.19l3.14-.7v3.64h3.51v2.6H142V21.2a3.66,3.66,0,0,0,.07.8,1,1,0,0,0,.26.51,1,1,0,0,0,.54.26,4.62,4.62,0,0,0,.9.07l.93,0,.71,0,.61-.07V24.8a9.08,9.08,0,0,1-1,.33q-.46.12-1.08.22a8.59,8.59,0,0,1-1.36.1,6.55,6.55,0,0,1-1.74-.2,2.8,2.8,0,0,1-1.15-.6,2.3,2.3,0,0,1-.64-1,4.63,4.63,0,0,1-.2-1.43Z" transform="translate(-1.05 -4.55)" style="fill:#2c93db"/><path d="M149.26,11.13H152l.19,1.52a10.2,10.2,0,0,1,2.31-1.11,10.53,10.53,0,0,1,2.87-.51l0,3.24q-1.65,0-2.85.17a8.08,8.08,0,0,0-2.06.48V25h-3.14Z" transform="translate(-1.05 -4.55)" style="fill:#2c93db"/><path d="M159.5,21.1a5.09,5.09,0,0,1,.35-2,3.43,3.43,0,0,1,.95-1.32,3.71,3.71,0,0,1,1.41-.73,6.53,6.53,0,0,1,1.75-.22,12.77,12.77,0,0,1,1.72.11q.77.11,1.34.24a10.8,10.8,0,0,1,1.17.33V16.21c0-.32,0-.6,0-.82a2.91,2.91,0,0,0-.11-.58,1.28,1.28,0,0,0-.22-.42,2.16,2.16,0,0,0-.34-.33,2.82,2.82,0,0,0-1.16-.43,11.35,11.35,0,0,0-1.92-.13q-.75,0-1.46,0t-1.26.11l-1.23.14V11.6a8.46,8.46,0,0,1,1.3-.38q.66-.15,1.65-.27a19.08,19.08,0,0,1,2.35-.12,15.84,15.84,0,0,1,1.62.07,6.22,6.22,0,0,1,1.25.24,3.79,3.79,0,0,1,1,.45,3.36,3.36,0,0,1,.75.69,3.77,3.77,0,0,1,.46.73,4.28,4.28,0,0,1,.3.9,7.7,7.7,0,0,1,.17,1.18q0,.67,0,1.55V25h-2.65l-.24-1a7.8,7.8,0,0,1-1.28.73,10.81,10.81,0,0,1-1.42.49,6.7,6.7,0,0,1-1.79.22,7.58,7.58,0,0,1-2-.24,3.18,3.18,0,0,1-1.38-.75,3,3,0,0,1-.78-1.34A7.21,7.21,0,0,1,159.5,21.1Zm3.2,0a2.41,2.41,0,0,0,.14.92,1.11,1.11,0,0,0,.42.52,1.64,1.64,0,0,0,.68.23,7.1,7.1,0,0,0,.92.05,6.26,6.26,0,0,0,1.27-.12q.6-.13,1.06-.27a7.73,7.73,0,0,0,1-.4V19.62l-.91-.15q-.42-.07-1-.11t-1.13,0a9,9,0,0,0-1.13.06,1.88,1.88,0,0,0-.77.25,1.14,1.14,0,0,0-.45.54A2.47,2.47,0,0,0,162.71,21.1Z" transform="translate(-1.05 -4.55)" style="fill:#2c93db"/><path d="M179.72,25.45a5.19,5.19,0,0,1-2.06-.38,3.42,3.42,0,0,1-1.48-1.25,6.43,6.43,0,0,1-.9-2.26,16.52,16.52,0,0,1-.32-3.41,14.63,14.63,0,0,1,.3-3.42,6.66,6.66,0,0,1,.94-2.3,3.65,3.65,0,0,1,1.5-1.29,4.84,4.84,0,0,1,2-.4,10.19,10.19,0,0,1,1.87.16,14.64,14.64,0,0,1,1.46.34,9.53,9.53,0,0,1,1.28.49V4.55h3.14V25h-2.7l-.18-1.11a8.15,8.15,0,0,1-1.34.76,9.72,9.72,0,0,1-1.54.52A7.78,7.78,0,0,1,179.72,25.45Zm1.11-2.81a8.46,8.46,0,0,0,1.31-.1,10.81,10.81,0,0,0,1.11-.23,8.09,8.09,0,0,0,1.05-.34V14q-.54-.13-1.15-.25T182,13.6a11.55,11.55,0,0,0-1.36-.08,2.52,2.52,0,0,0-1.19.24,1.67,1.67,0,0,0-.72.81,4.81,4.81,0,0,0-.36,1.49,22.14,22.14,0,0,0-.1,2.28,18.11,18.11,0,0,0,.09,2,3.69,3.69,0,0,0,.37,1.33,1.65,1.65,0,0,0,.78.75A3.27,3.27,0,0,0,180.83,22.64Z" transform="translate(-1.05 -4.55)" style="fill:#2c93db"/><path d="M190.85,17.93a9.6,9.6,0,0,1,.57-3.57,5.63,5.63,0,0,1,1.5-2.2A5.25,5.25,0,0,1,195.06,11a9.79,9.79,0,0,1,2.46-.31,6.94,6.94,0,0,1,2.64.44,4.05,4.05,0,0,1,1.67,1.22,4.66,4.66,0,0,1,.87,1.88,10.83,10.83,0,0,1,.25,2.41q0,.62,0,1.28t-.12,1.36h-8.71a5.88,5.88,0,0,0,.2,1.58,2.25,2.25,0,0,0,.63,1,2.64,2.64,0,0,0,1.17.58,7.91,7.91,0,0,0,1.83.18q.92,0,1.73,0t1.41-.11q.71-.07,1.29-.17v2.19a13.75,13.75,0,0,1-1.46.45q-.67.17-1.57.31a12.61,12.61,0,0,1-1.91.14,9,9,0,0,1-2.77-.39,4.75,4.75,0,0,1-2-1.28,5.84,5.84,0,0,1-1.28-2.33A12.13,12.13,0,0,1,190.85,17.93Zm9.22-1v-.5a8.4,8.4,0,0,0-.1-1.38,2.1,2.1,0,0,0-.4-1,1.77,1.77,0,0,0-.86-.57,5.85,5.85,0,0,0-3.09,0,2.12,2.12,0,0,0-1,.69,2.62,2.62,0,0,0-.47,1.13A8.69,8.69,0,0,0,194,17Z" transform="translate(-1.05 -4.55)" style="fill:#2c93db"/></g></g></g></svg>