<svg width="250" height="23" viewBox="0 0 250 23" fill="none" xmlns="http://www.w3.org/2000/svg">
<path d="M44.1645 17.9692H40.4697L38.8142 7.02028L33.7998 17.9453H32.9121L27.8977 7.02028L26.2423 17.9692H22.5234L25.1626 1.1984H28.8094L33.344 11.4765L37.9025 1.1984H41.5494L44.1645 17.9692Z" fill="white"/>
<path d="M55.5656 5.03174H59.3084L53.6462 17.8015C52.8465 19.5904 52.0307 20.8442 51.199 21.563C50.3672 22.2817 49.2396 22.6411 47.8161 22.6411H46.3765V19.4786H47.6001C48.4319 19.4786 49.0237 19.3269 49.3756 19.0234C49.7274 18.7199 50.1113 18.073 50.5272 17.0828L50.5752 16.9869L45.0809 5.03174H48.8957L52.3506 12.9859L55.5656 5.03174Z" fill="white"/>
<path d="M69.3066 18.3286C67.6912 18.3286 66.2196 17.9533 64.892 17.2026C63.5645 16.4359 62.5248 15.3897 61.773 14.064C61.0213 12.7224 60.6454 11.2369 60.6454 9.60778C60.6454 7.11612 61.4691 5.03174 63.1166 3.35465C64.7801 1.67757 66.8434 0.839031 69.3066 0.839031C71.354 0.839031 73.1214 1.45396 74.609 2.68382C76.0965 3.91368 77.0402 5.52688 77.4401 7.5234H73.7932C73.5693 6.86854 73.2414 6.30153 72.8095 5.82236C72.3777 5.32722 71.8578 4.95188 71.25 4.69632C70.6582 4.42479 70.0104 4.28903 69.3066 4.28903C67.8831 4.28903 66.6915 4.80014 65.7318 5.82236C64.7881 6.82861 64.3162 8.09042 64.3162 9.60778C64.3162 11.1092 64.7881 12.363 65.7318 13.3692C66.6915 14.3755 67.8831 14.8786 69.3066 14.8786C70.4103 14.8786 71.362 14.5671 72.1617 13.9442C72.9615 13.3213 73.5133 12.4748 73.8172 11.4046H77.488C77.1042 13.481 76.1605 15.1581 74.6569 16.4359C73.1694 17.6977 71.386 18.3286 69.3066 18.3286Z" fill="white"/>
<path d="M90.9354 5.00778H93.5505V17.9453H90.7914L90.5035 16.7953C89.3199 17.8175 87.9203 18.3286 86.3049 18.3286C84.3535 18.3286 82.73 17.6817 81.4344 16.388C80.1548 15.0783 79.515 13.4411 79.515 11.4765C79.515 9.52791 80.1548 7.90673 81.4344 6.61298C82.73 5.31924 84.3535 4.67236 86.3049 4.67236C87.9523 4.67236 89.3679 5.19944 90.5515 6.25361L90.9354 5.00778ZM84.0496 14.0161C84.7214 14.6869 85.5611 15.0224 86.5688 15.0224C87.5924 15.0224 88.4402 14.6869 89.112 14.0161C89.7837 13.3453 90.1196 12.4987 90.1196 11.4765C90.1196 10.4543 89.7837 9.60778 89.112 8.93695C88.4402 8.26611 87.6004 7.9307 86.5928 7.9307C85.921 7.9307 85.3132 8.09042 84.7693 8.40986C84.2415 8.71334 83.8256 9.1366 83.5217 9.67965C83.2178 10.2067 83.0659 10.8057 83.0659 11.4765C83.0659 12.4987 83.3938 13.3453 84.0496 14.0161Z" fill="white"/>
<path d="M104.477 4.67236C106.429 4.67236 108.044 5.31924 109.324 6.61298C110.619 7.90673 111.267 9.5359 111.267 11.5005C111.267 13.4651 110.619 15.1022 109.324 16.4119C108.028 17.7057 106.413 18.3526 104.477 18.3526C103.15 18.3526 101.958 17.9932 100.903 17.2744V22.6411H97.3996V5.03174H99.7269L100.327 6.20569C101.478 5.18347 102.862 4.67236 104.477 4.67236ZM101.646 14.0401C102.318 14.7109 103.158 15.0463 104.165 15.0463C105.189 15.0463 106.037 14.7109 106.709 14.0401C107.38 13.3692 107.716 12.5227 107.716 11.5005C107.716 10.8296 107.564 10.2227 107.26 9.67965C106.957 9.1366 106.533 8.71334 105.989 8.40986C105.461 8.10639 104.861 7.95466 104.189 7.95466C103.518 7.95466 102.91 8.10639 102.366 8.40986C101.822 8.71334 101.398 9.1366 101.094 9.67965C100.807 10.2227 100.663 10.8296 100.663 11.5005C100.663 12.5227 100.99 13.3692 101.646 14.0401Z" fill="white"/>
<path d="M127.912 14.8546H129.496V17.9692H127.025C126.081 17.9692 125.257 17.7856 124.554 17.4182C123.866 17.0508 123.338 16.5237 122.97 15.8369C122.602 15.1342 122.418 14.3036 122.418 13.3453V7.83486H120.067V7.09215L125.201 1.65361H125.849V5.03174H129.424V7.83486H125.921V12.8901C125.921 13.513 126.089 14.0001 126.425 14.3515C126.777 14.6869 127.273 14.8546 127.912 14.8546Z" fill="white"/>
<path d="M142.831 5.00778H145.446V17.9453H142.687L142.399 16.7953C141.216 17.8175 139.816 18.3286 138.2 18.3286C136.249 18.3286 134.626 17.6817 133.33 16.388C132.05 15.0783 131.411 13.4411 131.411 11.4765C131.411 9.52791 132.05 7.90673 133.33 6.61298C134.626 5.31924 136.249 4.67236 138.2 4.67236C139.848 4.67236 141.264 5.19944 142.447 6.25361L142.831 5.00778ZM135.945 14.0161C136.617 14.6869 137.457 15.0224 138.464 15.0224C139.488 15.0224 140.336 14.6869 141.008 14.0161C141.679 13.3453 142.015 12.4987 142.015 11.4765C142.015 10.4543 141.679 9.60778 141.008 8.93695C140.336 8.26611 139.496 7.9307 138.488 7.9307C137.817 7.9307 137.209 8.09042 136.665 8.40986C136.137 8.71334 135.721 9.1366 135.417 9.67965C135.113 10.2067 134.962 10.8057 134.962 11.4765C134.962 12.4987 135.289 13.3453 135.945 14.0161Z" fill="white"/>
<path d="M149.295 17.9692V0.359863H152.798V17.9692H149.295Z" fill="white"/>
<path d="M168.328 1.1984V4.57653H163.649V17.9692H160.002V4.57653H155.348V1.1984H168.328Z" fill="white"/>
<path d="M176.816 4.95986H177.967V8.26611H176.456C175.464 8.26611 174.752 8.49771 174.321 8.96091C173.905 9.4241 173.697 10.1828 173.697 11.2369V17.9692H170.194V5.03174H172.449L173.073 6.61298C173.953 5.5109 175.2 4.95986 176.816 4.95986Z" fill="white"/>
<path d="M190.744 5.00778H193.359V17.9453H190.6L190.312 16.7953C189.128 17.8175 187.729 18.3286 186.113 18.3286C184.162 18.3286 182.538 17.6817 181.243 16.388C179.963 15.0783 179.323 13.4411 179.323 11.4765C179.323 9.52791 179.963 7.90673 181.243 6.61298C182.538 5.31924 184.162 4.67236 186.113 4.67236C187.76 4.67236 189.176 5.19944 190.36 6.25361L190.744 5.00778ZM183.858 14.0161C184.53 14.6869 185.369 15.0224 186.377 15.0224C187.401 15.0224 188.248 14.6869 188.92 14.0161C189.592 13.3453 189.928 12.4987 189.928 11.4765C189.928 10.4543 189.592 9.60778 188.92 8.93695C188.248 8.26611 187.409 7.9307 186.401 7.9307C185.729 7.9307 185.121 8.09042 184.577 8.40986C184.05 8.71334 183.634 9.1366 183.33 9.67965C183.026 10.2067 182.874 10.8057 182.874 11.4765C182.874 12.4987 183.202 13.3453 183.858 14.0161Z" fill="white"/>
<path d="M206.733 0.359863H210.236V17.9692H207.644L207.237 16.8911C206.085 17.8654 204.733 18.3526 203.182 18.3526C201.886 18.3526 200.719 18.0571 199.679 17.4661C198.639 16.8751 197.824 16.0606 197.232 15.0224C196.656 13.9682 196.368 12.7942 196.368 11.5005C196.368 10.2067 196.656 9.04077 197.232 8.00257C197.824 6.96438 198.639 6.14979 199.679 5.55882C200.719 4.96785 201.886 4.67236 203.182 4.67236C204.493 4.67236 205.677 5.02375 206.733 5.72653V0.359863ZM200.927 14.0401C201.598 14.7109 202.438 15.0463 203.446 15.0463C204.469 15.0463 205.317 14.7109 205.989 14.0401C206.661 13.3533 206.997 12.5067 206.997 11.5005C206.997 10.4783 206.661 9.63174 205.989 8.96091C205.317 8.29007 204.469 7.95466 203.446 7.95466C202.438 7.95466 201.598 8.29007 200.927 8.96091C200.255 9.63174 199.919 10.4783 199.919 11.5005C199.919 12.5227 200.255 13.3692 200.927 14.0401Z" fill="white"/>
<path d="M214.065 17.9692V5.03174H217.568V17.9692H214.065Z" fill="white"/>
<path d="M228.8 4.72028C230.271 4.72028 231.431 5.21542 232.279 6.20569C233.142 7.18 233.574 8.48972 233.574 10.1349V17.9692H230.071V10.6859C230.071 8.75326 229.32 7.78695 227.816 7.78695C227.224 7.78695 226.704 7.92271 226.257 8.19424C225.825 8.46577 225.489 8.85709 225.249 9.3682C225.025 9.87931 224.913 10.4783 224.913 11.1651V17.9692H221.41V5.03174H223.809L224.505 6.63695C224.745 6.33347 225.017 6.06993 225.321 5.84632C225.641 5.60673 225.985 5.40709 226.352 5.24736C226.72 5.07167 227.104 4.94389 227.504 4.86403C227.92 4.76819 228.352 4.72028 228.8 4.72028Z" fill="white"/>
<path d="M247.721 5.03174H250V16.4599C250 17.8015 249.728 18.9595 249.184 19.9338C248.656 20.9241 247.897 21.6828 246.905 22.2099C245.913 22.7369 244.738 23.0005 243.378 23.0005C241.619 23.0005 240.147 22.5772 238.963 21.7307C237.796 20.8842 237.068 19.7262 236.78 18.2567H240.259C240.451 18.7998 240.835 19.2231 241.411 19.5265C241.986 19.846 242.618 20.0057 243.306 20.0057C244.234 20.0057 245.002 19.7262 245.609 19.1671C246.233 18.6241 246.545 17.8894 246.545 16.963V16.4838C245.473 17.2505 244.242 17.6338 242.85 17.6338C241.667 17.6338 240.579 17.3543 239.587 16.7953C238.596 16.2203 237.82 15.4376 237.26 14.4474C236.7 13.4571 236.42 12.363 236.42 11.1651C236.42 9.3602 237.036 7.82687 238.268 6.56507C239.515 5.30326 241.043 4.67236 242.85 4.67236C244.53 4.67236 245.969 5.2234 247.169 6.32549L247.721 5.03174ZM243.258 14.5192C244.218 14.5192 245.01 14.2078 245.633 13.5849C246.257 12.946 246.569 12.1394 246.569 11.1651C246.569 10.2067 246.257 9.41611 245.633 8.7932C245.026 8.15431 244.234 7.83486 243.258 7.83486C242.314 7.83486 241.531 8.15431 240.907 8.7932C240.283 9.41611 239.971 10.2067 239.971 11.1651C239.971 12.1394 240.275 12.946 240.883 13.5849C241.507 14.2078 242.298 14.5192 243.258 14.5192Z" fill="white"/>
<path d="M114.234 17.9692V5.03174H117.737V17.9692H114.234Z" fill="white"/>
<path d="M114.23 0H117.736V3.26099H114.23V0Z" fill="#FFED4F"/>
<path d="M214.032 0H217.537V3.26099H214.032V0Z" fill="#FFED4F"/>
<path d="M0 11.6465H2.66582V17.9688H0V11.6465Z" fill="#FFED4F"/>
<path d="M5.66504 7.65332H8.33086V17.9687H5.66504V7.65332Z" fill="#FFED4F"/>
<path d="M11.3296 2.66211H13.9954V17.9688H11.3296V2.66211Z" fill="#FFED4F"/>
</svg>
