<svg width="125" height="12" viewBox="0 0 125 12" fill="none" xmlns="http://www.w3.org/2000/svg">
<path d="M22.0823 8.98486H20.2349L19.4071 3.51038L16.8999 8.97288H16.4561L13.9489 3.51038L13.1211 8.98486H11.2617L12.5813 0.599446H14.4047L16.672 5.73851L18.9513 0.599446H20.7747L22.0823 8.98486Z" fill="white"/>
<path d="M27.7828 2.51611H29.6542L26.8231 8.90101C26.4232 9.79545 26.0154 10.4224 25.5995 10.7817C25.1836 11.1411 24.6198 11.3208 23.908 11.3208H23.1883V9.73955H23.8001C24.2159 9.73955 24.5118 9.66368 24.6878 9.51194C24.8637 9.36021 25.0557 9.03677 25.2636 8.54163L25.2876 8.49371L22.5405 2.51611H24.4479L26.1753 6.49319L27.7828 2.51611Z" fill="white"/>
<path d="M34.6533 9.16455C33.8456 9.16455 33.1098 8.97687 32.446 8.60153C31.7822 8.21819 31.2624 7.6951 30.8865 7.03226C30.5106 6.36142 30.3227 5.61872 30.3227 4.80413C30.3227 3.5583 30.7346 2.51611 31.5583 1.67757C32.39 0.83903 33.4217 0.419759 34.6533 0.419759C35.677 0.419759 36.5607 0.727224 37.3045 1.34215C38.0482 1.95709 38.5201 2.76368 38.72 3.76195H36.8966C36.7846 3.43452 36.6207 3.15101 36.4048 2.91143C36.1888 2.66386 35.9289 2.47618 35.625 2.3484C35.3291 2.21264 35.0052 2.14476 34.6533 2.14476C33.9415 2.14476 33.3457 2.40031 32.8659 2.91143C32.394 3.41455 32.1581 4.04545 32.1581 4.80413C32.1581 5.55483 32.394 6.18174 32.8659 6.68486C33.3457 7.18799 33.9415 7.43955 34.6533 7.43955C35.2051 7.43955 35.681 7.28382 36.0809 6.97236C36.4807 6.6609 36.7567 6.23764 36.9086 5.70257H38.744C38.5521 6.74076 38.0802 7.5793 37.3285 8.21819C36.5847 8.8491 35.693 9.16455 34.6533 9.16455Z" fill="white"/>
<path d="M45.4677 2.50413H46.7753V8.97288H45.3957L45.2518 8.39788C44.6599 8.90899 43.9602 9.16455 43.1524 9.16455C42.1767 9.16455 41.365 8.84111 40.7172 8.19423C40.0774 7.53937 39.7575 6.7208 39.7575 5.73851C39.7575 4.7642 40.0774 3.95361 40.7172 3.30674C41.365 2.65986 42.1767 2.33643 43.1524 2.33643C43.9762 2.33643 44.6839 2.59997 45.2757 3.12705L45.4677 2.50413ZM42.0248 7.0083C42.3607 7.34372 42.7805 7.51142 43.2844 7.51142C43.7962 7.51142 44.2201 7.34372 44.556 7.0083C44.8919 6.67288 45.0598 6.24962 45.0598 5.73851C45.0598 5.2274 44.8919 4.80413 44.556 4.46872C44.2201 4.1333 43.8002 3.96559 43.2964 3.96559C42.9605 3.96559 42.6566 4.04545 42.3847 4.20518C42.1208 4.35691 41.9128 4.56854 41.7609 4.84007C41.6089 5.10361 41.5329 5.40309 41.5329 5.73851C41.5329 6.24962 41.6969 6.67288 42.0248 7.0083Z" fill="white"/>
<path d="M52.2387 2.33643C53.2144 2.33643 54.0221 2.65986 54.6619 3.30674C55.3097 3.95361 55.6336 4.76819 55.6336 5.75048C55.6336 6.73278 55.3097 7.55135 54.6619 8.20621C54.0141 8.85309 53.2064 9.17653 52.2387 9.17653C51.5749 9.17653 50.9791 8.99684 50.4513 8.63746V11.3208H48.6998V2.51611H49.8634L50.1633 3.10309C50.7392 2.59198 51.4309 2.33643 52.2387 2.33643ZM50.8231 7.02028C51.159 7.35569 51.5789 7.5234 52.0827 7.5234C52.5946 7.5234 53.0184 7.35569 53.3543 7.02028C53.6902 6.68486 53.8582 6.2616 53.8582 5.75048C53.8582 5.41507 53.7822 5.1116 53.6302 4.84007C53.4783 4.56854 53.2664 4.35691 52.9944 4.20518C52.7305 4.05344 52.4306 3.97757 52.0947 3.97757C51.7588 3.97757 51.4549 4.05344 51.183 4.20518C50.9111 4.35691 50.6992 4.56854 50.5472 4.84007C50.4033 5.1116 50.3313 5.41507 50.3313 5.75048C50.3313 6.2616 50.4952 6.68486 50.8231 7.02028Z" fill="white"/>
<path d="M63.9562 7.42757H64.748V8.98486H63.5124C63.0405 8.98486 62.6287 8.89302 62.2768 8.70934C61.9329 8.52566 61.669 8.26212 61.485 7.91871C61.3011 7.56732 61.2091 7.15205 61.2091 6.67288V3.91768H60.0335V3.54632L62.6007 0.827051H62.9246V2.51611H64.712V3.91768H62.9605V6.44528C62.9605 6.75674 63.0445 7.00031 63.2125 7.17601C63.3884 7.34371 63.6363 7.42757 63.9562 7.42757Z" fill="white"/>
<path d="M71.4155 2.50413H72.7231V8.97288H71.3435L71.1996 8.39788C70.6078 8.90899 69.908 9.16455 69.1002 9.16455C68.1245 9.16455 67.3128 8.84111 66.665 8.19423C66.0252 7.53937 65.7053 6.7208 65.7053 5.73851C65.7053 4.7642 66.0252 3.95361 66.665 3.30674C67.3128 2.65986 68.1245 2.33643 69.1002 2.33643C69.924 2.33643 70.6318 2.59997 71.2236 3.12705L71.4155 2.50413ZM67.9726 7.0083C68.3085 7.34372 68.7284 7.51142 69.2322 7.51142C69.744 7.51142 70.1679 7.34372 70.5038 7.0083C70.8397 6.67288 71.0076 6.24962 71.0076 5.73851C71.0076 5.2274 70.8397 4.80413 70.5038 4.46872C70.1679 4.1333 69.748 3.96559 69.2442 3.96559C68.9083 3.96559 68.6044 4.04545 68.3325 4.20518C68.0686 4.35691 67.8606 4.56854 67.7087 4.84007C67.5567 5.10361 67.4808 5.40309 67.4808 5.73851C67.4808 6.24962 67.6447 6.67288 67.9726 7.0083Z" fill="white"/>
<path d="M74.6476 8.98486V0.180176H76.3991V8.98486H74.6476Z" fill="white"/>
<path d="M84.1639 0.599446V2.28851H81.8246V8.98486H80.0012V2.28851H77.6739V0.599446H84.1639Z" fill="white"/>
<path d="M88.4079 2.48018H88.9837V4.1333H88.228C87.7321 4.1333 87.3762 4.2491 87.1603 4.4807C86.9524 4.71229 86.8484 5.09163 86.8484 5.61871V8.98486H85.097V2.51611H86.2246L86.5365 3.30674C86.9763 2.75569 87.6002 2.48018 88.4079 2.48018Z" fill="white"/>
<path d="M95.3718 2.50413H96.6794V8.97288H95.2998L95.1558 8.39788C94.564 8.90899 93.8643 9.16455 93.0565 9.16455C92.0808 9.16455 91.2691 8.84111 90.6213 8.19423C89.9815 7.53937 89.6616 6.7208 89.6616 5.73851C89.6616 4.7642 89.9815 3.95361 90.6213 3.30674C91.2691 2.65986 92.0808 2.33643 93.0565 2.33643C93.8802 2.33643 94.588 2.59997 95.1798 3.12705L95.3718 2.50413ZM91.9289 7.0083C92.2648 7.34372 92.6846 7.51142 93.1885 7.51142C93.7003 7.51142 94.1242 7.34372 94.4601 7.0083C94.796 6.67288 94.9639 6.24962 94.9639 5.73851C94.9639 5.2274 94.796 4.80413 94.4601 4.46872C94.1242 4.1333 93.7043 3.96559 93.2005 3.96559C92.8646 3.96559 92.5607 4.04545 92.2887 4.20518C92.0248 4.35691 91.8169 4.56854 91.665 4.84007C91.513 5.10361 91.437 5.40309 91.437 5.73851C91.437 6.24962 91.601 6.67288 91.9289 7.0083Z" fill="white"/>
<path d="M103.366 0.180176H105.118V8.98486H103.822L103.618 8.4458C103.042 8.93295 102.367 9.17653 101.591 9.17653C100.943 9.17653 100.359 9.02878 99.8395 8.7333C99.3197 8.43781 98.9118 8.03052 98.6159 7.51142C98.328 6.98434 98.184 6.39736 98.184 5.75048C98.184 5.10361 98.328 4.52063 98.6159 4.00153C98.9118 3.48243 99.3197 3.07514 99.8395 2.77965C100.359 2.48417 100.943 2.33643 101.591 2.33643C102.247 2.33643 102.839 2.51212 103.366 2.86351V0.180176ZM100.463 7.02028C100.799 7.35569 101.219 7.5234 101.723 7.5234C102.235 7.5234 102.659 7.35569 102.995 7.02028C103.33 6.67687 103.498 6.25361 103.498 5.75048C103.498 5.23937 103.33 4.81611 102.995 4.4807C102.659 4.14528 102.235 3.97757 101.723 3.97757C101.219 3.97757 100.799 4.14528 100.463 4.4807C100.127 4.81611 99.9595 5.23937 99.9595 5.75048C99.9595 6.2616 100.127 6.68486 100.463 7.02028Z" fill="white"/>
<path d="M107.033 8.98486V2.51611H108.784V8.98486H107.033Z" fill="white"/>
<path d="M114.4 2.36038C115.136 2.36038 115.715 2.60795 116.139 3.10309C116.571 3.59024 116.787 4.2451 116.787 5.06767V8.98486H115.036V5.3432C115.036 4.37688 114.66 3.89372 113.908 3.89372C113.612 3.89372 113.352 3.9616 113.128 4.09736C112.912 4.23313 112.744 4.42879 112.624 4.68434C112.512 4.9399 112.456 5.23937 112.456 5.58278V8.98486H110.705V2.51611H111.905L112.253 3.31872C112.373 3.16698 112.508 3.03521 112.66 2.9234C112.82 2.80361 112.992 2.70379 113.176 2.62393C113.36 2.53608 113.552 2.47219 113.752 2.43226C113.96 2.38434 114.176 2.36038 114.4 2.36038Z" fill="white"/>
<path d="M123.86 2.51611H125V8.23017C125 8.90101 124.864 9.48 124.592 9.96715C124.328 10.4623 123.948 10.8416 123.452 11.1052C122.957 11.3687 122.369 11.5005 121.689 11.5005C120.809 11.5005 120.074 11.2888 119.482 10.8656C118.898 10.4423 118.534 9.86333 118.39 9.12861H120.13C120.225 9.40014 120.417 9.61177 120.705 9.76351C120.993 9.92323 121.309 10.0031 121.653 10.0031C122.117 10.0031 122.501 9.86333 122.805 9.58382C123.117 9.31229 123.273 8.94493 123.273 8.48173V8.24215C122.737 8.62548 122.121 8.81715 121.425 8.81715C120.833 8.81715 120.289 8.67739 119.794 8.39788C119.298 8.11038 118.91 7.71906 118.63 7.22392C118.35 6.72878 118.21 6.18174 118.21 5.58278C118.21 4.68035 118.518 3.91368 119.134 3.28278C119.758 2.65188 120.521 2.33643 121.425 2.33643C122.265 2.33643 122.985 2.61195 123.584 3.16299L123.86 2.51611ZM121.629 7.25986C122.109 7.25986 122.505 7.10413 122.817 6.79267C123.129 6.47323 123.285 6.06993 123.285 5.58278C123.285 5.10361 123.129 4.7083 122.817 4.39684C122.513 4.0774 122.117 3.91768 121.629 3.91768C121.157 3.91768 120.765 4.0774 120.453 4.39684C120.142 4.7083 119.986 5.10361 119.986 5.58278C119.986 6.06993 120.138 6.47323 120.441 6.79267C120.753 7.10413 121.149 7.25986 121.629 7.25986Z" fill="white"/>
<path d="M57.1168 8.98486V2.51611H58.8683V8.98486H57.1168Z" fill="white"/>
<path d="M57.1152 0H58.868V1.6305H57.1152V0Z" fill="#FFED4F"/>
<path d="M107.016 0H108.768V1.6305H107.016V0Z" fill="#FFED4F"/>
<path d="M0 5.82324H1.33291V8.98441H0V5.82324Z" fill="#FFED4F"/>
<path d="M2.83252 3.82666H4.16543V8.98436H2.83252V3.82666Z" fill="#FFED4F"/>
<path d="M5.66504 1.33105H6.99795V8.98441H5.66504V1.33105Z" fill="#FFED4F"/>
</svg>
