<svg width="192" height="18" viewBox="0 0 192 18" fill="none" xmlns="http://www.w3.org/2000/svg">
<path d="M38.5536 5.74327H33.7363V2.28851H47.7848V5.74327H42.9899V17.6919H38.5536V5.74327Z" fill="white"/>
<path d="M53.0507 7.1956C53.4839 6.65281 54.044 6.24939 54.7311 5.98533C55.4332 5.7066 56.2323 5.56724 57.1285 5.56724V9.33007C56.7402 9.28606 56.419 9.26406 56.1651 9.26406C55.2539 9.26406 54.5369 9.50611 54.0141 9.99022C53.5063 10.4743 53.2523 11.2152 53.2523 12.2127V17.6919H48.9952V5.76528H53.0507V7.1956Z" fill="white"/>
<path d="M63.9735 5.56724C65.99 5.56724 67.5286 6.022 68.5891 6.93154C69.6497 7.8264 70.1799 9.20538 70.1799 11.0685V17.6919H66.2141V16.1516C65.6017 17.3105 64.4067 17.89 62.6292 17.89C61.6881 17.89 60.8741 17.7286 60.1869 17.4059C59.4998 17.0831 58.977 16.6504 58.6185 16.1076C58.275 15.5501 58.1032 14.9193 58.1032 14.2152C58.1032 13.0856 58.5438 12.2127 59.4251 11.5966C60.3064 10.9658 61.6657 10.6504 63.503 10.6504H65.9228C65.8481 9.38875 64.9893 8.75795 63.3462 8.75795C62.7636 8.75795 62.1736 8.8533 61.5761 9.04401C60.9786 9.22005 60.4707 9.46944 60.0525 9.79217L58.6185 6.95354C59.2907 6.51345 60.1048 6.17604 61.0608 5.94132C62.0317 5.69193 63.0026 5.56724 63.9735 5.56724ZM63.8167 15.2494C64.3096 15.2494 64.7428 15.132 65.1162 14.8973C65.4897 14.6626 65.7585 14.3178 65.9228 13.8631V12.8288H64.0856C62.8458 12.8288 62.2259 13.2323 62.2259 14.0391C62.2259 14.4059 62.3678 14.6993 62.6516 14.9193C62.9354 15.1394 63.3238 15.2494 63.8167 15.2494Z" fill="white"/>
<path d="M85.9479 1.3643V17.6919H81.8924V16.5037C81.1007 17.4279 79.9132 17.89 78.3299 17.89C77.2245 17.89 76.2163 17.6406 75.3051 17.1418C74.3939 16.6284 73.6695 15.9022 73.1317 14.9633C72.6089 14.0244 72.3475 12.9389 72.3475 11.7066C72.3475 10.4743 72.6089 9.39609 73.1317 8.47188C73.6695 7.53301 74.3939 6.81418 75.3051 6.3154C76.2163 5.81663 77.2245 5.56724 78.3299 5.56724C79.7788 5.56724 80.8991 5.978 81.6908 6.79951V1.3643H85.9479ZM79.2261 14.5672C79.958 14.5672 80.563 14.3178 81.041 13.8191C81.519 13.3056 81.758 12.6015 81.758 11.7066C81.758 10.8264 81.519 10.1369 81.041 9.63814C80.5779 9.13936 79.973 8.88998 79.2261 8.88998C78.4793 8.88998 77.8668 9.13936 77.3888 9.63814C76.9108 10.1369 76.6719 10.8264 76.6719 11.7066C76.6719 12.6015 76.9108 13.3056 77.3888 13.8191C77.8668 14.3178 78.4793 14.5672 79.2261 14.5672Z" fill="white"/>
<path d="M101.1 11.7506C101.1 11.78 101.077 12.1247 101.032 12.7848H92.2045C92.3838 13.401 92.7273 13.8777 93.2352 14.2152C93.758 14.5379 94.4078 14.6993 95.1845 14.6993C95.767 14.6993 96.2674 14.6186 96.6857 14.4572C97.1189 14.2958 97.552 14.0318 97.9852 13.665L100.226 15.9535C99.0458 17.2445 97.3205 17.89 95.0501 17.89C93.631 17.89 92.3838 17.6259 91.3083 17.0978C90.2328 16.5697 89.3963 15.8362 88.7988 14.8973C88.2163 13.9584 87.925 12.8949 87.925 11.7066C87.925 10.533 88.2088 9.48411 88.7764 8.5599C89.359 7.62103 90.1581 6.88753 91.1739 6.35941C92.1896 5.8313 93.3323 5.56724 94.6019 5.56724C95.8119 5.56724 96.9098 5.81663 97.8956 6.3154C98.8815 6.79951 99.6582 7.511 100.226 8.44988C100.808 9.37408 101.1 10.4743 101.1 11.7506ZM94.6244 8.5379C93.9671 8.5379 93.4144 8.72127 92.9663 9.08802C92.5331 9.45477 92.2568 9.95354 92.1373 10.5844H97.1114C96.9919 9.95354 96.7081 9.45477 96.26 9.08802C95.8268 8.72127 95.2816 8.5379 94.6244 8.5379Z" fill="white"/>
<path d="M107.118 7.1956C107.551 6.65281 108.111 6.24939 108.798 5.98533C109.5 5.7066 110.3 5.56724 111.196 5.56724V9.33007C110.807 9.28606 110.486 9.26406 110.232 9.26406C109.321 9.26406 108.604 9.50611 108.081 9.99022C107.573 10.4743 107.32 11.2152 107.32 12.2127V17.6919H103.062V5.76528H107.118V7.1956Z" fill="white"/>
<path d="M117.388 17.89C116.373 17.89 115.372 17.78 114.386 17.5599C113.4 17.3252 112.608 17.0245 112.011 16.6577L113.288 13.7971C113.841 14.1345 114.498 14.4059 115.26 14.6112C116.022 14.802 116.776 14.8973 117.523 14.8973C118.21 14.8973 118.695 14.8313 118.979 14.6993C119.278 14.5526 119.427 14.3472 119.427 14.0831C119.427 13.8191 119.248 13.6357 118.89 13.533C118.546 13.4156 117.993 13.3056 117.231 13.2029C116.261 13.0856 115.432 12.9315 114.744 12.7408C114.072 12.5501 113.49 12.198 112.997 11.6846C112.504 11.1711 112.257 10.4523 112.257 9.52812C112.257 8.76528 112.489 8.09046 112.952 7.50367C113.415 6.9022 114.087 6.43276 114.968 6.09536C115.865 5.74328 116.933 5.56724 118.173 5.56724C119.054 5.56724 119.928 5.65526 120.794 5.8313C121.66 6.00734 122.385 6.25672 122.967 6.57946L121.69 9.41809C120.615 8.8313 119.45 8.5379 118.195 8.5379C117.523 8.5379 117.03 8.61858 116.716 8.77995C116.402 8.92665 116.246 9.12469 116.246 9.37408C116.246 9.65281 116.417 9.85085 116.761 9.96821C117.105 10.0709 117.672 10.1809 118.464 10.2983C119.465 10.445 120.294 10.6137 120.951 10.8044C121.608 10.9951 122.176 11.3472 122.654 11.8606C123.147 12.3594 123.393 13.0636 123.393 13.9731C123.393 14.7213 123.162 15.3961 122.699 15.9976C122.235 16.5844 121.548 17.0465 120.637 17.3839C119.741 17.7213 118.658 17.89 117.388 17.89Z" fill="white"/>
<path d="M133.249 18C131.606 18 130.127 17.6626 128.812 16.9878C127.513 16.2983 126.49 15.3447 125.743 14.1271C124.996 12.9095 124.623 11.5306 124.623 9.99022C124.623 8.44988 124.996 7.0709 125.743 5.8533C126.49 4.6357 127.513 3.68949 128.812 3.01467C130.127 2.32518 131.606 1.98044 133.249 1.98044C134.683 1.98044 135.975 2.22983 137.125 2.72861C138.275 3.22738 139.231 3.94621 139.993 4.88509L137.17 7.39364C136.154 6.19071 134.922 5.58924 133.473 5.58924C132.621 5.58924 131.86 5.77261 131.188 6.13936C130.53 6.50611 130.015 7.0269 129.642 7.70171C129.283 8.36186 129.104 9.12469 129.104 9.99022C129.104 10.8557 129.283 11.6259 129.642 12.3007C130.015 12.9609 130.53 13.4743 131.188 13.8411C131.86 14.2078 132.621 14.3912 133.473 14.3912C134.922 14.3912 136.154 13.7897 137.17 12.5868L139.993 15.0954C139.231 16.0342 138.275 16.7531 137.125 17.2518C135.975 17.7506 134.683 18 133.249 18Z" fill="white"/>
<path d="M149.679 5.56724C151.187 5.56724 152.397 6.00733 153.308 6.88753C154.234 7.76773 154.698 9.09535 154.698 10.8704V17.6919H150.44V11.5526C150.44 9.9242 149.776 9.11002 148.446 9.11002C147.714 9.11002 147.124 9.34474 146.676 9.81418C146.243 10.2836 146.026 10.9878 146.026 11.9266V17.6919H141.769V1.3643H146.026V6.86553C146.49 6.4401 147.035 6.11736 147.662 5.89731C148.289 5.67726 148.962 5.56724 149.679 5.56724Z" fill="white"/>
<path d="M162.546 5.56724C164.563 5.56724 166.101 6.022 167.162 6.93154C168.222 7.8264 168.752 9.20538 168.752 11.0685V17.6919H164.787V16.1516C164.174 17.3105 162.979 17.89 161.202 17.89C160.261 17.89 159.447 17.7286 158.759 17.4059C158.072 17.0831 157.55 16.6504 157.191 16.1076C156.847 15.5501 156.676 14.9193 156.676 14.2152C156.676 13.0856 157.116 12.2127 157.998 11.5966C158.879 10.9658 160.238 10.6504 162.076 10.6504H164.495C164.421 9.38875 163.562 8.75795 161.919 8.75795C161.336 8.75795 160.746 8.8533 160.149 9.04401C159.551 9.22005 159.043 9.46944 158.625 9.79217L157.191 6.95354C157.863 6.51345 158.677 6.17604 159.633 5.94132C160.604 5.69193 161.575 5.56724 162.546 5.56724ZM162.389 15.2494C162.882 15.2494 163.315 15.132 163.689 14.8973C164.062 14.6626 164.331 14.3178 164.495 13.8631V12.8288H162.658C161.418 12.8288 160.798 13.2323 160.798 14.0391C160.798 14.4059 160.94 14.6993 161.224 14.9193C161.508 15.1394 161.896 15.2494 162.389 15.2494Z" fill="white"/>
<path d="M171.44 5.76528H175.697V17.6919H171.44V5.76528ZM173.568 4.44499C172.791 4.44499 172.164 4.23227 171.686 3.80684C171.208 3.38142 170.969 2.8533 170.969 2.22249C170.969 1.59169 171.208 1.06357 171.686 0.638142C172.164 0.212714 172.791 0 173.568 0C174.345 0 174.972 0.205379 175.45 0.616137C175.928 1.01223 176.167 1.52567 176.167 2.15648C176.167 2.81663 175.928 3.36675 175.45 3.80684C174.972 4.23227 174.345 4.44499 173.568 4.44499Z" fill="white"/>
<path d="M186.373 5.56724C187.881 5.56724 189.091 6.00733 190.002 6.88753C190.928 7.76773 191.391 9.09535 191.391 10.8704V17.6919H187.134V11.5526C187.134 9.9242 186.47 9.11002 185.14 9.11002C184.408 9.11002 183.818 9.34474 183.37 9.81418C182.937 10.2836 182.72 10.9878 182.72 11.9266V17.6919H178.463V5.76528H182.519V7.06357C182.997 6.57946 183.564 6.21271 184.222 5.96332C184.879 5.69927 185.596 5.56724 186.373 5.56724Z" fill="white"/>
<rect y="11.1904" width="4.68177" height="6.80985" fill="#D57DFF"/>
<rect x="12.7695" y="5.65723" width="4.68177" height="6.80985" fill="#D57DFF"/>
<rect x="6.38281" y="3.10352" width="4.68177" height="11.4916" fill="#00FFC2"/>
</svg>
