<svg width="42" height="42" viewBox="0 0 42 42" fill="none" xmlns="http://www.w3.org/2000/svg">
<path d="M31 41.5H31.5V41V37V36.5H31H21C12.5961 36.5 5.5 29.4039 5.5 21C5.5 12.5961 12.5961 5.5 21 5.5C29.4039 5.5 36.5 12.5961 36.5 21V23.86C36.5 24.5038 36.2074 25.1704 35.7283 25.68C35.2492 26.1893 34.6241 26.5 34 26.5C33.3759 26.5 32.7508 26.1893 32.2717 25.68C31.7926 25.1704 31.5 24.5038 31.5 23.86V21C31.5 15.2039 26.7961 10.5 21 10.5C15.2039 10.5 10.5 15.2039 10.5 21C10.5 26.7961 15.2039 31.5 21 31.5C23.6953 31.5 26.1743 30.4821 28.0297 28.8001C29.4556 30.4558 31.6665 31.5 34 31.5C38.229 31.5 41.5 28.0631 41.5 23.86V21C41.5 9.68386 32.3161 0.5 21 0.5C9.68386 0.5 0.5 9.68386 0.5 21C0.5 32.3161 9.68386 41.5 21 41.5H31ZM21 26.5C17.9561 26.5 15.5 24.0439 15.5 21C15.5 17.9561 17.9561 15.5 21 15.5C24.0439 15.5 26.5 17.9561 26.5 21C26.5 24.0439 24.0439 26.5 21 26.5Z" stroke="url(#paint0_linear)"/>
<defs>
<linearGradient id="paint0_linear" x1="2.8729" y1="19.8108" x2="39.5731" y2="19.8108" gradientUnits="userSpaceOnUse">
<stop stop-color="#B3AEF5"/>
<stop offset="0.413" stop-color="#D7CBE7"/>
<stop offset="0.654" stop-color="#E5C8C8"/>
<stop offset="1" stop-color="#ECBDAA"/>
</linearGradient>
</defs>
</svg>
