<svg width="42" height="42" viewBox="0 0 42 42" fill="none" xmlns="http://www.w3.org/2000/svg">
<path d="M1 23.3182H4.30357C5.32729 30.7743 11.2257 36.6727 18.6818 37.6964V41V41.5H19.1818H22.8182H23.3182V41V37.6964C30.7743 36.6727 36.6727 30.7743 37.6964 23.3182H41H41.5V22.8182V19.1818V18.6818H41H37.6964C36.6727 11.2257 30.7743 5.32729 23.3182 4.30357V1V0.5H22.8182H19.1818H18.6818V1V4.30357C11.2257 5.32729 5.32729 11.2257 4.30357 18.6818H1H0.5V19.1818V22.8182V23.3182H1ZM21 33.2273C14.2398 33.2273 8.77273 27.7602 8.77273 21C8.77273 14.2398 14.2398 8.77273 21 8.77273C27.7602 8.77273 33.2273 14.2398 33.2273 21C33.2273 27.7602 27.7602 33.2273 21 33.2273Z" stroke="url(#paint0_linear)"/>
<defs>
<linearGradient id="paint0_linear" x1="2.8729" y1="19.8108" x2="39.5731" y2="19.8108" gradientUnits="userSpaceOnUse">
<stop stop-color="#B3AEF5"/>
<stop offset="0.413" stop-color="#D7CBE7"/>
<stop offset="0.654" stop-color="#E5C8C8"/>
<stop offset="1" stop-color="#ECBDAA"/>
</linearGradient>
</defs>
</svg>
