<svg width="125" height="22" viewBox="0 0 125 22" fill="none" xmlns="http://www.w3.org/2000/svg">
<path d="M30.8014 15.7601H28.7943V8.14071H30.8014V15.7601ZM30.8168 6.57467H28.7634V4.97852H30.8168V6.57467Z" fill="#2F3530"/>
<path d="M39.7311 15.7601H37.7241V11.0168C37.7241 10.5249 37.5903 10.1635 37.3226 9.93262C37.0653 9.70173 36.7565 9.58629 36.3963 9.58629C36.0258 9.58629 35.7067 9.70173 35.4391 9.93262C35.1818 10.1635 35.0531 10.5249 35.0531 11.0168V15.7601H33.0461V7.91484H35.0068V8.63763C35.5317 8.09554 36.2007 7.82449 37.0139 7.82449C37.8064 7.82449 38.4394 8.05538 38.9129 8.51716C39.4584 9.04922 39.7311 9.79208 39.7311 10.7458V15.7601Z" fill="#2F3530"/>
<path d="M48.3189 7.91484L45.3701 15.7601H43.7953L40.831 7.91484H42.9462L44.5827 12.7635L46.2038 7.91484H48.3189Z" fill="#2F3530"/>
<path d="M55.9674 12.4473H50.9343C50.9343 12.9693 51.0886 13.391 51.3974 13.7122C51.7062 14.0334 52.1385 14.1941 52.6943 14.1941C53.106 14.1941 53.4405 14.1389 53.6978 14.0284C53.9654 13.908 54.2382 13.7172 54.5161 13.4562L55.7358 14.6157C55.3035 15.0474 54.8558 15.3636 54.3926 15.5643C53.9397 15.7551 53.3685 15.8505 52.6789 15.8505C52.1642 15.8505 51.6959 15.7902 51.2739 15.6698C50.8622 15.5393 50.4762 15.3284 50.116 15.0373C49.7557 14.7462 49.4727 14.3296 49.2668 13.7875C49.061 13.2454 48.9581 12.5929 48.9581 11.8299C48.9581 10.5751 49.2771 9.59633 49.9153 8.89362C50.5534 8.18087 51.4026 7.82449 52.4627 7.82449C53.564 7.82449 54.4235 8.17585 55.041 8.87856C55.6586 9.57123 55.9674 10.4848 55.9674 11.6191V12.4473ZM53.9912 11.1072C53.9809 10.7658 53.9191 10.4848 53.8059 10.2639C53.5589 9.72181 53.1112 9.45077 52.4627 9.45077C51.8143 9.45077 51.3665 9.72181 51.1195 10.2639C51.0063 10.4848 50.9445 10.7658 50.9343 11.1072H53.9912Z" fill="#2F3530"/>
<path d="M63.8698 13.2906C63.8698 14.1238 63.5507 14.7613 62.9126 15.203C62.2745 15.6346 61.4562 15.8505 60.4578 15.8505C59.7167 15.8505 59.0786 15.7752 58.5434 15.6246C58.0082 15.474 57.5038 15.1728 57.0304 14.7211L58.3427 13.4412C58.8367 13.9331 59.5521 14.179 60.4887 14.179C60.8798 14.179 61.2143 14.1138 61.4922 13.9832C61.7701 13.8427 61.9091 13.6369 61.9091 13.3659C61.9091 12.9342 61.626 12.6933 61.0599 12.6431L59.7631 12.5226C58.2192 12.372 57.4472 11.6392 57.4472 10.3241C57.4472 9.54112 57.7457 8.92875 58.3427 8.48705C58.9499 8.04535 59.6859 7.82449 60.5504 7.82449C61.9194 7.82449 62.9435 8.13067 63.6228 8.74304L62.3877 9.96274C61.9863 9.61139 61.3636 9.43571 60.5196 9.43571C60.1387 9.43571 59.8505 9.511 59.655 9.66158C59.4697 9.80212 59.3771 9.9778 59.3771 10.1886C59.3771 10.5801 59.655 10.806 60.2108 10.8662L61.4768 10.9867C63.0721 11.1373 63.8698 11.9052 63.8698 13.2906Z" fill="#2F3530"/>
<path d="M69.0142 15.7601H67.9181C67.1564 15.7601 66.5749 15.5393 66.1735 15.0975C65.7824 14.6558 65.5868 14.1288 65.5868 13.5164V9.63146H64.7377V8.14071H65.5868V5.82177H67.5939V8.14071H69.0142V9.63146H67.5939V13.396C67.5939 13.8678 67.8254 14.1037 68.2886 14.1037H69.0142V15.7601Z" fill="#2F3530"/>
<path d="M72.8363 15.7601H70.8293V8.14071H72.8363V15.7601ZM72.8518 6.57467H70.7984V4.97852H72.8518V6.57467Z" fill="#2F3530"/>
<path d="M81.7661 15.7601H79.759V11.0168C79.759 10.5249 79.6252 10.1635 79.3576 9.93262C79.1003 9.70173 78.7915 9.58629 78.4313 9.58629C78.0607 9.58629 77.7417 9.70173 77.4741 9.93262C77.2168 10.1635 77.0881 10.5249 77.0881 11.0168V15.7601H75.081V7.91484H77.0418V8.63763C77.5667 8.09554 78.2357 7.82449 79.0488 7.82449C79.8414 7.82449 80.4744 8.05538 80.9478 8.51716C81.4933 9.04922 81.7661 9.79208 81.7661 10.7458V15.7601Z" fill="#2F3530"/>
<path d="M90.2458 15.474C90.2458 16.4277 89.9216 17.2057 89.2732 17.808C88.635 18.4204 87.7807 18.7265 86.7103 18.7265C86.0722 18.7265 85.5267 18.6513 85.0738 18.5007C84.6209 18.3501 84.1938 18.0841 83.7923 17.7026L85.0429 16.4678C85.4649 16.8694 85.9898 17.0702 86.6177 17.0702C87.1735 17.0702 87.58 16.9095 87.8374 16.5883C88.105 16.2771 88.2388 15.8956 88.2388 15.4439V14.6458C87.755 15.1678 87.1169 15.4288 86.3243 15.4288C85.5215 15.4288 84.8834 15.1979 84.4099 14.7362C84.06 14.3948 83.8335 13.9933 83.7306 13.5315C83.638 13.0597 83.5916 12.4222 83.5916 11.6191C83.5916 10.816 83.638 10.1836 83.7306 9.72181C83.8335 9.26003 84.06 8.85848 84.4099 8.51716C84.8834 8.05538 85.5267 7.82449 86.3398 7.82449C87.1323 7.82449 87.7859 8.10056 88.3005 8.65269V7.91484H90.2458V15.474ZM88.2388 11.6191C88.2388 10.9867 88.1513 10.4898 87.9763 10.1284C87.8013 9.76699 87.4462 9.58629 86.911 9.58629C86.6228 9.58629 86.3861 9.6415 86.2008 9.75193C86.0258 9.85232 85.892 10.0079 85.7994 10.2187C85.7171 10.4295 85.6605 10.6404 85.6296 10.8512C85.609 11.062 85.5987 11.318 85.5987 11.6191C85.5987 11.9203 85.609 12.1763 85.6296 12.3871C85.6605 12.5979 85.7171 12.8087 85.7994 13.0195C85.8817 13.2303 86.0156 13.391 86.2008 13.5014C86.3861 13.6118 86.6228 13.667 86.911 13.667C87.1992 13.667 87.4359 13.6118 87.6212 13.5014C87.8065 13.391 87.9403 13.2303 88.0226 13.0195C88.105 12.8087 88.1616 12.5979 88.1924 12.3871C88.2233 12.1763 88.2388 11.9203 88.2388 11.6191Z" fill="#2F3530"/>
<path d="M98.4082 13.4261C98.4082 14.1991 98.1046 14.7964 97.4973 15.218C96.9003 15.6396 96.1181 15.8505 95.1506 15.8505C93.7199 15.8505 92.6237 15.484 91.8621 14.7512L92.8965 13.7423C93.4317 14.2744 94.1831 14.5404 95.1506 14.5404C95.6652 14.5404 96.0769 14.4551 96.3857 14.2844C96.7048 14.1037 96.8643 13.8377 96.8643 13.4863C96.8643 12.9543 96.5144 12.6531 95.8145 12.5828L94.5639 12.4774C93.02 12.3369 92.2481 11.6342 92.2481 10.3693C92.2481 9.63648 92.526 9.06428 93.0818 8.65269C93.6376 8.2411 94.3426 8.03531 95.1969 8.03531C96.4629 8.03531 97.4304 8.32141 98.0994 8.89362L97.1113 9.87239C96.6585 9.50096 96.0152 9.31524 95.1815 9.31524C94.7183 9.31524 94.3632 9.40559 94.1162 9.58629C93.8795 9.75695 93.7611 9.99286 93.7611 10.294C93.7611 10.5651 93.8434 10.7709 94.0081 10.9114C94.1831 11.0419 94.461 11.1272 94.8418 11.1674L95.938 11.2577C97.5848 11.3983 98.4082 12.1211 98.4082 13.4261Z" fill="#2F3530"/>
<path d="M103.445 15.7601H102.504C101.814 15.7601 101.284 15.5543 100.913 15.1427C100.543 14.7311 100.358 14.2292 100.358 13.6369V9.30019H99.462V8.12566H100.358V5.94223H101.932V8.12566H103.445V9.30019H101.932V13.5616C101.932 14.1539 102.22 14.4501 102.797 14.4501H103.445V15.7601Z" fill="#2F3530"/>
<path d="M111.133 15.7601H109.589V15.0674C109.3 15.3485 108.997 15.5493 108.678 15.6698C108.369 15.7902 107.978 15.8505 107.504 15.8505C106.578 15.8505 105.878 15.6196 105.405 15.1578C104.993 14.7362 104.787 14.189 104.787 13.5164C104.787 12.8539 105.019 12.3218 105.482 11.9203C105.955 11.5187 106.63 11.318 107.504 11.318H109.558V10.7759C109.558 10.284 109.424 9.92259 109.156 9.6917C108.889 9.4608 108.451 9.34536 107.844 9.34536C107.432 9.34536 107.098 9.40559 106.841 9.52606C106.594 9.63648 106.357 9.82722 106.13 10.0983L105.111 9.1496C105.472 8.73802 105.858 8.45191 106.269 8.29129C106.691 8.12064 107.237 8.03531 107.906 8.03531C110.057 8.03531 111.133 8.90868 111.133 10.6554V15.7601ZM109.558 13.0045V12.3871H107.751C106.794 12.3871 106.316 12.7535 106.316 13.4863C106.316 14.2091 106.81 14.5705 107.798 14.5705C108.426 14.5705 108.899 14.425 109.218 14.1338C109.445 13.923 109.558 13.5466 109.558 13.0045Z" fill="#2F3530"/>
<path d="M116.834 15.7601H115.892C115.202 15.7601 114.672 15.5543 114.302 15.1427C113.931 14.7311 113.746 14.2292 113.746 13.6369V9.30019H112.851V8.12566H113.746V5.94223H115.321V8.12566H116.834V9.30019H115.321V13.5616C115.321 14.1539 115.609 14.4501 116.185 14.4501H116.834V15.7601Z" fill="#2F3530"/>
<path d="M125 12.3871H119.92C119.92 13.0597 120.09 13.5867 120.43 13.9682C120.78 14.3396 121.274 14.5253 121.912 14.5253C122.334 14.5253 122.684 14.4651 122.962 14.3446C123.24 14.2242 123.523 14.0234 123.811 13.7423L124.814 14.6609C124.392 15.0725 123.96 15.3736 123.518 15.5643C123.085 15.7551 122.54 15.8505 121.881 15.8505C120.811 15.8505 119.956 15.5393 119.318 14.9169C118.68 14.2945 118.361 13.3006 118.361 11.9353C118.361 10.7106 118.659 9.75695 119.256 9.07431C119.853 8.38164 120.661 8.03531 121.68 8.03531C122.72 8.03531 123.533 8.3716 124.12 9.0442C124.706 9.71679 125 10.6153 125 11.7396V12.3871ZM123.44 11.318C123.409 10.8662 123.337 10.5199 123.224 10.279C122.926 9.63648 122.411 9.31524 121.68 9.31524C120.939 9.31524 120.419 9.63648 120.121 10.279C119.997 10.54 119.931 10.8863 119.92 11.318H123.44Z" fill="#2F3530"/>
<path fill-rule="evenodd" clip-rule="evenodd" d="M1.4457 5.47538C2.56067 3.53213 4.24737 1.97966 6.27621 1.02929C8.30505 0.0789201 10.5775 -0.223185 12.7841 0.164099C14.9908 0.551383 17.0245 1.60924 18.6085 3.19368L17.4873 4.31459C16.1337 2.96061 14.3958 2.05663 12.5101 1.72568C10.6244 1.39472 8.68249 1.65288 6.94875 2.46502C5.21502 3.27716 3.77366 4.60381 2.82086 6.26441C1.86806 7.925 1.45011 9.83886 1.62391 11.7455C1.79771 13.6521 2.5548 15.4588 3.79215 16.9198C5.02949 18.3808 6.68696 19.4249 8.53897 19.9102C10.391 20.3955 12.3475 20.2983 14.1423 19.6319C15.9371 18.9654 17.4829 17.7621 18.5694 16.1857L19.8748 17.0854C18.6034 18.9301 16.7945 20.3383 14.6942 21.1181C12.5939 21.898 10.3043 22.0118 8.1371 21.4439C5.96986 20.876 4.03026 19.6541 2.58231 17.9445C1.13436 16.2348 0.248393 14.1206 0.0450131 11.8894C-0.158366 9.65826 0.330719 7.41863 1.4457 5.47538Z" fill="#7771CE"/>
<path fill-rule="evenodd" clip-rule="evenodd" d="M17.5809 14.5376C16.8493 15.8131 15.7424 16.8323 14.4109 17.4563L13.7381 16.0207C14.7745 15.535 15.6361 14.7417 16.2056 13.7488C16.775 12.7559 17.0247 11.6117 16.9206 10.4718C16.8165 9.33196 16.3636 8.25188 15.6237 7.37858C14.8838 6.50528 13.8928 5.88119 12.7855 5.59127C11.6783 5.30134 10.5086 5.35966 9.43563 5.75828C8.36269 6.15691 7.43865 6.87648 6.78928 7.81904L5.48369 6.91957C6.31793 5.70865 7.50506 4.78421 8.88347 4.2721C10.2619 3.75998 11.7646 3.68506 13.1871 4.05753C14.6097 4.43 15.8828 5.23177 16.8334 6.3537C17.784 7.47564 18.3657 8.86323 18.4994 10.3276C18.6332 11.792 18.3125 13.262 17.5809 14.5376Z" fill="#E4B5A2"/>
</svg>
