<svg width="200" height="35" viewBox="0 0 200 35" fill="none" xmlns="http://www.w3.org/2000/svg">
<path d="M49.2827 25.2158H46.0714V13.0248H49.2827V25.2158ZM49.3074 10.5192H46.022V7.96533H49.3074V10.5192Z" fill="#2F3530"/>
<path d="M63.5702 25.2158H60.3589V17.6266C60.3589 16.8395 60.1449 16.2613 59.7167 15.8919C59.305 15.5225 58.8109 15.3378 58.2345 15.3378C57.6417 15.3378 57.1312 15.5225 56.703 15.8919C56.2913 16.2613 56.0855 16.8395 56.0855 17.6266V25.2158H52.8742V12.6634H56.0113V13.8199C56.8512 12.9526 57.9217 12.5189 59.2226 12.5189C60.4907 12.5189 61.5035 12.8883 62.261 13.6272C63.1338 14.4784 63.5702 15.667 63.5702 17.1929V25.2158Z" fill="#2F3530"/>
<path d="M77.3107 12.6634L72.5926 25.2158H70.0729L65.3301 12.6634H68.7143L71.3327 20.4213L73.9265 12.6634H77.3107Z" fill="#2F3530"/>
<path d="M89.5482 19.9154H81.4952C81.4952 20.7506 81.7422 21.4252 82.2363 21.9392C82.7303 22.4532 83.422 22.7102 84.3113 22.7102C84.97 22.7102 85.5052 22.6218 85.9169 22.4452C86.3451 22.2524 86.7815 21.9472 87.2261 21.5296L89.1776 23.3848C88.486 24.0754 87.7696 24.5814 87.0285 24.9026C86.3039 25.2078 85.3899 25.3604 84.2866 25.3604C83.4632 25.3604 82.7139 25.264 82.0387 25.0713C81.3799 24.8625 80.7624 24.5252 80.186 24.0594C79.6096 23.5936 79.1567 22.927 78.8274 22.0597C78.498 21.1923 78.3333 20.1483 78.3333 18.9276C78.3333 16.9199 78.8438 15.3538 79.8649 14.2295C80.8859 13.0891 82.2445 12.5189 83.9407 12.5189C85.7028 12.5189 87.0779 13.0811 88.066 14.2054C89.0541 15.3137 89.5482 16.7753 89.5482 18.5903V19.9154ZM86.3863 17.7711C86.3698 17.225 86.271 16.7753 86.0898 16.4219C85.6946 15.5546 84.9782 15.1209 83.9407 15.1209C82.9032 15.1209 82.1869 15.5546 81.7916 16.4219C81.6105 16.7753 81.5117 17.225 81.4952 17.7711H86.3863Z" fill="#2F3530"/>
<path d="M102.192 21.2646C102.192 22.5977 101.682 23.6177 100.661 24.3244C99.6395 25.0151 98.3303 25.3604 96.7329 25.3604C95.5471 25.3604 94.5261 25.2399 93.6698 24.999C92.8134 24.7581 92.0065 24.2762 91.249 23.5534L93.3486 21.5055C94.1391 22.2926 95.2837 22.6861 96.7823 22.6861C97.4081 22.6861 97.9433 22.5817 98.3879 22.3729C98.8326 22.148 99.0549 21.8187 99.0549 21.3851C99.0549 20.6944 98.602 20.3089 97.6962 20.2286L95.6213 20.0359C93.151 19.7949 91.9159 18.6224 91.9159 16.5183C91.9159 15.2655 92.3935 14.2857 93.3486 13.579C94.3203 12.8722 95.4977 12.5189 96.8811 12.5189C99.0713 12.5189 100.71 13.0088 101.797 13.9886L99.8206 15.9401C99.1784 15.3779 98.1821 15.0968 96.8317 15.0968C96.2223 15.0968 95.7612 15.2173 95.4483 15.4582C95.1519 15.6831 95.0037 15.9642 95.0037 16.3015C95.0037 16.9279 95.4483 17.2893 96.3376 17.3856L98.3632 17.5784C100.916 17.8193 102.192 19.0481 102.192 21.2646Z" fill="#2F3530"/>
<path d="M110.423 25.2158H108.669C107.451 25.2158 106.52 24.8625 105.878 24.1557C105.252 23.449 104.939 22.6058 104.939 21.626V15.41H103.581V13.0248H104.939V9.31453H108.151V13.0248H110.423V15.41H108.151V21.4333C108.151 22.1882 108.521 22.5656 109.262 22.5656H110.423V25.2158Z" fill="#2F3530"/>
<path d="M116.538 25.2158H113.327V13.0248H116.538V25.2158ZM116.563 10.5192H113.278V7.96533H116.563V10.5192Z" fill="#2F3530"/>
<path d="M130.826 25.2158H127.615V17.6266C127.615 16.8395 127.401 16.2613 126.972 15.8919C126.561 15.5225 126.067 15.3378 125.49 15.3378C124.898 15.3378 124.387 15.5225 123.959 15.8919C123.547 16.2613 123.341 16.8395 123.341 17.6266V25.2158H120.13V12.6634H123.267V13.8199C124.107 12.9526 125.177 12.5189 126.478 12.5189C127.746 12.5189 128.759 12.8883 129.517 13.6272C130.39 14.4784 130.826 15.667 130.826 17.1929V25.2158Z" fill="#2F3530"/>
<path d="M144.394 24.7581C144.394 26.284 143.875 27.5287 142.837 28.4925C141.816 29.4722 140.449 29.9621 138.737 29.9621C137.716 29.9621 136.843 29.8417 136.118 29.6007C135.394 29.3598 134.71 28.9342 134.068 28.3238L136.069 26.3482C136.744 26.9907 137.584 27.3119 138.589 27.3119C139.478 27.3119 140.128 27.0549 140.54 26.5409C140.968 26.043 141.182 25.4327 141.182 24.7099V23.433C140.408 24.2682 139.387 24.6858 138.119 24.6858C136.835 24.6858 135.814 24.3164 135.056 23.5775C134.496 23.0314 134.134 22.3889 133.969 21.6501C133.821 20.8952 133.747 19.8752 133.747 18.5903C133.747 17.3053 133.821 16.2934 133.969 15.5546C134.134 14.8157 134.496 14.1733 135.056 13.6272C135.814 12.8883 136.843 12.5189 138.144 12.5189C139.412 12.5189 140.458 12.9606 141.281 13.844V12.6634H144.394V24.7581ZM141.182 18.5903C141.182 17.5784 141.042 16.7833 140.762 16.2051C140.482 15.6269 139.914 15.3378 139.058 15.3378C138.597 15.3378 138.218 15.4261 137.922 15.6028C137.642 15.7634 137.428 16.0124 137.279 16.3497C137.148 16.687 137.057 17.0243 137.008 17.3616C136.975 17.6989 136.958 18.1084 136.958 18.5903C136.958 19.0722 136.975 19.4817 137.008 19.819C137.057 20.1563 137.148 20.4936 137.279 20.8309C137.411 21.1682 137.625 21.4252 137.922 21.6019C138.218 21.7786 138.597 21.8669 139.058 21.8669C139.519 21.8669 139.898 21.7786 140.194 21.6019C140.491 21.4252 140.705 21.1682 140.836 20.8309C140.968 20.4936 141.059 20.1563 141.108 19.819C141.158 19.4817 141.182 19.0722 141.182 18.5903Z" fill="#2F3530"/>
<path d="M157.453 21.4814C157.453 22.7182 156.968 23.6739 155.996 24.3485C155.041 25.0231 153.789 25.3604 152.241 25.3604C149.952 25.3604 148.198 24.7741 146.98 23.6016L148.635 21.9874C149.491 22.8387 150.693 23.2643 152.241 23.2643C153.065 23.2643 153.723 23.1278 154.217 22.8547C154.728 22.5656 154.983 22.14 154.983 21.5778C154.983 20.7265 154.423 20.2447 153.303 20.1322L151.302 19.9636C148.832 19.7387 147.597 18.6144 147.597 16.5906C147.597 15.4181 148.042 14.5025 148.931 13.844C149.82 13.1855 150.948 12.8562 152.315 12.8562C154.341 12.8562 155.889 13.314 156.959 14.2295L155.378 15.7955C154.654 15.2012 153.625 14.9041 152.291 14.9041C151.55 14.9041 150.981 15.0486 150.586 15.3378C150.207 15.6108 150.018 15.9883 150.018 16.4701C150.018 16.9038 150.15 17.2331 150.413 17.4579C150.693 17.6667 151.138 17.8033 151.747 17.8675L153.501 18.0121C156.136 18.2369 157.453 19.3934 157.453 21.4814Z" fill="#2F3530"/>
<path d="M165.513 25.2158H164.006C162.902 25.2158 162.054 24.8866 161.462 24.228C160.869 23.5695 160.572 22.7664 160.572 21.8187V14.88H159.139V13.0007H160.572V9.50728H163.092V13.0007H165.513V14.88H163.092V21.6983C163.092 22.6459 163.553 23.1198 164.475 23.1198H165.513V25.2158Z" fill="#2F3530"/>
<path d="M177.812 25.2158H175.342V24.1076C174.881 24.5573 174.395 24.8785 173.885 25.0713C173.391 25.264 172.765 25.3604 172.007 25.3604C170.525 25.3604 169.405 24.991 168.648 24.2521C167.989 23.5775 167.66 22.7021 167.66 21.626C167.66 20.5659 168.03 19.7146 168.771 19.0721C169.529 18.4297 170.607 18.1084 172.007 18.1084H175.293V17.2411C175.293 16.4541 175.079 15.8758 174.65 15.5064C174.222 15.137 173.522 14.9523 172.551 14.9523C171.892 14.9523 171.357 15.0486 170.945 15.2414C170.55 15.4181 170.171 15.7232 169.809 16.1569L168.178 14.6391C168.755 13.9805 169.372 13.5228 170.031 13.2658C170.706 12.9927 171.579 12.8562 172.65 12.8562C176.091 12.8562 177.812 14.2536 177.812 17.0483V25.2158ZM175.293 20.8068V19.819H172.402C170.871 19.819 170.105 20.4053 170.105 21.5778C170.105 22.7343 170.896 23.3125 172.477 23.3125C173.481 23.3125 174.239 23.0796 174.749 22.6138C175.112 22.2765 175.293 21.6742 175.293 20.8068Z" fill="#2F3530"/>
<path d="M186.934 25.2158H185.427C184.324 25.2158 183.476 24.8866 182.883 24.228C182.29 23.5695 181.994 22.7664 181.994 21.8187V14.88H180.561V13.0007H181.994V9.50728H184.513V13.0007H186.934V14.88H184.513V21.6983C184.513 22.6459 184.974 23.1198 185.897 23.1198H186.934V25.2158Z" fill="#2F3530"/>
<path d="M200 19.819H191.873C191.873 20.8952 192.144 21.7384 192.688 22.3488C193.248 22.9431 194.038 23.2402 195.059 23.2402C195.734 23.2402 196.294 23.1438 196.739 22.9511C197.184 22.7584 197.636 22.4371 198.098 21.9874L199.703 23.4571C199.028 24.1156 198.336 24.5975 197.628 24.9026C196.936 25.2078 196.064 25.3604 195.01 25.3604C193.297 25.3604 191.93 24.8625 190.909 23.8666C189.888 22.8708 189.378 21.2807 189.378 19.0962C189.378 17.1367 189.855 15.6108 190.81 14.5186C191.765 13.4103 193.058 12.8562 194.689 12.8562C196.352 12.8562 197.653 13.3943 198.592 14.4704C199.53 15.5466 200 16.9841 200 18.783V19.819ZM197.505 18.1084C197.455 17.3856 197.34 16.8315 197.159 16.446C196.681 15.4181 195.858 14.9041 194.689 14.9041C193.503 14.9041 192.671 15.4181 192.194 16.446C191.996 16.8636 191.889 17.4178 191.873 18.1084H197.505Z" fill="#2F3530"/>
<path fill-rule="evenodd" clip-rule="evenodd" d="M2.31311 8.76059C4.09707 5.6514 6.79578 3.16746 10.0419 1.64686C13.288 0.126272 16.9239 -0.357095 20.4546 0.262557C23.9852 0.882211 27.2392 2.57478 29.7735 5.10988L27.9795 6.90333C25.8138 4.73697 23.0332 3.2906 20.0161 2.76107C16.9989 2.23155 13.8919 2.64461 11.118 3.94402C8.34401 5.24344 6.03784 7.36608 4.51336 10.023C2.98889 12.68 2.32018 15.7421 2.59825 18.7927C2.87633 21.8433 4.08768 24.7341 6.06742 27.0716C8.04716 29.4091 10.6991 31.0798 13.6623 31.8563C16.6255 32.6327 19.756 32.4772 22.6276 31.4109C25.4993 30.3446 27.9726 28.4193 29.7109 25.8971L31.7996 27.3366C29.7654 30.2881 26.8711 32.5411 23.5107 33.7889C20.1502 35.0368 16.4869 35.2187 13.0193 34.3101C9.55176 33.4015 6.44841 31.4465 4.13169 28.7111C1.81497 25.9757 0.397427 22.5928 0.0720208 19.023C-0.253386 15.4532 0.529149 11.8698 2.31311 8.76059Z" fill="#7771CE"/>
<path fill-rule="evenodd" clip-rule="evenodd" d="M28.1292 23.2602C26.9587 25.3011 25.1877 26.9318 23.0573 27.9302L21.9808 25.6332C23.6391 24.856 25.0176 23.5868 25.9287 21.9982C26.8399 20.4095 27.2393 18.5788 27.0727 16.755C26.9062 14.9312 26.1817 13.2031 24.9978 11.8058C23.814 10.4086 22.2283 9.41003 20.4567 8.94614C18.6851 8.48226 16.8136 8.57557 15.0969 9.21337C13.3802 9.85117 11.9017 11.0025 10.8627 12.5106L8.77376 11.0714C10.1086 9.13395 12.0079 7.65486 14.2134 6.83548C16.4189 6.01609 18.8232 5.89622 21.0993 6.49217C23.3753 7.08812 25.4124 8.37095 26.9333 10.166C28.4541 11.9611 29.3849 14.1813 29.5989 16.5243C29.8129 18.8673 29.2997 21.2193 28.1292 23.2602Z" fill="#E4B5A2"/>
</svg>
