<svg width="165" height="29" viewBox="0 0 165 29" fill="none" xmlns="http://www.w3.org/2000/svg">
<path d="M40.6574 20.803H38.008V10.7454H40.6574V20.803ZM40.6778 8.67822H37.9673V6.57129H40.6778V8.67822Z" fill="white"/>
<path d="M52.4446 20.803H49.7953V14.5418C49.7953 13.8925 49.6187 13.4155 49.2655 13.1107C48.9258 12.8059 48.5182 12.6536 48.0427 12.6536C47.5536 12.6536 47.1324 12.8059 46.7792 13.1107C46.4395 13.4155 46.2697 13.8925 46.2697 14.5418V20.803H43.6204V10.4472H46.2085V11.4013C46.9014 10.6858 47.7846 10.328 48.8579 10.328C49.904 10.328 50.7396 10.6328 51.3645 11.2423C52.0846 11.9446 52.4446 12.9252 52.4446 14.1841V20.803Z" fill="white"/>
<path d="M63.7806 10.4472L59.8881 20.803H57.8094L53.8965 10.4472H56.6885L58.8487 16.8475L60.9886 10.4472H63.7806Z" fill="white"/>
<path d="M73.8765 16.4301H67.2328C67.2328 17.1192 67.4366 17.6757 67.8442 18.0998C68.2518 18.5238 68.8224 18.7358 69.5561 18.7358C70.0995 18.7358 70.5411 18.6629 70.8807 18.5172C71.234 18.3582 71.594 18.1064 71.9608 17.7619L73.5708 19.2924C73.0002 19.8622 72.4092 20.2796 71.7978 20.5446C71.2 20.7964 70.446 20.9223 69.5357 20.9223C68.8564 20.9223 68.2382 20.8428 67.6811 20.6837C67.1377 20.5115 66.6282 20.2332 66.1527 19.8489C65.6772 19.4646 65.3035 18.9147 65.0318 18.1992C64.7601 17.4836 64.6242 16.6223 64.6242 15.6152C64.6242 13.9588 65.0454 12.6668 65.8878 11.7392C66.7301 10.7984 67.851 10.328 69.2504 10.328C70.7041 10.328 71.8386 10.7918 72.6537 11.7194C73.4689 12.6337 73.8765 13.8395 73.8765 15.3369V16.4301ZM71.2679 14.6611C71.2543 14.2106 71.1728 13.8395 71.0234 13.548C70.6973 12.8324 70.1063 12.4747 69.2504 12.4747C68.3944 12.4747 67.8034 12.8324 67.4774 13.548C67.3279 13.8395 67.2464 14.2106 67.2328 14.6611H71.2679Z" fill="white"/>
<path d="M84.3077 17.5432C84.3077 18.6431 83.8866 19.4845 83.0442 20.0676C82.2019 20.6374 81.1218 20.9223 79.8039 20.9223C78.8257 20.9223 77.9833 20.8229 77.2768 20.6241C76.5704 20.4253 75.9046 20.0278 75.2797 19.4315L77.0119 17.742C77.664 18.3913 78.6083 18.7159 79.8447 18.7159C80.3609 18.7159 80.8025 18.6298 81.1693 18.4575C81.5361 18.272 81.7196 18.0004 81.7196 17.6426C81.7196 17.0728 81.3459 16.7548 80.5987 16.6885L78.8868 16.5295C76.8489 16.3307 75.8299 15.3634 75.8299 13.6275C75.8299 12.5939 76.2239 11.7856 77.0119 11.2026C77.8135 10.6195 78.7849 10.328 79.9262 10.328C81.7331 10.328 83.085 10.7321 83.9817 11.5405L82.3513 13.1505C81.8215 12.6867 80.9995 12.4548 79.8854 12.4548C79.3827 12.4548 79.0023 12.5542 78.7442 12.7529C78.4996 12.9385 78.3773 13.1703 78.3773 13.4486C78.3773 13.9654 78.7442 14.2636 79.4778 14.3431L81.1489 14.5021C83.2548 14.7009 84.3077 15.7146 84.3077 17.5432Z" fill="white"/>
<path d="M91.0984 20.803H89.6515C88.6461 20.803 87.8784 20.5115 87.3486 19.9284C86.8323 19.3454 86.5742 18.6497 86.5742 17.8414V12.7132H85.4533V10.7454H86.5742V7.68438H89.2235V10.7454H91.0984V12.7132H89.2235V17.6824C89.2235 18.3052 89.5292 18.6166 90.1406 18.6166H91.0984V20.803Z" fill="white"/>
<path d="M96.1436 20.803H93.4943V10.7454H96.1436V20.803ZM96.164 8.67822H93.4535V6.57129H96.164V8.67822Z" fill="white"/>
<path d="M107.931 20.803H105.282V14.5418C105.282 13.8925 105.105 13.4155 104.752 13.1107C104.412 12.8059 104.004 12.6536 103.529 12.6536C103.04 12.6536 102.619 12.8059 102.265 13.1107C101.926 13.4155 101.756 13.8925 101.756 14.5418V20.803H99.1066V10.4472H101.695V11.4013C102.388 10.6858 103.271 10.328 104.344 10.328C105.39 10.328 106.226 10.6328 106.851 11.2423C107.571 11.9446 107.931 12.9252 107.931 14.1841V20.803Z" fill="white"/>
<path d="M119.124 20.4253C119.124 21.6842 118.696 22.7112 117.84 23.5062C116.998 24.3145 115.87 24.7187 114.457 24.7187C113.615 24.7187 112.895 24.6193 112.297 24.4206C111.699 24.2218 111.135 23.8706 110.606 23.3671L112.256 21.7372C112.813 22.2672 113.506 22.5323 114.335 22.5323C115.069 22.5323 115.605 22.3203 115.945 21.8962C116.298 21.4854 116.475 20.9819 116.475 20.3856V19.3321C115.836 20.0212 114.994 20.3657 113.948 20.3657C112.888 20.3657 112.046 20.0609 111.421 19.4514C110.959 19.0008 110.66 18.4708 110.524 17.8612C110.402 17.2384 110.341 16.397 110.341 15.3369C110.341 14.2768 110.402 13.442 110.524 12.8324C110.66 12.2229 110.959 11.6928 111.421 11.2423C112.046 10.6328 112.895 10.328 113.968 10.328C115.014 10.328 115.877 10.6924 116.556 11.4212V10.4472H119.124V20.4253ZM116.475 15.3369C116.475 14.5021 116.359 13.8462 116.128 13.3691C115.897 12.8921 115.429 12.6536 114.722 12.6536C114.342 12.6536 114.029 12.7264 113.785 12.8722C113.554 13.0047 113.377 13.2101 113.255 13.4884C113.146 13.7666 113.071 14.0449 113.031 14.3232C113.003 14.6015 112.99 14.9394 112.99 15.3369C112.99 15.7344 113.003 16.0723 113.031 16.3506C113.071 16.6289 113.146 16.9072 113.255 17.1854C113.364 17.4637 113.54 17.6757 113.785 17.8215C114.029 17.9673 114.342 18.0401 114.722 18.0401C115.103 18.0401 115.415 17.9673 115.66 17.8215C115.904 17.6757 116.081 17.4637 116.189 17.1854C116.298 16.9072 116.373 16.6289 116.414 16.3506C116.454 16.0723 116.475 15.7344 116.475 15.3369Z" fill="white"/>
<path d="M129.898 17.7221C129.898 18.7424 129.498 19.5309 128.696 20.0874C127.908 20.644 126.876 20.9223 125.598 20.9223C123.71 20.9223 122.263 20.4386 121.258 19.4713L122.623 18.1395C123.329 18.8418 124.321 19.193 125.598 19.193C126.278 19.193 126.821 19.0804 127.229 18.8551C127.65 18.6166 127.861 18.2654 127.861 17.8016C127.861 17.0993 127.399 16.7018 126.475 16.609L124.824 16.4699C122.786 16.2844 121.767 15.3568 121.767 13.6871C121.767 12.7198 122.134 11.9645 122.868 11.4212C123.601 10.8779 124.532 10.6063 125.66 10.6063C127.331 10.6063 128.608 10.9839 129.491 11.7392L128.187 13.0312C127.589 12.5409 126.74 12.2958 125.639 12.2958C125.028 12.2958 124.559 12.415 124.233 12.6536C123.921 12.8788 123.764 13.1902 123.764 13.5878C123.764 13.9455 123.873 14.2172 124.09 14.4027C124.321 14.575 124.688 14.6876 125.191 14.7406L126.638 14.8599C128.812 15.0454 129.898 15.9995 129.898 17.7221Z" fill="white"/>
<path d="M136.547 20.803H135.304C134.394 20.803 133.694 20.5313 133.205 19.9881C132.716 19.4448 132.472 18.7822 132.472 18.0004V12.2759H131.29V10.7255H132.472V7.8434H134.55V10.7255H136.547V12.2759H134.55V17.901C134.55 18.6828 134.931 19.0737 135.691 19.0737H136.547V20.803Z" fill="white"/>
<path d="M146.695 20.803H144.657V19.8887C144.276 20.2597 143.875 20.5247 143.454 20.6837C143.047 20.8428 142.53 20.9223 141.905 20.9223C140.683 20.9223 139.759 20.6175 139.134 20.0079C138.59 19.4514 138.319 18.7292 138.319 17.8414C138.319 16.9668 138.624 16.2645 139.236 15.7344C139.861 15.2044 140.751 14.9394 141.905 14.9394H144.616V14.2238C144.616 13.5745 144.439 13.0975 144.086 12.7927C143.733 12.4879 143.155 12.3355 142.354 12.3355C141.81 12.3355 141.369 12.415 141.029 12.574C140.703 12.7198 140.391 12.9716 140.092 13.3294L138.747 12.0771C139.222 11.5338 139.732 11.1562 140.275 10.9442C140.832 10.7189 141.552 10.6063 142.435 10.6063C145.275 10.6063 146.695 11.7591 146.695 14.0648V20.803ZM144.616 17.1656V16.3506H142.232C140.968 16.3506 140.336 16.8343 140.336 17.8016C140.336 18.7557 140.988 19.2327 142.293 19.2327C143.121 19.2327 143.746 19.0406 144.168 18.6563C144.466 18.378 144.616 17.8811 144.616 17.1656Z" fill="white"/>
<path d="M154.22 20.803H152.977C152.067 20.803 151.367 20.5313 150.878 19.9881C150.389 19.4448 150.144 18.7822 150.144 18.0004V12.2759H148.962V10.7255H150.144V7.8434H152.223V10.7255H154.22V12.2759H152.223V17.901C152.223 18.6828 152.603 19.0737 153.364 19.0737H154.22V20.803Z" fill="white"/>
<path d="M164.999 16.3506H158.294C158.294 17.2384 158.519 17.9341 158.967 18.4377C159.429 18.928 160.081 19.1731 160.923 19.1731C161.48 19.1731 161.942 19.0936 162.309 18.9346C162.676 18.7756 163.05 18.5106 163.43 18.1395L164.755 19.352C164.198 19.8953 163.627 20.2928 163.043 20.5446C162.472 20.7964 161.752 20.9223 160.883 20.9223C159.47 20.9223 158.342 20.5115 157.5 19.6899C156.657 18.8683 156.236 17.5565 156.236 15.7543C156.236 14.1377 156.63 12.8788 157.418 11.9777C158.206 11.0634 159.273 10.6063 160.618 10.6063C161.99 10.6063 163.063 11.0502 163.838 11.938C164.612 12.8258 164.999 14.0118 164.999 15.4959V16.3506ZM162.941 14.9394C162.9 14.3431 162.805 13.8859 162.656 13.5679C162.262 12.7198 161.582 12.2958 160.618 12.2958C159.639 12.2958 158.953 12.7198 158.559 13.5679C158.396 13.9124 158.308 14.3696 158.294 14.9394H162.941Z" fill="white"/>
<path fill-rule="evenodd" clip-rule="evenodd" d="M1.90832 7.22751C3.38009 4.66242 5.60654 2.61316 8.28461 1.35867C10.9627 0.104175 13.9623 -0.294604 16.8751 0.21661C19.7879 0.727826 22.4724 2.1242 24.5632 4.21566L23.0832 5.69526C21.2965 3.90801 19.0024 2.71475 16.5133 2.27789C14.0242 1.84104 11.4609 2.18181 9.17236 3.25383C6.88383 4.32585 4.98123 6.07704 3.72353 8.26902C2.46584 10.461 1.91415 12.9873 2.14356 15.504C2.37298 18.0208 3.37234 20.4057 5.00564 22.3342C6.63893 24.2626 8.8268 25.6409 11.2714 26.2815C13.7161 26.9221 16.2987 26.7938 18.6679 25.9141C21.037 25.0344 23.0775 23.446 24.5116 21.3651L26.2348 22.5527C24.5565 24.9878 22.1687 26.8465 19.3963 27.876C16.624 28.9054 13.6017 29.0556 10.741 28.306C7.88022 27.5563 5.31995 25.9434 3.40865 23.6867C1.49735 21.43 0.327879 18.6391 0.0594173 15.694C-0.209044 12.7489 0.436549 9.7926 1.90832 7.22751Z" fill="#7771CE"/>
<path fill-rule="evenodd" clip-rule="evenodd" d="M23.2073 19.1898C22.2417 20.8736 20.7806 22.2189 19.023 23.0425L18.1349 21.1475C19.503 20.5064 20.6403 19.4592 21.3919 18.1486C22.1436 16.838 22.4732 15.3276 22.3358 13.823C22.1983 12.3184 21.6006 10.8927 20.6239 9.73993C19.6473 8.58718 18.3391 7.76338 16.8775 7.38068C15.4159 6.99798 13.8719 7.07496 12.4556 7.60114C11.0393 8.12733 9.8196 9.07716 8.96243 10.3213L7.23905 9.13404C8.34025 7.53562 9.90726 6.31537 11.7268 5.63938C13.5463 4.96338 15.5299 4.86448 17.4076 5.35614C19.2853 5.84781 20.9659 6.90614 22.2207 8.3871C23.4754 9.86805 24.2433 11.6997 24.4199 13.6327C24.5964 15.5656 24.173 17.5061 23.2073 19.1898Z" fill="#E4B5A2"/>
</svg>
