<svg width="125" height="22" viewBox="0 0 125 22" fill="none" xmlns="http://www.w3.org/2000/svg">
<path d="M30.8016 15.7601H28.7945V8.14071H30.8016V15.7601ZM30.8171 6.57467H28.7637V4.97852H30.8171V6.57467Z" fill="white"/>
<path d="M39.7314 15.7601H37.7243V11.0168C37.7243 10.5249 37.5905 10.1635 37.3229 9.93262C37.0656 9.70173 36.7568 9.58629 36.3965 9.58629C36.026 9.58629 35.7069 9.70173 35.4393 9.93262C35.182 10.1635 35.0534 10.5249 35.0534 11.0168V15.7601H33.0463V7.91484H35.007V8.63763C35.532 8.09554 36.201 7.82449 37.0141 7.82449C37.8066 7.82449 38.4396 8.05538 38.9131 8.51716C39.4586 9.04922 39.7314 9.79208 39.7314 10.7458V15.7601Z" fill="white"/>
<path d="M48.3192 7.91484L45.3703 15.7601H43.7955L40.8313 7.91484H42.9464L44.5829 12.7635L46.204 7.91484H48.3192Z" fill="white"/>
<path d="M55.9676 12.4473H50.9345C50.9345 12.9693 51.0889 13.391 51.3977 13.7122C51.7064 14.0334 52.1387 14.1941 52.6945 14.1941C53.1062 14.1941 53.4408 14.1389 53.6981 14.0284C53.9657 13.908 54.2384 13.7172 54.5163 13.4562L55.736 14.6157C55.3037 15.0474 54.856 15.3636 54.3928 15.5643C53.94 15.7551 53.3687 15.8505 52.6791 15.8505C52.1645 15.8505 51.6962 15.7902 51.2742 15.6698C50.8625 15.5393 50.4765 15.3284 50.1162 15.0373C49.756 14.7462 49.4729 14.3296 49.2671 13.7875C49.0612 13.2454 48.9583 12.5929 48.9583 11.8299C48.9583 10.5751 49.2774 9.59633 49.9155 8.89362C50.5537 8.18087 51.4028 7.82449 52.463 7.82449C53.5643 7.82449 54.4237 8.17585 55.0413 8.87856C55.6588 9.57123 55.9676 10.4848 55.9676 11.6191V12.4473ZM53.9914 11.1072C53.9811 10.7658 53.9194 10.4848 53.8061 10.2639C53.5591 9.72181 53.1114 9.45077 52.463 9.45077C51.8145 9.45077 51.3668 9.72181 51.1198 10.2639C51.0065 10.4848 50.9448 10.7658 50.9345 11.1072H53.9914Z" fill="white"/>
<path d="M63.8701 13.2906C63.8701 14.1238 63.551 14.7613 62.9128 15.203C62.2747 15.6346 61.4564 15.8505 60.458 15.8505C59.717 15.8505 59.0788 15.7752 58.5436 15.6246C58.0084 15.474 57.5041 15.1728 57.0306 14.7211L58.3429 13.4412C58.837 13.9331 59.5523 14.179 60.4889 14.179C60.88 14.179 61.2146 14.1138 61.4925 13.9832C61.7704 13.8427 61.9093 13.6369 61.9093 13.3659C61.9093 12.9342 61.6263 12.6933 61.0602 12.6431L59.7633 12.5226C58.2194 12.372 57.4474 11.6392 57.4474 10.3241C57.4474 9.54112 57.7459 8.92875 58.3429 8.48705C58.9502 8.04535 59.6861 7.82449 60.5507 7.82449C61.9196 7.82449 62.9437 8.13067 63.623 8.74304L62.3879 9.96274C61.9865 9.61139 61.3638 9.43571 60.5198 9.43571C60.139 9.43571 59.8508 9.511 59.6552 9.66158C59.47 9.80212 59.3773 9.9778 59.3773 10.1886C59.3773 10.5801 59.6552 10.806 60.211 10.8662L61.477 10.9867C63.0724 11.1373 63.8701 11.9052 63.8701 13.2906Z" fill="white"/>
<path d="M69.0145 15.7601H67.9183C67.1567 15.7601 66.5751 15.5393 66.1737 15.0975C65.7826 14.6558 65.587 14.1288 65.587 13.5164V9.63146H64.7379V8.14071H65.587V5.82177H67.5941V8.14071H69.0145V9.63146H67.5941V13.396C67.5941 13.8678 67.8257 14.1037 68.2889 14.1037H69.0145V15.7601Z" fill="white"/>
<path d="M72.8366 15.7601H70.8295V8.14071H72.8366V15.7601ZM72.852 6.57467H70.7987V4.97852H72.852V6.57467Z" fill="white"/>
<path d="M81.7663 15.7601H79.7593V11.0168C79.7593 10.5249 79.6255 10.1635 79.3579 9.93262C79.1005 9.70173 78.7918 9.58629 78.4315 9.58629C78.061 9.58629 77.7419 9.70173 77.4743 9.93262C77.217 10.1635 77.0883 10.5249 77.0883 11.0168V15.7601H75.0813V7.91484H77.042V8.63763C77.5669 8.09554 78.236 7.82449 79.0491 7.82449C79.8416 7.82449 80.4746 8.05538 80.9481 8.51716C81.4936 9.04922 81.7663 9.79208 81.7663 10.7458V15.7601Z" fill="white"/>
<path d="M90.2461 15.474C90.2461 16.4277 89.9219 17.2057 89.2734 17.808C88.6353 18.4204 87.781 18.7265 86.7105 18.7265C86.0724 18.7265 85.5269 18.6513 85.074 18.5007C84.6211 18.3501 84.194 18.0841 83.7926 17.7026L85.0431 16.4678C85.4651 16.8694 85.9901 17.0702 86.6179 17.0702C87.1737 17.0702 87.5803 16.9095 87.8376 16.5883C88.1052 16.2771 88.239 15.8956 88.239 15.4439V14.6458C87.7552 15.1678 87.1171 15.4288 86.3246 15.4288C85.5218 15.4288 84.8836 15.1979 84.4101 14.7362C84.0602 14.3948 83.8338 13.9933 83.7308 13.5315C83.6382 13.0597 83.5919 12.4222 83.5919 11.6191C83.5919 10.816 83.6382 10.1836 83.7308 9.72181C83.8338 9.26003 84.0602 8.85848 84.4101 8.51716C84.8836 8.05538 85.5269 7.82449 86.34 7.82449C87.1325 7.82449 87.7861 8.10056 88.3008 8.65269V7.91484H90.2461V15.474ZM88.239 11.6191C88.239 10.9867 88.1515 10.4898 87.9765 10.1284C87.8016 9.76699 87.4465 9.58629 86.9113 9.58629C86.6231 9.58629 86.3863 9.6415 86.2011 9.75193C86.0261 9.85232 85.8923 10.0079 85.7996 10.2187C85.7173 10.4295 85.6607 10.6404 85.6298 10.8512C85.6092 11.062 85.5989 11.318 85.5989 11.6191C85.5989 11.9203 85.6092 12.1763 85.6298 12.3871C85.6607 12.5979 85.7173 12.8087 85.7996 13.0195C85.882 13.2303 86.0158 13.391 86.2011 13.5014C86.3863 13.6118 86.6231 13.667 86.9113 13.667C87.1995 13.667 87.4362 13.6118 87.6214 13.5014C87.8067 13.391 87.9405 13.2303 88.0229 13.0195C88.1052 12.8087 88.1618 12.5979 88.1927 12.3871C88.2236 12.1763 88.239 11.9203 88.239 11.6191Z" fill="white"/>
<path d="M98.4085 13.4261C98.4085 14.1991 98.1048 14.7964 97.4976 15.218C96.9006 15.6396 96.1183 15.8505 95.1508 15.8505C93.7202 15.8505 92.624 15.484 91.8623 14.7512L92.8967 13.7423C93.432 14.2744 94.1833 14.5404 95.1508 14.5404C95.6655 14.5404 96.0772 14.4551 96.3859 14.2844C96.705 14.1037 96.8646 13.8377 96.8646 13.4863C96.8646 12.9543 96.5146 12.6531 95.8147 12.5828L94.5642 12.4774C93.0203 12.3369 92.2483 11.6342 92.2483 10.3693C92.2483 9.63648 92.5262 9.06428 93.082 8.65269C93.6378 8.2411 94.3429 8.03531 95.1972 8.03531C96.4631 8.03531 97.4307 8.32141 98.0997 8.89362L97.1116 9.87239C96.6587 9.50096 96.0154 9.31524 95.1817 9.31524C94.7185 9.31524 94.3634 9.40559 94.1164 9.58629C93.8797 9.75695 93.7613 9.99286 93.7613 10.294C93.7613 10.5651 93.8437 10.7709 94.0084 10.9114C94.1833 11.0419 94.4612 11.1272 94.8421 11.1674L95.9382 11.2577C97.585 11.3983 98.4085 12.1211 98.4085 13.4261Z" fill="white"/>
<path d="M103.446 15.7601H102.504C101.814 15.7601 101.284 15.5543 100.914 15.1427C100.543 14.7311 100.358 14.2292 100.358 13.6369V9.30019H99.4623V8.12566H100.358V5.94223H101.933V8.12566H103.446V9.30019H101.933V13.5616C101.933 14.1539 102.221 14.4501 102.797 14.4501H103.446V15.7601Z" fill="white"/>
<path d="M111.133 15.7601H109.589V15.0674C109.301 15.3485 108.997 15.5493 108.678 15.6698C108.369 15.7902 107.978 15.8505 107.505 15.8505C106.578 15.8505 105.878 15.6196 105.405 15.1578C104.993 14.7362 104.787 14.189 104.787 13.5164C104.787 12.8539 105.019 12.3218 105.482 11.9203C105.956 11.5187 106.63 11.318 107.505 11.318H109.558V10.7759C109.558 10.284 109.424 9.92259 109.157 9.6917C108.889 9.4608 108.452 9.34536 107.844 9.34536C107.433 9.34536 107.098 9.40559 106.841 9.52606C106.594 9.63648 106.357 9.82722 106.131 10.0983L105.112 9.1496C105.472 8.73802 105.858 8.45191 106.27 8.29129C106.692 8.12064 107.237 8.03531 107.906 8.03531C110.057 8.03531 111.133 8.90868 111.133 10.6554V15.7601ZM109.558 13.0045V12.3871H107.752C106.794 12.3871 106.316 12.7535 106.316 13.4863C106.316 14.2091 106.81 14.5705 107.798 14.5705C108.426 14.5705 108.899 14.425 109.218 14.1338C109.445 13.923 109.558 13.5466 109.558 13.0045Z" fill="white"/>
<path d="M116.834 15.7601H115.892C115.203 15.7601 114.673 15.5543 114.302 15.1427C113.931 14.7311 113.746 14.2292 113.746 13.6369V9.30019H112.851V8.12566H113.746V5.94223H115.321V8.12566H116.834V9.30019H115.321V13.5616C115.321 14.1539 115.609 14.4501 116.186 14.4501H116.834V15.7601Z" fill="white"/>
<path d="M125 12.3871H119.92C119.92 13.0597 120.09 13.5867 120.43 13.9682C120.78 14.3396 121.274 14.5253 121.912 14.5253C122.334 14.5253 122.684 14.4651 122.962 14.3446C123.24 14.2242 123.523 14.0234 123.811 13.7423L124.815 14.6609C124.393 15.0725 123.96 15.3736 123.518 15.5643C123.085 15.7551 122.54 15.8505 121.881 15.8505C120.811 15.8505 119.956 15.5393 119.318 14.9169C118.68 14.2945 118.361 13.3006 118.361 11.9353C118.361 10.7106 118.66 9.75695 119.257 9.07431C119.854 8.38164 120.662 8.03531 121.681 8.03531C122.72 8.03531 123.533 8.3716 124.12 9.0442C124.707 9.71679 125 10.6153 125 11.7396V12.3871ZM123.441 11.318C123.41 10.8662 123.338 10.5199 123.224 10.279C122.926 9.63648 122.411 9.31524 121.681 9.31524C120.939 9.31524 120.42 9.63648 120.121 10.279C119.998 10.54 119.931 10.8863 119.92 11.318H123.441Z" fill="white"/>
<path fill-rule="evenodd" clip-rule="evenodd" d="M1.4457 5.47538C2.56067 3.53213 4.24737 1.97966 6.27621 1.02929C8.30505 0.0789201 10.5775 -0.223185 12.7841 0.164099C14.9908 0.551383 17.0245 1.60924 18.6085 3.19368L17.4873 4.31459C16.1337 2.96061 14.3958 2.05663 12.5101 1.72568C10.6244 1.39472 8.68249 1.65288 6.94875 2.46502C5.21502 3.27716 3.77366 4.60381 2.82086 6.26441C1.86806 7.925 1.45011 9.83886 1.62391 11.7455C1.79771 13.6521 2.5548 15.4588 3.79215 16.9198C5.02949 18.3808 6.68696 19.4249 8.53897 19.9102C10.391 20.3955 12.3475 20.2983 14.1423 19.6319C15.9371 18.9654 17.4829 17.7621 18.5694 16.1857L19.8748 17.0854C18.6034 18.9301 16.7945 20.3383 14.6942 21.1181C12.5939 21.898 10.3043 22.0118 8.1371 21.4439C5.96986 20.876 4.03026 19.6541 2.58231 17.9445C1.13436 16.2348 0.248393 14.1206 0.0450131 11.8894C-0.158366 9.65826 0.330719 7.41863 1.4457 5.47538Z" fill="#7771CE"/>
<path fill-rule="evenodd" clip-rule="evenodd" d="M17.5806 14.5376C16.849 15.8131 15.7422 16.8323 14.4107 17.4563L13.7379 16.0207C14.7743 15.535 15.6359 14.7417 16.2053 13.7488C16.7748 12.7559 17.0244 11.6117 16.9203 10.4718C16.8162 9.33196 16.3634 8.25188 15.6235 7.37858C14.8836 6.50528 13.8926 5.88119 12.7853 5.59127C11.678 5.30134 10.5083 5.35966 9.43539 5.75828C8.36245 6.15691 7.4384 6.87648 6.78904 7.81904L5.48344 6.91957C6.31769 5.70865 7.50481 4.78421 8.88323 4.2721C10.2616 3.75998 11.7644 3.68506 13.1869 4.05753C14.6094 4.43 15.8826 5.23177 16.8332 6.3537C17.7837 7.47564 18.3655 8.86323 18.4992 10.3276C18.633 11.792 18.3122 13.262 17.5806 14.5376Z" fill="#E4B5A2"/>
</svg>
