<svg width="72" height="28" viewBox="0 0 72 28" fill="none" xmlns="http://www.w3.org/2000/svg">
<path d="M1.50193 14.2579L1.5018 14.2578L1.49228 14.2673C0.874582 14.885 0.5 15.7409 0.5 16.6917C0.5 17.637 0.870946 18.4974 1.49709 19.0917L8.72561 26.3202C9.34331 26.9379 10.1992 27.3125 11.15 27.3125C12.0576 27.3125 12.9136 26.9769 13.5379 26.3567C15.8075 24.2606 18.3616 22.4535 21.171 21.0485C22.3015 20.499 23.0833 19.3061 23.0833 17.975V9.29853C27.1629 8.01519 31.5125 7.33334 36 7.33334C40.4882 7.33334 44.8369 8.01539 48.8875 9.32461V18.0042C48.8875 19.3672 49.6719 20.5295 50.7998 21.0777C53.6153 22.4857 56.1989 24.266 58.4654 26.3889C59.0773 26.9666 59.9272 27.3417 60.85 27.3417C61.8008 27.3417 62.6567 26.9671 63.2744 26.3494L70.5077 19.1161C71.1254 18.4984 71.5 17.6425 71.5 16.6917C71.5 15.7409 71.1254 14.885 70.5077 14.2673L70.5079 14.2672L70.4981 14.2579C61.5134 5.74455 49.3751 0.5 36 0.5C22.6249 0.5 10.4866 5.74455 1.50193 14.2579Z" stroke="url(#paint0_linear)"/>
<defs>
<linearGradient id="paint0_linear" x1="4.27757" y1="13.1526" x2="68.5029" y2="13.1526" gradientUnits="userSpaceOnUse">
<stop stop-color="#B3AEF5"/>
<stop offset="0.413" stop-color="#D7CBE7"/>
<stop offset="0.654" stop-color="#E5C8C8"/>
<stop offset="1" stop-color="#ECBDAA"/>
</linearGradient>
</defs>
</svg>
