<svg width="137" height="20" viewBox="0 0 137 20" fill="none" xmlns="http://www.w3.org/2000/svg">
<path d="M5.7907 4.41861C4.16279 4.41861 3.02326 5.04651 2.32558 6.04651V0H0V16.2791H2.32558V14.8837C3.02326 15.8837 4.16279 16.5116 5.7907 16.5116C9.55814 16.5116 10.8837 13.8837 10.8837 10.4651C10.8837 7.04651 9.55814 4.41861 5.7907 4.41861ZM5.44186 14.4186C3.16279 14.4186 2.32558 13.2558 2.32558 10.4651C2.32558 7.67442 3.16279 6.51163 5.44186 6.51163C7.72093 6.51163 8.55814 7.67442 8.55814 10.4651C8.55814 13.2558 7.72093 14.4186 5.44186 14.4186Z" fill="#1C1C1C"/>
<path d="M21.7525 4.65117H14.9618V16.2791H17.2874V6.74419H21.7525V4.65117Z" fill="#1C1C1C"/>
<path d="M30.5763 16.5116C34.1112 16.5116 36.1345 14.1163 36.1345 10.4651C36.1345 6.81396 34.1112 4.41861 30.5763 4.41861C27.0414 4.41861 25.0182 6.81396 25.0182 10.4651C25.0182 14.1163 27.0414 16.5116 30.5763 16.5116ZM30.5763 14.4186C28.181 14.4186 27.3438 13.4884 27.3438 10.4651C27.3438 7.44186 28.181 6.51163 30.5763 6.51163C32.9717 6.51163 33.8089 7.44186 33.8089 10.4651C33.8089 13.4884 32.9717 14.4186 30.5763 14.4186Z" fill="#1C1C1C"/>
<path d="M50.4101 4.65117H47.5961L44.3403 9.44186H42.5263V0H40.2008V16.2791H42.5263V11.5349H44.3403L47.5961 16.2791H50.4101L46.4333 10.4884L50.4101 4.65117Z" fill="#1C1C1C"/>
<path d="M63.3641 10.2326C63.3641 6.5814 61.9222 4.41861 58.3409 4.41861C54.7595 4.41861 53.3176 6.81396 53.3176 10.4651C53.3176 12.7674 53.9688 16.5116 59.2246 16.5116C60.1083 16.5116 60.7595 16.5116 62.5734 16.0465V14C61.0618 14.4186 60.1548 14.4186 59.2246 14.4186C56.5036 14.4186 55.8525 13.1395 55.6897 11.5116H63.3641V10.2326ZM58.3409 6.51163C60.2246 6.51163 60.992 7.39535 61.0385 9.41861H55.6432C55.7595 7.53489 56.5502 6.51163 58.3409 6.51163Z" fill="#1C1C1C"/>
<path d="M74.4678 4.65117H67.6772V16.2791H70.0027V6.74419H74.4678V4.65117Z" fill="#1C1C1C"/>
<path d="M89.2565 11.1628V4.65116H86.9309V11.6279C86.9309 13.7209 86.0937 14.4186 84.0472 14.4186C82.0007 14.4186 81.1635 13.7209 81.1635 11.6279V4.65116H78.8379V11.1628C78.8379 15.0465 80.6286 16.5116 84.0472 16.5116C87.4658 16.5116 89.2565 15.0465 89.2565 11.1628Z" fill="#0EAC00"/>
<path d="M103.8 4.65116H94.0323V16.2791H96.3579V6.74419H101.474V16.2791H103.8V4.65116Z" fill="#0EAC00"/>
<path d="M108.574 0V2.32558H110.899V0H108.574ZM108.574 4.65116V16.2791H110.899V4.65116H108.574Z" fill="#0EAC00"/>
<path d="M121.997 6.74419V4.65116H118.927V0H116.601V4.65116H114.741V6.74419H116.601V16.2791H121.997V14.186H118.927V6.74419H121.997Z" fill="#0EAC00"/>
<path d="M134.627 4.65116V10.2326C134.627 12.5581 133.79 13.4884 131.743 13.4884C129.697 13.4884 128.86 12.5581 128.86 10.2326V4.65116H126.534V10.2326C126.534 13.186 127.86 15.5814 131.395 15.5814C132.79 15.5814 133.929 14.9535 134.627 14.186V17.907H128.116V20H136.953V4.65116H134.627Z" fill="#0EAC00"/>
</svg>
