<svg width="149" height="22" viewBox="0 0 149 22" fill="none" xmlns="http://www.w3.org/2000/svg">
<path d="M6.30016 4.80736C4.52903 4.80736 3.28924 5.49051 2.53019 6.57849V0H0V17.7113H2.53019V16.1932C3.28924 17.2812 4.52903 17.9643 6.30016 17.9643C10.3991 17.9643 11.8413 15.1052 11.8413 11.3858C11.8413 7.66647 10.3991 4.80736 6.30016 4.80736ZM5.92064 15.6872C3.44105 15.6872 2.53019 14.4221 2.53019 11.3858C2.53019 8.34962 3.44105 7.08452 5.92064 7.08452C8.40022 7.08452 9.31109 8.34962 9.31109 11.3858C9.31109 14.4221 8.40022 15.6872 5.92064 15.6872Z" fill="#1C1C1C"/>
<path d="M23.6663 5.06038H16.2782V17.7113H18.8084V7.33754H23.6663V5.06038Z" fill="#1C1C1C"/>
<path d="M33.2664 17.9643C37.1123 17.9643 39.3136 15.3582 39.3136 11.3858C39.3136 7.41345 37.1123 4.80736 33.2664 4.80736C29.4205 4.80736 27.2193 7.41345 27.2193 11.3858C27.2193 15.3582 29.4205 17.9643 33.2664 17.9643ZM33.2664 15.6872C30.6603 15.6872 29.7495 14.6751 29.7495 11.3858C29.7495 8.0966 30.6603 7.08452 33.2664 7.08452C35.8725 7.08452 36.7834 8.0966 36.7834 11.3858C36.7834 14.6751 35.8725 15.6872 33.2664 15.6872Z" fill="#1C1C1C"/>
<path d="M54.8452 5.06038H51.7836L48.2414 10.2726H46.2678V0H43.7376V17.7113H46.2678V12.5497H48.2414L51.7836 17.7113H54.8452L50.5185 11.4111L54.8452 5.06038Z" fill="#1C1C1C"/>
<path d="M68.9389 11.1328C68.9389 7.16043 67.3702 4.80736 63.4737 4.80736C59.5772 4.80736 58.0085 7.41345 58.0085 11.3858C58.0085 13.8907 58.7169 17.9643 64.4352 17.9643C65.3966 17.9643 66.1051 17.9643 68.0786 17.4583V15.2317C66.434 15.6872 65.4472 15.6872 64.4352 15.6872C61.4748 15.6872 60.7664 14.2956 60.5893 12.5244H68.9389V11.1328ZM63.4737 7.08452C65.5231 7.08452 66.3581 8.046 66.4087 10.2473H60.5387C60.6652 8.19781 61.5254 7.08452 63.4737 7.08452Z" fill="#1C1C1C"/>
<path d="M81.0195 5.06038H73.6314V17.7113H76.1616V7.33754H81.0195V5.06038Z" fill="#1C1C1C"/>
<path d="M97.1077 12.1449V5.06038H94.5775V12.6509C94.5775 14.9281 93.6666 15.6872 91.4401 15.6872C89.2135 15.6872 88.3026 14.9281 88.3026 12.6509V5.06038H85.7725V12.1449C85.7725 16.3703 87.7207 17.9643 91.4401 17.9643C95.1595 17.9643 97.1077 16.3703 97.1077 12.1449Z" fill="#0EAC00"/>
<path d="M112.93 5.06038H102.304V17.7113H104.834V7.33754H110.4V17.7113H112.93V5.06038Z" fill="#0EAC00"/>
<path d="M118.124 0V2.53019H120.654V0H118.124ZM118.124 5.06038V17.7113H120.654V5.06038H118.124Z" fill="#0EAC00"/>
<path d="M132.728 7.33754V5.06038H129.389V0H126.858V5.06038H124.834V7.33754H126.858V17.7113H132.728V15.4341H129.389V7.33754H132.728Z" fill="#0EAC00"/>
<path d="M146.47 5.06038V11.1328C146.47 13.663 145.559 14.6751 143.333 14.6751C141.106 14.6751 140.195 13.663 140.195 11.1328V5.06038H137.665V11.1328C137.665 14.3462 139.107 16.9523 142.953 16.9523C144.471 16.9523 145.711 16.2691 146.47 15.4341V19.4824H139.386V21.7596H149V5.06038H146.47Z" fill="#0EAC00"/>
</svg>
