<svg width="449" height="500" viewBox="0 0 449 500" fill="none" xmlns="http://www.w3.org/2000/svg">
<g clip-path="url(#clip0)">
<path opacity="0.4" d="M257.6 344.8L244.41 337.57L256.12 330.81L269.31 338.04L257.6 344.8Z" fill="#D6D8E5"/>
<path opacity="0.4" d="M328.52 386.55L315.33 379.31L327.04 372.56L340.22 379.79L328.52 386.55Z" fill="#D6D8E5"/>
<path d="M262.751 341.76L250.311 334.58L289.931 208.02L302.371 215.2L262.751 341.76Z" fill="#B1B4C4"/>
<path d="M270.04 337.74L257.6 330.56L297.22 204L309.65 211.18L270.04 337.74Z" fill="#9EA2B2"/>
<path d="M262.751 341.76L250.311 334.58L289.931 208.02L302.371 215.2L262.751 341.76Z" fill="#B1B4C4"/>
<path d="M343.15 378.39L330.62 371.15L313.51 211.84L325.95 219.03L343.15 378.39Z" fill="#9EA2B2"/>
<path d="M334.441 383.36L321.911 376.12L304.801 216.81L317.241 223.99L334.441 383.36Z" fill="#B1B4C4"/>
<path d="M433.041 284.39L199.301 149.44L209.861 143.34L443.601 278.29L433.041 284.39Z" fill="#D6D8E5"/>
<path d="M433.041 296.56L199.301 161.61V149.41L433.041 284.36V296.56Z" fill="#B1B4C4"/>
<path d="M428.311 275.24L213.061 150.96V0L428.311 124.28V275.24Z" fill="#F4F4F4"/>
<path d="M443.769 290.37L433.039 296.56V284.17L443.769 277.98V290.37Z" fill="#9EA2B2"/>
<path d="M246.74 44.98L228.91 34.69V27.83L246.74 38.12V44.98Z" fill="#D6D8E5"/>
<path d="M285.69 67.47L254.33 49.37V42.5L285.69 60.61V67.47Z" fill="#D6D8E5"/>
<path d="M246.74 57.94L228.91 47.65V40.79L246.74 51.08V57.94Z" fill="#D6D8E5"/>
<path d="M285.69 80.43L254.33 62.33V55.46L285.69 73.57V80.43Z" fill="#D6D8E5"/>
<path d="M246.74 72.81L228.91 62.52V55.65L246.74 65.95V72.81Z" fill="#D6D8E5"/>
<path d="M285.69 95.3L254.33 77.19V70.33L285.69 88.44V95.3Z" fill="#D6D8E5"/>
<path d="M246.74 87.68L228.91 77.38V70.52L246.74 80.81V87.68Z" fill="#D6D8E5"/>
<path d="M285.69 110.17L254.33 92.06V85.2L285.69 103.31V110.17Z" fill="#D6D8E5"/>
<path d="M308.849 83.2201C312.799 78.1201 319.849 77.3 327.949 81.96C328.729 82.41 329.499 82.9 330.249 83.42L327.999 107.88L308.779 83.32L308.849 83.2201Z" fill="#0EAC00"/>
<path d="M348.93 110.79L327.93 107.88L330.23 83.42C338.83 89.39 346 100.11 348.93 110.79Z" fill="#E8BC05"/>
<path d="M350.4 120.84C350.4 131.84 344.4 137.84 336.03 136.75L328 107.88L349 110.79C349.921 114.061 350.392 117.442 350.4 120.84Z" fill="#EF6848"/>
<path d="M308.78 83.32C306.7 86.05 305.5 89.98 305.5 94.92C305.5 109.24 315.55 126.64 327.95 133.8C330.423 135.296 333.164 136.295 336.02 136.74L328 107.88L308.9 83.22L308.78 83.32Z" fill="#BE4AED"/>
<path d="M370.92 119.06C374.87 113.96 381.92 113.14 390.02 117.79C390.8 118.24 391.56 118.73 392.32 119.26L390 143.72L370.82 119.15L370.92 119.06Z" fill="#543526"/>
<path d="M411 146.62L390 143.72L392.3 119.26C400.9 125.22 408.06 135.94 411 146.62Z" fill="#1B96EA"/>
<path d="M412.47 156.68C412.47 167.68 406.47 173.68 398.1 172.58L390 143.72L411 146.62C411.939 149.892 412.434 153.276 412.47 156.68Z" fill="#FF5050"/>
<path d="M370.84 119.15C368.77 121.89 367.57 125.81 367.57 130.75C367.57 145.07 377.62 162.48 390.02 169.64C392.492 171.137 395.234 172.133 398.09 172.57L390 143.72L370.9 119.06L370.84 119.15Z" fill="#32CEC3"/>
<path d="M308.779 190.59C308.779 190.59 323.989 161.59 362.619 198.59C401.249 235.59 410.999 206.89 410.999 206.89" stroke="#D6D8E5" stroke-width="1.42" stroke-miterlimit="10"/>
<path d="M343.923 186.931C345.181 186.204 345.182 183.852 343.926 181.675C342.67 179.499 340.631 178.324 339.373 179.05C338.115 179.776 338.114 182.129 339.371 184.305C340.627 186.482 342.665 187.657 343.923 186.931Z" fill="#0C9300"/>
<path d="M316.607 186.877C317.865 186.151 317.866 183.798 316.61 181.622C315.353 179.446 313.315 178.27 312.057 178.997C310.799 179.723 310.798 182.076 312.054 184.252C313.311 186.428 315.349 187.604 316.607 186.877Z" fill="#0C9300"/>
<path d="M374.596 209.868C375.86 209.142 375.865 206.781 374.609 204.595C373.353 202.408 371.31 201.225 370.046 201.951C368.782 202.677 368.776 205.038 370.033 207.225C371.289 209.411 373.332 210.594 374.596 209.868Z" fill="#0C9300"/>
<path d="M406.005 219.048C407.263 218.321 407.264 215.968 406.008 213.792C404.752 211.616 402.713 210.44 401.455 211.167C400.197 211.893 400.196 214.246 401.453 216.422C402.709 218.598 404.747 219.774 406.005 219.048Z" fill="#D6D8E5"/>
<path d="M235.01 149.34L228.91 145.81V124.65L235.01 128.18V149.34Z" fill="#D6D8E5"/>
<path d="M251.911 159.09L245.801 155.56V126.97L251.911 130.5V159.09Z" fill="#D6D8E5"/>
<path d="M268.799 168.84L262.689 165.32V124.34L268.799 127.86V168.84Z" fill="#D6D8E5"/>
<path d="M285.69 178.59L279.58 175.07V124.18L285.69 127.7V178.59Z" fill="#D6D8E5"/>
<path d="M334.441 383.36L343.151 378.39L332.721 367.45L334.441 383.36Z" fill="#9EA2B2"/>
<path d="M262.75 341.76L270.04 337.74L267.24 327.42L262.75 341.76Z" fill="#9EA2B2"/>
<path opacity="0.3" d="M132.011 460.94C151.319 460.94 166.971 451.901 166.971 440.75C166.971 429.599 151.319 420.56 132.011 420.56C112.703 420.56 97.0508 429.599 97.0508 440.75C97.0508 451.901 112.703 460.94 132.011 460.94Z" fill="#D6D8E5"/>
<path d="M140.661 455.75C159.969 455.75 175.621 446.711 175.621 435.56C175.621 424.409 159.969 415.37 140.661 415.37C121.353 415.37 105.701 424.409 105.701 435.56C105.701 446.711 121.353 455.75 140.661 455.75Z" fill="#0C9300"/>
<path d="M105.711 435.86V426.67L112.621 432.82L105.711 435.86Z" fill="#0C9300"/>
<path d="M175.631 426.91V435.56L172.091 439.31L170.361 429.4L175.631 426.91Z" fill="#0C9300"/>
<path d="M140.661 447.1C159.969 447.1 175.621 438.061 175.621 426.91C175.621 415.759 159.969 406.72 140.661 406.72C121.353 406.72 105.701 415.759 105.701 426.91C105.701 438.061 121.353 447.1 140.661 447.1Z" fill="#76D36E"/>
<path d="M165.651 427.53C165.291 430.93 162.871 434.28 158.361 436.88C148.591 442.52 132.741 442.52 122.961 436.88C118.461 434.28 116.031 430.93 115.691 427.53C115.261 423.53 117.691 419.53 122.961 416.45C132.741 410.8 148.591 410.8 158.361 416.45C163.631 419.49 166.061 423.55 165.651 427.53Z" fill="#0C9300"/>
<path d="M165.651 427.53C165.291 430.93 162.871 434.28 158.361 436.88C148.591 442.52 132.741 442.52 122.961 436.88C118.461 434.28 116.031 430.93 115.691 427.53C116.031 424.13 118.461 420.78 122.961 418.18C132.741 412.53 148.591 412.53 158.361 418.18C162.871 420.78 165.291 424.13 165.651 427.53Z" fill="#0C9300"/>
<path d="M140.301 422.8C139.993 422.8 139.685 422.826 139.381 422.88C138.971 422.93 138.511 423.02 138.001 423.12C137.491 423.22 136.951 423.37 136.401 423.53C135.866 423.695 135.341 423.896 134.831 424.13L138.831 426.45L139.561 426.2C140.561 425.86 141.561 425.57 142.451 425.33C143.302 425.1 144.173 424.956 145.051 424.9C145.855 424.852 146.661 424.905 147.451 425.06C148.255 425.235 149.025 425.539 149.731 425.96C150.433 426.308 151.032 426.832 151.471 427.48C151.615 427.712 151.711 427.97 151.754 428.24C151.797 428.509 151.786 428.785 151.721 429.05C151.552 429.641 151.227 430.176 150.781 430.6C150.227 431.153 149.609 431.64 148.941 432.05L151.501 433.52L150.111 434.33L147.531 432.84C146.3 433.443 145.014 433.929 143.691 434.29C142.306 434.672 140.891 434.937 139.461 435.08L138.111 432.66C138.361 432.66 138.741 432.66 139.241 432.58C139.741 432.5 140.311 432.42 140.931 432.29C141.551 432.16 142.201 431.99 142.931 431.79C143.615 431.592 144.284 431.345 144.931 431.05L140.931 428.75L140.401 428.93L139.861 429.09C138.954 429.402 138.029 429.662 137.091 429.87C136.317 430.054 135.527 430.161 134.731 430.19C134.032 430.217 133.333 430.149 132.651 429.99C131.977 429.829 131.33 429.569 130.731 429.22C130.07 428.873 129.495 428.381 129.051 427.78C128.729 427.33 128.571 426.783 128.601 426.23C128.664 425.656 128.893 425.114 129.261 424.67C129.726 424.096 130.275 423.597 130.891 423.19L128.521 421.82L129.911 421.02L132.261 422.37C133.362 421.825 134.519 421.402 135.711 421.11C136.846 420.822 137.999 420.611 139.161 420.48L140.301 422.8ZM133.461 427C133.994 427.298 134.604 427.427 135.211 427.37C136.026 427.28 136.827 427.098 137.601 426.83L133.841 424.66C132.461 425.553 132.335 426.333 133.461 427ZM146.661 428.1C146.089 427.785 145.428 427.665 144.781 427.76C143.892 427.873 143.015 428.067 142.161 428.34L145.901 430.5C147.491 429.54 147.751 428.74 146.661 428.12V428.1Z" fill="#0C9300"/>
<path d="M138.131 432.66C138.131 432.57 138.131 431.31 138.131 431.31L139.671 432.31L139.001 433.31L138.131 432.66Z" fill="#0C9300"/>
<path d="M151.521 433.52V432.17L148.191 432.42L150.101 433.72L151.521 433.52Z" fill="#0C9300"/>
<path d="M151.801 428.55V427.18L149.311 428.08L151.801 428.55Z" fill="#0C9300"/>
<path d="M141.49 428.47L142.32 427.68L145.24 429.68L145.06 430.27C145.06 430.27 142.88 429.35 142.81 429.27L141.49 428.47Z" fill="#0C9300"/>
<path d="M133.852 424.2L137.722 426.4L138.522 425.82C138.522 425.82 138.032 425.27 137.992 425.21C137.643 424.82 137.238 424.483 136.792 424.21C136.502 424.16 134.662 423.33 134.662 423.33L133.852 424.2Z" fill="#0C9300"/>
<path d="M140.301 422.8V421.45L138.521 420.87L138.131 421.93L138.231 422.42L140.301 422.8Z" fill="#0C9300"/>
<path d="M128.471 421.82V420.47L130.531 420.69L129.871 422L128.471 421.82Z" fill="#0C9300"/>
<path d="M128.541 426.42V425H130.911L130.331 426.27L129.331 427.39L128.541 426.42Z" fill="#0C9300"/>
<path d="M140.301 421.45C139.993 421.445 139.685 421.469 139.381 421.52C138.971 421.58 138.511 421.66 138.001 421.77C137.491 421.88 136.951 422.01 136.401 422.18C135.864 422.337 135.339 422.535 134.831 422.77L138.831 425.1L139.561 424.84C140.561 424.5 141.561 424.21 142.451 423.98C143.302 423.75 144.173 423.606 145.051 423.55C145.855 423.497 146.662 423.55 147.451 423.71C148.256 423.877 149.027 424.178 149.731 424.6C150.431 424.951 151.029 425.474 151.471 426.12C151.615 426.352 151.71 426.611 151.753 426.88C151.796 427.149 151.785 427.425 151.721 427.69C151.554 428.282 151.229 428.818 150.781 429.24C150.227 429.793 149.609 430.28 148.941 430.69L151.501 432.17L150.111 432.97L147.531 431.48C146.302 432.088 145.016 432.573 143.691 432.93C142.307 433.317 140.892 433.582 139.461 433.72L138.111 431.31C138.49 431.301 138.867 431.27 139.241 431.22C139.81 431.153 140.374 431.056 140.931 430.93C141.551 430.8 142.201 430.63 142.931 430.43C143.615 430.235 144.283 429.991 144.931 429.7L140.931 427.39L140.401 427.57L139.861 427.74C138.861 428.07 137.931 428.33 137.091 428.52C136.317 428.701 135.526 428.805 134.731 428.83C134.033 428.855 133.334 428.791 132.651 428.64C131.975 428.479 131.328 428.216 130.731 427.86C130.07 427.513 129.495 427.021 129.051 426.42C128.728 425.97 128.569 425.423 128.601 424.87C128.664 424.297 128.893 423.754 129.261 423.31C129.723 422.737 130.274 422.24 130.891 421.84L128.521 420.47L129.911 419.66L132.261 421.02C133.362 420.472 134.518 420.046 135.711 419.75C136.845 419.46 137.998 419.253 139.161 419.13L140.301 421.45ZM133.461 425.66C133.993 425.962 134.603 426.094 135.211 426.04C136.024 425.94 136.825 425.759 137.601 425.5L133.841 423.32C132.461 424.233 132.335 425.013 133.461 425.66ZM146.661 426.76C146.089 426.445 145.428 426.325 144.781 426.42C143.893 426.538 143.017 426.732 142.161 427L145.901 429.16C147.491 428.19 147.751 427.39 146.661 426.76Z" fill="#14FF00"/>
<path d="M143.521 444.98C162.828 444.98 178.481 435.941 178.481 424.79C178.481 413.639 162.828 404.6 143.521 404.6C124.213 404.6 108.561 413.639 108.561 424.79C108.561 435.941 124.213 444.98 143.521 444.98Z" fill="#0C9300"/>
<path d="M108.57 425.1V415.9L115.47 422.05L108.57 425.1Z" fill="#0C9300"/>
<path d="M178.481 416.14V424.79L174.951 428.54L173.221 418.64L178.481 416.14Z" fill="#0C9300"/>
<path d="M143.521 436.33C162.828 436.33 178.481 427.291 178.481 416.14C178.481 404.989 162.828 395.95 143.521 395.95C124.213 395.95 108.561 404.989 108.561 416.14C108.561 427.291 124.213 436.33 143.521 436.33Z" fill="#76D36E"/>
<path d="M168.5 416.77C168.15 420.17 165.73 423.52 161.22 426.12C151.44 431.76 135.6 431.76 125.82 426.12C121.31 423.52 118.89 420.17 118.55 416.77C118.12 412.77 120.55 408.77 125.82 405.69C135.6 400.04 151.44 400.04 161.22 405.69C166.49 408.72 168.92 412.79 168.5 416.77Z" fill="#0C9300"/>
<path d="M168.501 416.77C168.151 420.17 165.731 423.52 161.221 426.12C151.441 431.76 135.601 431.76 125.821 426.12C121.311 423.52 118.891 420.17 118.551 416.77C118.891 413.37 121.311 410.02 125.821 407.42C135.601 401.77 151.441 401.77 161.221 407.42C165.731 410 168.151 413.37 168.501 416.77Z" fill="#0C9300"/>
<path d="M143.15 412C142.842 411.996 142.534 412.019 142.23 412.07C141.82 412.13 141.36 412.21 140.85 412.32C140.34 412.43 139.85 412.56 139.26 412.73C138.723 412.891 138.198 413.091 137.69 413.33L141.69 415.65L142.41 415.39C143.41 415.05 144.41 414.76 145.31 414.53C146.161 414.3 147.032 414.156 147.91 414.1C148.711 414.047 149.514 414.1 150.3 414.26C151.107 414.431 151.88 414.732 152.59 415.15C153.287 415.501 153.883 416.024 154.32 416.67C154.465 416.902 154.563 417.16 154.607 417.429C154.652 417.698 154.643 417.974 154.58 418.24C154.409 418.83 154.085 419.365 153.64 419.79C153.088 420.346 152.47 420.833 151.8 421.24L154.36 422.72L152.96 423.52L150.38 422.03C149.154 422.638 147.872 423.123 146.55 423.48C145.166 423.865 143.751 424.13 142.32 424.27L141 421.9C141.378 421.89 141.756 421.86 142.13 421.81C142.695 421.742 143.256 421.645 143.81 421.52C144.43 421.39 145.09 421.22 145.81 421.02C146.495 420.83 147.164 420.586 147.81 420.29L143.81 417.98L143.29 418.16L142.74 418.33C141.74 418.663 140.82 418.923 139.98 419.11C139.206 419.29 138.415 419.394 137.62 419.42C136.922 419.45 136.222 419.386 135.54 419.23C134.862 419.068 134.211 418.805 133.61 418.45C132.955 418.103 132.384 417.615 131.94 417.02C131.618 416.57 131.459 416.023 131.49 415.47C131.546 414.892 131.776 414.344 132.15 413.9C132.609 413.327 133.155 412.83 133.77 412.43L131.4 411.06L132.8 410.25L135.15 411.61C136.25 411.062 137.407 410.636 138.6 410.34C139.734 410.05 140.887 409.843 142.05 409.72L143.15 412ZM136.32 416.21C136.846 416.516 137.455 416.649 138.06 416.59C138.877 416.491 139.681 416.31 140.46 416.05L136.69 413.88C135.31 414.807 135.187 415.597 136.32 416.25V416.21ZM149.52 417.31C148.946 416.998 148.286 416.882 147.64 416.98C146.749 417.094 145.869 417.285 145.01 417.55L148.75 419.71C150.35 418.78 150.6 418 149.52 417.35V417.31Z" fill="#0C9300"/>
<path d="M141 421.9C141 421.8 141 420.54 141 420.54L142.54 421.54L141.87 422.54L141 421.9Z" fill="#0C9300"/>
<path d="M154.381 422.76V421.4L151.051 421.66L152.961 422.96L154.381 422.76Z" fill="#0C9300"/>
<path d="M154.66 417.78V416.41L152.17 417.31L154.66 417.78Z" fill="#0C9300"/>
<path d="M144.35 417.71L145.18 416.92L148.1 418.92L147.92 419.51C147.92 419.51 145.73 418.59 145.66 418.51C145.59 418.43 144.35 417.71 144.35 417.71Z" fill="#0C9300"/>
<path d="M136.701 413.44L140.581 415.63L141.371 415.06L140.851 414.45C140.504 414.054 140.095 413.717 139.641 413.45C139.351 413.39 137.521 412.57 137.521 412.57L136.701 413.44Z" fill="#0C9300"/>
<path d="M143.15 412.04V410.68L141.37 410.1L140.99 411.17L141.08 411.65L143.15 412.04Z" fill="#0C9300"/>
<path d="M131.32 411.06V409.7L133.39 409.92L132.72 411.24L131.32 411.06Z" fill="#0C9300"/>
<path d="M131.4 415.66V414.25H133.77L133.19 415.51L132.19 416.64L131.4 415.66Z" fill="#0C9300"/>
<path d="M143.15 410.68C142.842 410.68 142.534 410.707 142.23 410.76C141.82 410.81 141.36 410.9 140.85 411C140.34 411.1 139.85 411.25 139.26 411.41C138.724 411.575 138.2 411.776 137.69 412.01L141.69 414.33L142.41 414.08C143.41 413.74 144.41 413.45 145.31 413.21C146.161 412.98 147.032 412.836 147.91 412.78C148.711 412.732 149.514 412.785 150.3 412.94C151.107 413.115 151.88 413.419 152.59 413.84C153.289 414.188 153.885 414.712 154.32 415.36C154.465 415.592 154.563 415.85 154.607 416.119C154.652 416.388 154.643 416.664 154.58 416.93C154.407 417.519 154.083 418.054 153.64 418.48C153.086 419.033 152.468 419.52 151.8 419.93L154.36 421.4L152.96 422.21L150.38 420.72C149.153 421.323 147.87 421.809 146.55 422.17C145.165 422.551 143.75 422.815 142.32 422.96L141 420.54C141.25 420.54 141.62 420.54 142.13 420.46C142.64 420.38 143.19 420.3 143.81 420.17C144.43 420.04 145.09 419.87 145.81 419.67C146.494 419.472 147.163 419.225 147.81 418.93L143.81 416.63L143.29 416.81L142.74 416.98C141.835 417.285 140.913 417.543 139.98 417.75C139.206 417.933 138.416 418.04 137.62 418.07C136.921 418.097 136.222 418.03 135.54 417.87C134.864 417.707 134.214 417.448 133.61 417.1C132.954 416.75 132.383 416.258 131.94 415.66C131.618 415.21 131.459 414.663 131.49 414.11C131.548 413.535 131.778 412.991 132.15 412.55C132.611 411.976 133.157 411.477 133.77 411.07L131.4 409.7L132.8 408.9L135.15 410.25C136.251 409.705 137.408 409.282 138.6 408.99C139.735 408.702 140.887 408.491 142.05 408.36L143.15 410.68ZM136.32 414.9C136.85 415.196 137.456 415.325 138.06 415.27C138.878 415.181 139.683 415 140.46 414.73L136.69 412.56C135.31 413.46 135.187 414.24 136.32 414.9ZM149.52 416C148.948 415.685 148.287 415.565 147.64 415.66C146.748 415.773 145.868 415.967 145.01 416.24L148.75 418.4C150.35 417.42 150.6 416.62 149.52 416Z" fill="#14FF00"/>
<path d="M141.37 434.62C160.678 434.62 176.33 425.581 176.33 414.43C176.33 403.279 160.678 394.24 141.37 394.24C122.062 394.24 106.41 403.279 106.41 414.43C106.41 425.581 122.062 434.62 141.37 434.62Z" fill="#0C9300"/>
<path d="M106.42 414.74V405.54L113.33 411.69L106.42 414.74Z" fill="#0C9300"/>
<path d="M176.34 405.78V414.43L172.81 418.18L171.07 408.27L176.34 405.78Z" fill="#0C9300"/>
<path d="M141.37 425.97C160.678 425.97 176.33 416.931 176.33 405.78C176.33 394.629 160.678 385.59 141.37 385.59C122.062 385.59 106.41 394.629 106.41 405.78C106.41 416.931 122.062 425.97 141.37 425.97Z" fill="#76D36E"/>
<path d="M166.36 406.4C166.01 409.8 163.58 413.15 159.08 415.76C149.3 421.4 133.45 421.4 123.68 415.76C119.17 413.15 116.75 409.76 116.4 406.4C115.98 402.4 118.4 398.4 123.68 395.32C133.45 389.67 149.3 389.67 159.08 395.32C164.34 398.36 166.78 402.42 166.36 406.4Z" fill="#0C9300"/>
<path d="M166.36 406.4C166.01 409.8 163.58 413.15 159.08 415.76C149.3 421.4 133.45 421.4 123.68 415.76C119.17 413.15 116.75 409.76 116.4 406.4C116.75 403 119.17 399.66 123.68 397.05C133.45 391.4 149.3 391.4 159.08 397.05C163.58 399.66 166 403 166.36 406.4Z" fill="#0C9300"/>
<path d="M141.001 401.68C140.693 401.676 140.385 401.699 140.081 401.75C139.671 401.81 139.211 401.89 138.701 402C138.164 402.109 137.633 402.245 137.111 402.41C136.573 402.566 136.048 402.763 135.541 403L139.541 405.32L140.261 405.07C141.261 404.73 142.261 404.44 143.151 404.2C144.002 403.976 144.873 403.832 145.751 403.77C146.555 403.725 147.361 403.782 148.151 403.94C148.958 404.109 149.732 404.409 150.441 404.83C151.137 405.181 151.733 405.704 152.171 406.35C152.314 406.582 152.41 406.84 152.453 407.11C152.496 407.379 152.485 407.655 152.421 407.92C152.251 408.511 151.927 409.046 151.481 409.47C150.929 410.023 150.315 410.51 149.651 410.92L152.201 412.39L150.811 413.2L148.231 411.71C147.002 412.319 145.716 412.805 144.391 413.16C143.006 413.542 141.59 413.807 140.161 413.95L138.821 411.54C139.195 411.53 139.569 411.5 139.941 411.45C140.509 411.383 141.073 411.286 141.631 411.16C142.251 411.03 142.901 410.86 143.631 410.66C144.314 410.465 144.982 410.221 145.631 409.93L141.631 407.62L141.111 407.8L140.561 407.97C139.561 408.3 138.631 408.56 137.791 408.75C137.019 408.925 136.232 409.029 135.441 409.06C134.742 409.085 134.043 409.021 133.361 408.87C132.682 408.707 132.032 408.444 131.431 408.09C130.769 407.743 130.194 407.251 129.751 406.65C129.427 406.2 129.268 405.653 129.301 405.1C129.363 404.526 129.592 403.984 129.961 403.54C130.427 402.968 130.977 402.469 131.591 402.06L129.221 400.7L130.611 399.89L132.961 401.25C134.061 400.702 135.218 400.276 136.411 399.98C137.545 399.692 138.698 399.481 139.861 399.35L141.001 401.68ZM134.171 405.89C134.697 406.194 135.306 406.324 135.911 406.26C136.724 406.169 137.525 405.992 138.301 405.73L134.541 403.55C133.171 404.46 133.001 405.24 134.181 405.89H134.171ZM147.371 406.99C146.795 406.673 146.131 406.553 145.481 406.65C144.592 406.768 143.716 406.962 142.861 407.23L146.601 409.39C148.201 408.41 148.461 407.613 147.381 407L147.371 406.99Z" fill="#0C9300"/>
<path d="M138.85 411.54C138.85 411.44 138.85 410.18 138.85 410.18L140.38 411.18L139.71 412.18L138.85 411.54Z" fill="#0C9300"/>
<path d="M152.23 412.39V411.04L148.91 411.29L150.82 412.6L152.23 412.39Z" fill="#0C9300"/>
<path d="M152.51 407.42V406.05L150.02 406.95L152.51 407.42Z" fill="#0C9300"/>
<path d="M142.199 407.35L143.029 406.55L145.949 408.55L145.769 409.15C145.769 409.15 143.589 408.23 143.519 408.15L142.199 407.35Z" fill="#0C9300"/>
<path d="M134.561 403.08L138.441 405.27L139.231 404.7C139.231 404.7 138.741 404.14 138.711 404.08C138.681 404.02 137.791 403.13 137.501 403.08C137.211 403.03 135.371 402.2 135.371 402.2L134.561 403.08Z" fill="#0C9300"/>
<path d="M141.01 401.68V400.32L139.23 399.74L138.85 400.8L138.94 401.29L141.01 401.68Z" fill="#0C9300"/>
<path d="M129.18 400.7V399.34L131.24 399.56L130.58 400.88L129.18 400.7Z" fill="#0C9300"/>
<path d="M129.26 405.3V403.89H131.62L131.05 405.15L130.05 406.28L129.26 405.3Z" fill="#0C9300"/>
<path d="M141 400.32C140.692 400.321 140.385 400.344 140.08 400.39C139.67 400.45 139.21 400.53 138.7 400.64C138.19 400.75 137.7 400.89 137.11 401.05C136.573 401.214 136.049 401.414 135.54 401.65L139.54 403.97L140.26 403.71C141.26 403.37 142.26 403.09 143.15 402.85C144 402.621 144.871 402.477 145.75 402.42C146.554 402.367 147.361 402.42 148.15 402.58C148.956 402.753 149.729 403.053 150.44 403.47C151.149 403.82 151.755 404.347 152.2 405C152.343 405.234 152.439 405.494 152.482 405.765C152.525 406.036 152.514 406.313 152.45 406.58C152.28 407.168 151.956 407.7 151.51 408.12C150.961 408.676 150.347 409.163 149.68 409.57L152.23 411.05L150.84 411.85L148.26 410.37C147.031 410.976 145.745 411.458 144.42 411.81C143.035 412.196 141.62 412.463 140.19 412.61L138.85 410.19C139.225 410.18 139.599 410.15 139.97 410.1C140.539 410.038 141.103 409.941 141.66 409.81C142.28 409.68 142.93 409.51 143.66 409.31C144.345 409.119 145.014 408.875 145.66 408.58L141.66 406.27C141.49 406.339 141.316 406.399 141.14 406.45L140.59 406.62C139.59 406.95 138.66 407.21 137.82 407.4C137.048 407.578 136.261 407.685 135.47 407.72C134.771 407.742 134.072 407.675 133.39 407.52C132.71 407.361 132.059 407.098 131.46 406.74C130.797 406.4 130.222 405.91 129.78 405.31C129.458 404.86 129.299 404.313 129.33 403.76C129.39 403.183 129.619 402.636 129.99 402.19C130.457 401.622 131.007 401.126 131.62 400.72L129.25 399.35L130.64 398.54L132.99 399.9C134.09 399.352 135.247 398.926 136.44 398.63C137.574 398.34 138.727 398.133 139.89 398.01L141 400.32ZM134.17 404.53C134.695 404.838 135.304 404.971 135.91 404.91C136.724 404.815 137.525 404.634 138.3 404.37L134.54 402.2C133.17 403.1 133 403.88 134.18 404.53H134.17ZM147.37 405.63C146.791 405.321 146.129 405.205 145.48 405.3C144.592 405.414 143.715 405.605 142.86 405.87L146.6 408.03C148.2 407.063 148.46 406.263 147.38 405.63H147.37Z" fill="#14FF00"/>
<path d="M144.351 424.62C163.659 424.62 179.311 415.581 179.311 404.43C179.311 393.279 163.659 384.24 144.351 384.24C125.043 384.24 109.391 393.279 109.391 404.43C109.391 415.581 125.043 424.62 144.351 424.62Z" fill="#0C9300"/>
<path d="M109.391 404.74V395.54L116.301 401.69L109.391 404.74Z" fill="#0C9300"/>
<path d="M179.311 395.78V404.43L175.781 408.18L174.051 398.28L179.311 395.78Z" fill="#0C9300"/>
<path d="M144.351 415.97C163.659 415.97 179.311 406.931 179.311 395.78C179.311 384.629 163.659 375.59 144.351 375.59C125.043 375.59 109.391 384.629 109.391 395.78C109.391 406.931 125.043 415.97 144.351 415.97Z" fill="#76D36E"/>
<path d="M169.331 396.41C168.981 399.81 166.561 403.16 162.051 405.76C152.271 411.4 136.431 411.4 126.651 405.76C122.141 403.16 119.721 399.81 119.371 396.41C118.951 392.41 121.371 388.36 126.651 385.33C136.431 379.68 152.271 379.68 162.051 385.33C167.321 388.36 169.751 392.43 169.331 396.41Z" fill="#0C9300"/>
<path d="M169.331 396.41C168.981 399.81 166.561 403.16 162.051 405.76C152.271 411.4 136.431 411.4 126.651 405.76C122.141 403.16 119.721 399.81 119.371 396.41C119.721 393.01 122.141 389.66 126.651 387.06C136.431 381.41 152.271 381.41 162.051 387.06C166.561 389.66 169.001 393 169.331 396.41Z" fill="#0C9300"/>
<path d="M144.001 391.68C143.693 391.676 143.385 391.699 143.081 391.75C142.671 391.81 142.211 391.89 141.701 392C141.191 392.11 140.701 392.25 140.111 392.41C139.573 392.571 139.048 392.771 138.541 393.01L142.541 395.33L143.261 395.07C144.261 394.73 145.261 394.45 146.151 394.21C147.004 393.981 147.879 393.837 148.761 393.78C149.561 393.727 150.365 393.78 151.151 393.94C151.957 394.111 152.73 394.412 153.441 394.83C154.137 395.181 154.733 395.704 155.171 396.35C155.315 396.582 155.413 396.84 155.458 397.109C155.502 397.378 155.493 397.654 155.431 397.92C155.259 398.51 154.935 399.045 154.491 399.47C153.938 400.026 153.321 400.513 152.651 400.92L155.211 402.4L153.811 403.2L151.231 401.72C150.004 402.324 148.721 402.807 147.401 403.16C146.015 403.544 144.601 403.811 143.171 403.96L141.821 401.54C142.199 401.53 142.576 401.5 142.951 401.45C143.516 401.387 144.077 401.29 144.631 401.16C145.251 401.03 145.911 400.86 146.631 400.66C147.316 400.47 147.984 400.226 148.631 399.93L144.631 397.62C144.461 397.69 144.288 397.751 144.111 397.8L143.561 397.97C142.561 398.303 141.641 398.563 140.801 398.75C140.025 398.928 139.235 399.035 138.441 399.07C137.742 399.092 137.043 399.025 136.361 398.87C135.682 398.708 135.032 398.445 134.431 398.09C133.772 397.747 133.201 397.258 132.761 396.66C132.438 396.21 132.28 395.663 132.311 395.11C132.362 394.531 132.592 393.982 132.971 393.54C133.432 392.969 133.978 392.473 134.591 392.07L132.221 390.7L133.621 389.89L135.961 391.25C137.064 390.702 138.224 390.276 139.421 389.98C140.554 389.69 141.707 389.483 142.871 389.36L144.001 391.68ZM137.171 395.89C137.696 396.196 138.305 396.329 138.911 396.27C139.728 396.176 140.532 395.995 141.311 395.73L137.541 393.56C136.147 394.46 136.017 395.237 137.151 395.89H137.171ZM150.371 396.99C149.795 396.682 149.137 396.566 148.491 396.66C147.599 396.774 146.719 396.965 145.861 397.23L149.601 399.39C151.181 398.42 151.431 397.62 150.351 397L150.371 396.99Z" fill="#0C9300"/>
<path d="M141.82 401.54C141.82 401.44 141.82 400.18 141.82 400.18L143.36 401.18L142.69 402.18L141.82 401.54Z" fill="#0C9300"/>
<path d="M155.211 402.4V401.04L151.881 401.3L153.791 402.6L155.211 402.4Z" fill="#0C9300"/>
<path d="M155.49 397.42V396.05L153 396.95L155.49 397.42Z" fill="#0C9300"/>
<path d="M145.18 397.35L146 396.56L148.92 398.56L148.74 399.15C148.74 399.15 146.56 398.23 146.49 398.15C146.42 398.07 145.18 397.35 145.18 397.35Z" fill="#0C9300"/>
<path d="M137.531 393.08L141.411 395.28L142.201 394.7L141.681 394.09C141.334 393.694 140.925 393.357 140.471 393.09C140.181 393.04 138.341 392.21 138.341 392.21L137.531 393.08Z" fill="#0C9300"/>
<path d="M143.98 391.68V390.32L142.2 389.75L141.82 390.81L141.91 391.3L143.98 391.68Z" fill="#0C9300"/>
<path d="M132.15 390.7V389.34L134.22 389.56L133.55 390.88L132.15 390.7Z" fill="#0C9300"/>
<path d="M132.23 395.3V393.89H134.6L134.02 395.15L133.02 396.28L132.23 395.3Z" fill="#0C9300"/>
<path d="M144.001 390.32C143.692 390.32 143.384 390.347 143.081 390.4C142.671 390.46 142.211 390.54 141.701 390.65C141.191 390.76 140.701 390.89 140.111 391.05C139.575 391.215 139.05 391.416 138.541 391.65L142.541 393.97L143.261 393.72C144.261 393.38 145.261 393.09 146.151 392.85C147.005 392.626 147.879 392.482 148.761 392.42C149.561 392.372 150.364 392.425 151.151 392.58C151.957 392.755 152.731 393.059 153.441 393.48C154.137 393.831 154.733 394.354 155.171 395C155.315 395.232 155.413 395.49 155.458 395.759C155.502 396.028 155.493 396.304 155.431 396.57C155.257 397.16 154.933 397.694 154.491 398.12C153.936 398.673 153.318 399.16 152.651 399.57L155.211 401.04L153.811 401.85L151.231 400.36C150.003 400.963 148.72 401.449 147.401 401.81C146.015 402.191 144.6 402.455 143.171 402.6L141.821 400.18C142.199 400.18 142.576 400.153 142.951 400.1C143.451 400.04 144.011 399.94 144.631 399.81C145.251 399.68 145.911 399.51 146.631 399.31C147.314 399.112 147.983 398.865 148.631 398.57L144.631 396.27L144.111 396.45L143.561 396.62C142.655 396.925 141.734 397.183 140.801 397.39C140.026 397.573 139.236 397.68 138.441 397.71C137.742 397.735 137.043 397.672 136.361 397.52C135.685 397.349 135.036 397.086 134.431 396.74C133.774 396.39 133.203 395.898 132.761 395.3C132.437 394.85 132.278 394.303 132.311 393.75C132.364 393.174 132.594 392.629 132.971 392.19C133.431 391.616 133.978 391.117 134.591 390.71L132.221 389.34L133.621 388.54L135.961 389.89C137.066 389.349 138.226 388.927 139.421 388.63C140.555 388.342 141.708 388.131 142.871 388L144.001 390.32ZM137.171 394.54C137.698 394.843 138.306 394.972 138.911 394.91C139.727 394.82 140.532 394.643 141.311 394.38L137.541 392.2C136.141 393.11 136.001 393.88 137.151 394.54H137.171ZM150.371 395.64C149.798 395.325 149.138 395.205 148.491 395.3C147.598 395.413 146.718 395.607 145.861 395.88L149.601 398.04C151.181 397.06 151.431 396.26 150.351 395.64H150.371Z" fill="#14FF00"/>
<path d="M142.2 414.26C161.508 414.26 177.16 405.221 177.16 394.07C177.16 382.919 161.508 373.88 142.2 373.88C122.892 373.88 107.24 382.919 107.24 394.07C107.24 405.221 122.892 414.26 142.2 414.26Z" fill="#0C9300"/>
<path d="M107.25 394.38V385.18L114.16 391.33L107.25 394.38Z" fill="#0C9300"/>
<path d="M177.17 385.42V394.07L173.63 397.82L171.9 387.92L177.17 385.42Z" fill="#0C9300"/>
<path d="M142.2 405.61C161.508 405.61 177.16 396.571 177.16 385.42C177.16 374.269 161.508 365.23 142.2 365.23C122.892 365.23 107.24 374.269 107.24 385.42C107.24 396.571 122.892 405.61 142.2 405.61Z" fill="#76D36E"/>
<path d="M167.19 386.05C166.83 389.45 164.41 392.79 159.9 395.4C150.13 401.04 134.28 401.04 124.5 395.4C120 392.79 117.58 389.45 117.23 386.05C116.81 382.05 119.23 378 124.5 374.96C134.28 369.31 150.13 369.31 159.9 374.96C165.17 378 167.6 382.07 167.19 386.05Z" fill="#0C9300"/>
<path d="M167.19 386.05C166.83 389.45 164.41 392.79 159.9 395.4C150.13 401.04 134.28 401.04 124.5 395.4C120 392.79 117.58 389.45 117.23 386.05C117.58 382.65 120 379.3 124.5 376.69C134.28 371.04 150.13 371.04 159.9 376.69C164.41 379.3 166.83 382.65 167.19 386.05Z" fill="#0C9300"/>
<path d="M141.84 381.32C141.532 381.316 141.224 381.339 140.92 381.39C140.51 381.45 140.05 381.53 139.54 381.64C139.03 381.75 138.54 381.88 137.94 382.05C137.405 382.206 136.884 382.403 136.38 382.64L140.38 384.97L141.1 384.71C142.1 384.37 143.1 384.08 143.99 383.84C144.841 383.614 145.712 383.473 146.59 383.42C147.394 383.367 148.201 383.42 148.99 383.58C149.797 383.749 150.571 384.049 151.28 384.47C151.972 384.828 152.564 385.354 153 386C153.144 386.232 153.24 386.49 153.283 386.76C153.325 387.029 153.314 387.305 153.25 387.57C153.08 388.161 152.756 388.696 152.31 389.12C151.755 389.673 151.138 390.16 150.47 390.57L153.03 392.05L151.64 392.85L149.06 391.36C147.831 391.969 146.545 392.455 145.22 392.81C143.836 393.197 142.42 393.462 140.99 393.6L139.65 391.19C140.025 391.18 140.399 391.15 140.77 391.1C141.338 391.033 141.902 390.936 142.46 390.81C143.08 390.68 143.73 390.51 144.46 390.31C145.144 390.117 145.813 389.873 146.46 389.58L142.46 387.27L141.94 387.45L141.39 387.62C140.39 387.95 139.46 388.21 138.62 388.4C137.845 388.576 137.055 388.68 136.26 388.71C135.561 388.734 134.863 388.671 134.18 388.52C133.504 388.359 132.856 388.096 132.26 387.74C131.598 387.393 131.024 386.901 130.58 386.3C130.256 385.85 130.097 385.303 130.13 384.75C130.192 384.177 130.422 383.634 130.79 383.19C131.254 382.619 131.804 382.123 132.42 381.72L130 380.34L131.39 379.53L133.74 380.89C134.84 380.342 135.997 379.916 137.19 379.62C138.324 379.332 139.477 379.121 140.64 378.99L141.84 381.32ZM135 385.53C135.53 385.834 136.142 385.963 136.75 385.9C137.563 385.809 138.365 385.632 139.14 385.37L135.38 383.19C134 384.103 133.873 384.883 135 385.53ZM148.2 386.63C147.627 386.315 146.967 386.195 146.32 386.29C145.432 386.408 144.555 386.602 143.7 386.87L147.44 389.03C149 388.06 149.29 387.25 148.2 386.63Z" fill="#0C9300"/>
<path d="M139.68 391.18C139.68 391.08 139.68 389.82 139.68 389.82L141.21 390.82L140.54 391.82L139.68 391.18Z" fill="#0C9300"/>
<path d="M153.06 392.04V390.68L149.74 390.94L151.65 392.24L153.06 392.04Z" fill="#0C9300"/>
<path d="M153.34 387.06V385.69L150.85 386.59L153.34 387.06Z" fill="#0C9300"/>
<path d="M143 387L143.83 386.2L146.75 388.2L146.57 388.8C146.57 388.8 144.39 387.88 144.32 387.8L143 387Z" fill="#0C9300"/>
<path d="M135.391 382.72L139.261 384.91L140.061 384.34L139.531 383.73C139.189 383.332 138.784 382.994 138.331 382.73C138.041 382.67 136.201 381.85 136.201 381.85L135.391 382.72Z" fill="#0C9300"/>
<path d="M130.08 384.94V383.53H132.44L131.86 384.79L130.86 385.92L130.08 384.94Z" fill="#0C9300"/>
<path d="M141.84 380C141.532 380.001 141.225 380.024 140.92 380.07C140.51 380.13 140.05 380.21 139.54 380.32C139.03 380.43 138.54 380.57 137.94 380.73C137.407 380.893 136.885 381.094 136.38 381.33L140.38 383.65L141.1 383.39C142.1 383.06 143.1 382.77 143.99 382.53C144.84 382.301 145.711 382.157 146.59 382.1C147.394 382.047 148.201 382.1 148.99 382.26C149.795 382.437 150.567 382.737 151.28 383.15C151.975 383.507 152.57 384.033 153.01 384.68C153.154 384.912 153.25 385.17 153.293 385.44C153.335 385.709 153.324 385.985 153.26 386.25C153.09 386.841 152.766 387.376 152.32 387.8C151.767 388.353 151.149 388.836 150.48 389.24L153.04 390.72L151.65 391.53L149.09 390C147.859 390.605 146.573 391.091 145.25 391.45C143.864 391.828 142.449 392.092 141.02 392.24L139.68 389.82C140.055 389.81 140.429 389.78 140.8 389.73C141.368 389.667 141.932 389.573 142.49 389.45C143.11 389.31 143.76 389.14 144.49 388.94C145.176 388.752 145.844 388.508 146.49 388.21L142.49 385.9L141.97 386.09L141.42 386.25C140.42 386.58 139.49 386.84 138.65 387.03C137.875 387.209 137.085 387.316 136.29 387.35C135.591 387.371 134.892 387.304 134.21 387.15C133.534 386.989 132.886 386.726 132.29 386.37C131.627 386.03 131.052 385.54 130.61 384.94C130.288 384.49 130.129 383.943 130.16 383.39C130.22 382.816 130.45 382.273 130.82 381.83C131.284 381.256 131.834 380.756 132.45 380.35L130 379L131.39 378.2L133.74 379.55C134.842 379.006 135.998 378.58 137.19 378.28C138.325 377.995 139.477 377.788 140.64 377.66L141.84 380ZM135 384.17C135.529 384.477 136.141 384.61 136.75 384.55C137.564 384.46 138.366 384.278 139.14 384.01L135.38 381.84C134 382.74 133.873 383.517 135 384.17ZM148.2 385.27C147.626 384.958 146.966 384.842 146.32 384.94C145.432 385.054 144.555 385.245 143.7 385.51L147.44 387.67C149 386.7 149.29 385.9 148.2 385.27Z" fill="#14FF00"/>
<path opacity="0.3" d="M34.96 500C54.2679 500 69.92 490.961 69.92 479.81C69.92 468.659 54.2679 459.62 34.96 459.62C15.6521 459.62 0 468.659 0 479.81C0 490.961 15.6521 500 34.96 500Z" fill="#D6D8E5"/>
<path d="M43.6104 494.81C62.9183 494.81 78.5704 485.771 78.5704 474.62C78.5704 463.469 62.9183 454.43 43.6104 454.43C24.3025 454.43 8.65039 463.469 8.65039 474.62C8.65039 485.771 24.3025 494.81 43.6104 494.81Z" fill="#0C9300"/>
<path d="M8.66016 474.93V465.73L15.5702 471.88L8.66016 474.93Z" fill="#0C9300"/>
<path d="M78.5803 465.97V474.62L75.0503 478.37L73.3203 468.47L78.5803 465.97Z" fill="#0C9300"/>
<path d="M43.6104 486.16C62.9183 486.16 78.5704 477.121 78.5704 465.97C78.5704 454.819 62.9183 445.78 43.6104 445.78C24.3025 445.78 8.65039 454.819 8.65039 465.97C8.65039 477.121 24.3025 486.16 43.6104 486.16Z" fill="#76D36E"/>
<path d="M68.6003 466.6C68.2503 470 65.8203 473.35 61.3203 475.95C51.5403 481.59 35.6903 481.59 25.9203 475.95C21.4103 473.35 18.9903 470 18.6403 466.6C18.2203 462.6 20.6403 458.55 25.9203 455.52C35.6903 449.87 51.5403 449.87 61.3203 455.52C66.5903 458.55 69.0003 462.62 68.6003 466.6Z" fill="#0C9300"/>
<path d="M68.6006 466.6C68.2506 470 65.8206 473.35 61.3206 475.95C51.5406 481.59 35.6906 481.59 25.9206 475.95C21.4106 473.35 18.9906 470 18.6406 466.6C18.9906 463.2 21.4106 459.85 25.9206 457.25C35.6906 451.6 51.5406 451.6 61.3206 457.25C65.8206 459.85 68.2506 463.2 68.6006 466.6Z" fill="#0C9300"/>
<path d="M43.2509 461.87C42.9428 461.866 42.6349 461.889 42.3309 461.94C41.9209 462 41.4609 462.08 40.9509 462.19C40.4409 462.3 39.9509 462.43 39.3609 462.6C38.8229 462.759 38.298 462.96 37.7909 463.2L41.7909 465.52L42.5109 465.26C43.5109 464.92 44.5109 464.63 45.4009 464.4C46.2524 464.182 47.1232 464.048 48.0009 464C48.8012 463.947 49.605 464 50.3909 464.16C51.1972 464.331 51.9705 464.632 52.6809 465.05C53.3777 465.401 53.9731 465.924 54.4109 466.57C54.5557 466.802 54.6532 467.06 54.6978 467.329C54.7425 467.599 54.7333 467.874 54.6709 468.14C54.4818 468.737 54.1365 469.272 53.6709 469.69C53.1244 470.249 52.5096 470.736 51.8409 471.14L54.3909 472.62L53.0009 473.42L50.5009 471.9C49.2768 472.512 47.9935 472.998 46.6709 473.35C45.2865 473.736 43.8712 474 42.4409 474.14L41.0909 471.73C41.4689 471.72 41.8461 471.69 42.2209 471.64C42.7856 471.572 43.3463 471.476 43.9009 471.35C44.5209 471.22 45.1809 471.05 45.9009 470.85C46.5857 470.66 47.2545 470.415 47.9009 470.12L43.9009 467.81C43.7309 467.87 43.5609 467.94 43.3809 467.99L42.8309 468.16C41.8309 468.49 40.9009 468.75 40.0709 468.94C39.2962 469.12 38.5058 469.224 37.7109 469.25C37.0122 469.28 36.3126 469.216 35.6309 469.06C34.9517 468.9 34.3009 468.637 33.7009 468.28C33.0317 467.941 32.4499 467.451 32.0009 466.85C31.6714 466.403 31.5087 465.855 31.5409 465.3C31.6006 464.723 31.8303 464.177 32.2009 463.73C32.6654 463.159 33.2152 462.663 33.8309 462.26L31.4609 460.89L32.8609 460.08L35.2009 461.44C36.301 460.892 37.4579 460.466 38.6509 460.17C39.7878 459.88 40.9442 459.673 42.1109 459.55L43.2509 461.87ZM36.4209 466.08C36.9465 466.387 37.5554 466.52 38.1609 466.46C38.9738 466.361 39.7746 466.18 40.5509 465.92L36.7909 463.75C35.4109 464.65 35.2876 465.427 36.4209 466.08ZM49.6209 467.18C49.0457 466.872 48.3868 466.756 47.7409 466.85C46.8495 466.964 45.9696 467.155 45.1109 467.42L48.8509 469.58C50.4509 468.61 50.7009 467.81 49.6209 467.18Z" fill="#0C9300"/>
<path d="M41.0898 471.73C41.0898 471.63 41.0898 470.37 41.0898 470.37L42.6198 471.37L41.9598 472.37L41.0898 471.73Z" fill="#0C9300"/>
<path d="M54.4704 472.59V471.23L51.1504 471.49L53.0604 472.79L54.4704 472.59Z" fill="#0C9300"/>
<path d="M54.7595 467.61V466.24L52.2695 467.14L54.7595 467.61Z" fill="#0C9300"/>
<path d="M44.4395 467.54L45.2695 466.75L48.1895 468.75L48.0095 469.34C48.0095 469.34 45.8295 468.42 45.7595 468.34C45.6895 468.26 44.4395 467.54 44.4395 467.54Z" fill="#0C9300"/>
<path d="M36.8008 463.27L40.6808 465.47L41.4708 464.89C41.4708 464.89 40.9808 464.33 40.9508 464.28C40.6034 463.884 40.1949 463.547 39.7408 463.28C39.4508 463.22 37.6108 462.4 37.6108 462.4L36.8008 463.27Z" fill="#0C9300"/>
<path d="M43.2498 461.87V460.51L41.4698 459.93L41.0898 461L41.1798 461.48L43.2498 461.87Z" fill="#0C9300"/>
<path d="M31.4199 460.89V459.53L33.4899 459.75L32.8199 461.07L31.4199 460.89Z" fill="#0C9300"/>
<path d="M31.5 465.49V464.08H33.86L33.29 465.34L32.29 466.47L31.5 465.49Z" fill="#0C9300"/>
<path d="M43.2509 460.51C42.9425 460.51 42.6347 460.537 42.3309 460.59C41.9243 460.65 41.4643 460.73 40.9509 460.83C40.4409 460.94 39.9509 461.08 39.3609 461.24C38.8244 461.404 38.2998 461.604 37.7909 461.84L41.7909 464.16L42.5109 463.91C43.5109 463.57 44.5109 463.28 45.4009 463.04C46.2557 462.816 47.1294 462.672 48.0109 462.61C48.8112 462.562 49.6143 462.616 50.4009 462.77C51.2077 462.945 51.9809 463.249 52.6909 463.67C53.3876 464.021 53.9831 464.544 54.4209 465.19C54.5657 465.422 54.6632 465.68 54.7078 465.949C54.7525 466.219 54.7433 466.494 54.6809 466.76C54.4891 467.355 54.1443 467.89 53.6809 468.31C53.1318 468.866 52.5173 469.353 51.8509 469.76L54.4009 471.23L53.0109 472.04L50.4309 470.55C49.2255 471.149 47.9667 471.635 46.6709 472C45.2854 472.381 43.8705 472.645 42.4409 472.79L41.0909 470.37C41.4688 470.365 41.8461 470.338 42.2209 470.29C42.7209 470.23 43.2809 470.13 43.9009 470C44.5209 469.87 45.1809 469.7 45.9009 469.5C46.5845 469.302 47.2529 469.054 47.9009 468.76L43.9009 466.46L43.3809 466.64L42.8309 466.81C41.9249 467.114 41.0036 467.371 40.0709 467.58C39.2965 467.763 38.5061 467.87 37.7109 467.9C37.0118 467.927 36.3121 467.86 35.6309 467.7C34.9535 467.539 34.3033 467.279 33.7009 466.93C33.031 466.587 32.4493 466.094 32.0009 465.49C31.6714 465.043 31.5087 464.495 31.5409 463.94C31.6031 463.367 31.8327 462.824 32.2009 462.38C32.6675 461.808 33.2169 461.309 33.8309 460.9L31.4609 459.53L32.8609 458.73L35.2009 460.08C36.3031 459.539 37.4596 459.117 38.6509 458.82C39.7887 458.532 40.9447 458.321 42.1109 458.19L43.2509 460.51ZM36.4209 464.73C36.9474 465.034 37.5564 465.163 38.1609 465.1C38.9755 465.011 39.7773 464.83 40.5509 464.56L36.7909 462.39C35.4109 463.29 35.2876 464.07 36.4209 464.73ZM49.6209 465.83C49.0481 465.515 48.3879 465.395 47.7409 465.49C46.8485 465.603 45.9682 465.797 45.1109 466.07L48.8509 468.23C50.4509 467.25 50.7009 466.45 49.6209 465.83Z" fill="#14FF00"/>
<path d="M46.4698 484.05C65.7776 484.05 81.4298 475.011 81.4298 463.86C81.4298 452.709 65.7776 443.67 46.4698 443.67C27.1619 443.67 11.5098 452.709 11.5098 463.86C11.5098 475.011 27.1619 484.05 46.4698 484.05Z" fill="#0C9300"/>
<path d="M11.5195 464.17V454.97L18.4295 461.12L11.5195 464.17Z" fill="#0C9300"/>
<path d="M81.4399 455.21V463.86L77.8999 467.61L76.1699 457.7L81.4399 455.21Z" fill="#0C9300"/>
<path d="M46.4698 475.4C65.7776 475.4 81.4298 466.361 81.4298 455.21C81.4298 444.059 65.7776 435.02 46.4698 435.02C27.1619 435.02 11.5098 444.059 11.5098 455.21C11.5098 466.361 27.1619 475.4 46.4698 475.4Z" fill="#76D36E"/>
<path d="M71.4597 455.83C71.0997 459.23 68.6797 462.58 64.1697 465.19C54.3997 470.83 38.5497 470.83 28.7697 465.19C24.2697 462.58 21.8497 459.19 21.4997 455.83C21.0797 451.83 23.4997 447.83 28.7697 444.75C38.5497 439.1 54.3997 439.1 64.1697 444.75C69.4397 447.79 71.8697 451.85 71.4597 455.83Z" fill="#0C9300"/>
<path d="M71.46 455.83C71.1 459.23 68.68 462.58 64.17 465.19C54.4 470.83 38.55 470.83 28.77 465.19C24.27 462.58 21.85 459.19 21.5 455.83C21.85 452.43 24.27 449.09 28.77 446.48C38.55 440.83 54.4 440.83 64.17 446.48C68.68 449.09 71.1 452.43 71.46 455.83Z" fill="#0C9300"/>
<path d="M46.1098 451.1C45.8016 451.105 45.4942 451.132 45.1898 451.18C44.7798 451.24 44.3198 451.32 43.8098 451.43C43.2696 451.539 42.7355 451.675 42.2098 451.84C41.6752 451.996 41.1536 452.193 40.6498 452.43L44.6498 454.75L45.3698 454.5C46.3698 454.16 47.3698 453.87 48.2598 453.63C49.1111 453.406 49.9816 453.262 50.8598 453.2C51.6638 453.15 52.4709 453.207 53.2598 453.37C54.0642 453.537 54.8349 453.838 55.5398 454.26C56.2389 454.612 56.8375 455.134 57.2798 455.78C57.4234 456.012 57.5194 456.27 57.5623 456.54C57.6052 456.809 57.5942 457.085 57.5298 457.35C57.3602 457.941 57.0357 458.476 56.5898 458.9C56.0349 459.453 55.4174 459.94 54.7498 460.35L57.3098 461.82L55.9198 462.63L53.3398 461.14C52.1084 461.744 50.8227 462.229 49.4998 462.59C48.1146 462.972 46.6996 463.237 45.2698 463.38L43.9998 461C44.3744 460.99 44.7483 460.96 45.1198 460.91C45.6298 460.85 46.1898 460.75 46.8098 460.62C47.4298 460.49 48.0798 460.32 48.8098 460.12C49.4938 459.927 50.1623 459.683 50.8098 459.39L46.8098 457.08L46.2798 457.26L45.7398 457.43C44.7398 457.76 43.8098 458.02 42.9698 458.21C42.1944 458.386 41.4043 458.49 40.6098 458.52C39.9112 458.544 39.2123 458.481 38.5298 458.33C37.8566 458.161 37.2104 457.898 36.6098 457.55C35.9479 457.204 35.3734 456.711 34.9298 456.11C34.6061 455.66 34.4472 455.113 34.4798 454.56C34.5012 454.001 34.6816 453.46 34.9998 453C35.4664 452.428 36.0158 451.929 36.6298 451.52L34.2598 450.15L35.6498 449.35L37.9998 450.67C39.102 450.129 40.2584 449.707 41.4498 449.41C42.5841 449.122 43.7368 448.911 44.8998 448.78L46.1098 451.1ZM39.2698 455.32C39.7998 455.624 40.4121 455.753 41.0198 455.69C41.8331 455.599 42.6343 455.422 43.4098 455.16L39.6498 453C38.2698 453.89 38.1398 454.66 39.2698 455.32ZM52.4698 456.42C51.8969 456.105 51.2367 455.985 50.5898 456.08C49.7006 456.193 48.8236 456.387 47.9698 456.66L51.7098 458.82C53.2998 457.84 53.5598 457 52.4698 456.42Z" fill="#0C9300"/>
<path d="M44 461C44 460.9 44 459.64 44 459.64L45.53 460.64L44.86 461.64L44 461Z" fill="#0C9300"/>
<path d="M57.3298 461.82V460.47L54.0098 460.72L55.9198 462.02L57.3298 461.82Z" fill="#0C9300"/>
<path d="M57.6091 456.85V455.48L55.1191 456.38L57.6091 456.85Z" fill="#0C9300"/>
<path d="M47.2988 456.78L48.1288 455.98L51.0488 457.98L50.8688 458.58C50.8688 458.58 48.6888 457.66 48.6188 457.58L47.2988 456.78Z" fill="#0C9300"/>
<path d="M39.6602 452.5L43.5302 454.7L44.3302 454.13C44.3302 454.13 43.8402 453.57 43.8002 453.51C43.4514 453.12 43.0471 452.783 42.6002 452.51C42.3102 452.46 40.4702 451.64 40.4702 451.64L39.6602 452.5Z" fill="#0C9300"/>
<path d="M46.1092 451.1V449.75L44.3292 449.17L43.9492 450.23L44.0392 450.72L46.1092 451.1Z" fill="#0C9300"/>
<path d="M34.2793 450.13V448.77L36.3393 448.99L35.6793 450.31L34.2793 450.13Z" fill="#0C9300"/>
<path d="M34.3496 454.73V453.32H36.7096L36.1296 454.58L35.1296 455.71L34.3496 454.73Z" fill="#0C9300"/>
<path d="M46.1104 449.75C45.8022 449.746 45.4943 449.769 45.1904 449.82C44.7804 449.88 44.3204 449.96 43.8104 450.07C43.3004 450.18 42.7604 450.31 42.2104 450.48C41.6756 450.639 41.154 450.84 40.6504 451.08L44.6504 453.4L45.3704 453.14C46.3704 452.8 47.3704 452.52 48.2604 452.28C49.1107 452.051 49.9816 451.907 50.8604 451.85C51.6639 451.797 52.471 451.85 53.2604 452.01C54.0635 452.181 54.8335 452.482 55.5404 452.9C56.2395 453.252 56.8382 453.775 57.2804 454.42C57.4235 454.652 57.5192 454.911 57.5621 455.18C57.605 455.45 57.5942 455.725 57.5304 455.99C57.3631 456.582 57.0382 457.118 56.5904 457.54C56.0449 458.098 55.4338 458.589 54.7704 459L57.3304 460.48L55.9404 461.28L53.3604 459.79C52.1328 460.402 50.8462 460.888 49.5204 461.24C48.1355 461.626 46.7205 461.893 45.2904 462.04L44.0004 459.61C44.3751 459.6 44.7489 459.57 45.1204 459.52C45.6884 459.453 46.2526 459.356 46.8104 459.23C47.4304 459.1 48.0804 458.93 48.8104 458.73C49.4959 458.542 50.1648 458.298 50.8104 458L46.8104 455.69C46.6404 455.75 46.4604 455.82 46.2804 455.87L45.7404 456.04C44.7404 456.37 43.8104 456.63 42.9704 456.82C42.1953 456.999 41.4052 457.106 40.6104 457.14C39.9114 457.161 39.2125 457.094 38.5304 456.94C37.8543 456.78 37.2068 456.516 36.6104 456.16C35.9494 455.817 35.3749 455.328 34.9304 454.73C34.6082 454.28 34.4494 453.733 34.4804 453.18C34.5401 452.603 34.7698 452.056 35.1404 451.61C35.6075 451.042 36.1569 450.546 36.7704 450.14L34.4004 448.77L35.7904 447.96L38.0004 449.32C39.1004 448.772 40.2574 448.346 41.4504 448.05C42.5839 447.76 43.7369 447.553 44.9004 447.43L46.1104 449.75ZM39.2704 454C39.7995 454.307 40.4117 454.44 41.0204 454.38C41.8331 454.28 42.6337 454.099 43.4104 453.84L39.6504 451.67C38.2704 452.557 38.1437 453.333 39.2704 454ZM52.4704 455.1C51.8964 454.788 51.2363 454.672 50.5904 454.77C49.7023 454.884 48.8257 455.075 47.9704 455.34L51.7104 457.5C53.3004 456.49 53.5604 455.69 52.4704 455.06V455.1Z" fill="#14FF00"/>
<path opacity="0.3" d="M217.47 500C236.778 500 252.43 490.961 252.43 479.81C252.43 468.659 236.778 459.62 217.47 459.62C198.162 459.62 182.51 468.659 182.51 479.81C182.51 490.961 198.162 500 217.47 500Z" fill="#D6D8E5"/>
<path d="M226.12 494.81C245.428 494.81 261.08 485.771 261.08 474.62C261.08 463.469 245.428 454.43 226.12 454.43C206.812 454.43 191.16 463.469 191.16 474.62C191.16 485.771 206.812 494.81 226.12 494.81Z" fill="#0C9300"/>
<path d="M191.17 474.93V465.73L198.08 471.88L191.17 474.93Z" fill="#0C9300"/>
<path d="M261.09 465.97V474.62L257.56 478.37L255.83 468.47L261.09 465.97Z" fill="#0C9300"/>
<path d="M226.12 486.16C245.428 486.16 261.08 477.121 261.08 465.97C261.08 454.819 245.428 445.78 226.12 445.78C206.812 445.78 191.16 454.819 191.16 465.97C191.16 477.121 206.812 486.16 226.12 486.16Z" fill="#76D36E"/>
<path d="M251.11 466.6C250.76 470 248.33 473.35 243.83 475.95C234.05 481.59 218.2 481.59 208.43 475.95C203.92 473.35 201.5 470 201.15 466.6C200.73 462.6 203.15 458.55 208.43 455.52C218.2 449.87 234.05 449.87 243.83 455.52C249.1 458.55 251.53 462.62 251.11 466.6Z" fill="#0C9300"/>
<path d="M251.11 466.6C250.76 470 248.33 473.35 243.83 475.95C234.05 481.59 218.2 481.59 208.43 475.95C203.92 473.35 201.5 470 201.15 466.6C201.5 463.2 203.92 459.85 208.43 457.25C218.2 451.6 234.05 451.6 243.83 457.25C248.33 459.85 250.76 463.2 251.11 466.6Z" fill="#0C9300"/>
<path d="M225.76 461.87C225.452 461.866 225.144 461.889 224.84 461.94C224.43 462 223.97 462.08 223.46 462.19C222.95 462.3 222.46 462.43 221.87 462.6C221.332 462.759 220.807 462.96 220.3 463.2L224.3 465.52L225.02 465.26C226.02 464.92 227.02 464.63 227.91 464.4C228.764 464.171 229.638 464.027 230.52 463.97C231.32 463.917 232.124 463.97 232.91 464.13C233.717 464.301 234.49 464.602 235.2 465.02C235.897 465.371 236.492 465.894 236.93 466.54C237.077 466.771 237.175 467.029 237.218 467.299C237.261 467.569 237.248 467.845 237.18 468.11C237.013 468.702 236.688 469.238 236.24 469.66C235.694 470.219 235.079 470.706 234.41 471.11L236.96 472.59L235.57 473.39L233 471.9C231.776 472.512 230.493 472.998 229.17 473.35C227.786 473.736 226.37 474 224.94 474.14L223.59 471.73C223.968 471.72 224.345 471.69 224.72 471.64C225.285 471.572 225.846 471.476 226.4 471.35C227.02 471.22 227.67 471.05 228.4 470.85C229.085 470.66 229.754 470.415 230.4 470.12L226.4 467.81C226.23 467.87 226.06 467.94 225.88 467.99L225.33 468.16C224.33 468.49 223.4 468.75 222.57 468.94C221.795 469.12 221.005 469.224 220.21 469.25C219.512 469.28 218.812 469.216 218.13 469.06C217.451 468.9 216.8 468.637 216.2 468.28C215.542 467.937 214.971 467.448 214.53 466.85C214.201 466.403 214.038 465.855 214.07 465.3C214.13 464.723 214.36 464.177 214.73 463.73C215.195 463.159 215.744 462.663 216.36 462.26L213.99 460.89L215.39 460.08L217.73 461.44C218.83 460.892 219.987 460.466 221.18 460.17C222.314 459.881 223.467 459.674 224.63 459.55L225.76 461.87ZM218.93 466.08C219.456 466.387 220.065 466.52 220.67 466.46C221.483 466.361 222.284 466.18 223.06 465.92L219.3 463.75C217.92 464.65 217.797 465.427 218.93 466.08ZM232.13 467.18C231.552 466.871 230.889 466.755 230.24 466.85C229.352 466.965 228.476 467.156 227.62 467.42L231.36 469.58C233 468.61 233.21 467.81 232.13 467.18Z" fill="#0C9300"/>
<path d="M223.6 471.73C223.6 471.63 223.6 470.37 223.6 470.37L225.13 471.37L224.47 472.37L223.6 471.73Z" fill="#0C9300"/>
<path d="M236.98 472.59V471.23L233.66 471.49L235.57 472.79L236.98 472.59Z" fill="#0C9300"/>
<path d="M237.259 467.61V466.24L234.779 467.14L237.259 467.61Z" fill="#0C9300"/>
<path d="M227 467.54L227.83 466.75L230.75 468.75L230.57 469.34C230.57 469.34 228.39 468.42 228.32 468.34C228.25 468.26 227 467.54 227 467.54Z" fill="#0C9300"/>
<path d="M219.311 463.27L223.191 465.47L223.981 464.89C223.981 464.89 223.491 464.33 223.461 464.28C223.113 463.884 222.705 463.547 222.251 463.28C221.961 463.22 220.121 462.4 220.121 462.4L219.311 463.27Z" fill="#0C9300"/>
<path d="M225.76 461.87V460.51L223.98 459.93L223.6 461L223.69 461.48L225.76 461.87Z" fill="#0C9300"/>
<path d="M213.93 460.89V459.53L216 459.75L215.33 461.07L213.93 460.89Z" fill="#0C9300"/>
<path d="M214 465.49V464.08H216.36L215.79 465.34L214.79 466.47L214 465.49Z" fill="#0C9300"/>
<path d="M225.76 460.51C225.452 460.51 225.144 460.537 224.84 460.59C224.434 460.65 223.974 460.73 223.46 460.83C222.95 460.94 222.46 461.08 221.87 461.24C221.334 461.404 220.809 461.604 220.3 461.84L224.3 464.16L225.02 463.91C226.02 463.57 227.02 463.28 227.91 463.04C228.765 462.816 229.639 462.672 230.52 462.61C231.32 462.562 232.124 462.616 232.91 462.77C233.717 462.945 234.49 463.249 235.2 463.67C235.897 464.021 236.492 464.544 236.93 465.19C237.077 465.421 237.175 465.679 237.218 465.949C237.261 466.219 237.248 466.495 237.18 466.76C237.011 467.351 236.686 467.886 236.24 468.31C235.691 468.866 235.077 469.353 234.41 469.76L236.96 471.23L235.57 472.04L233 470.55C231.772 471.154 230.49 471.639 229.17 472C227.785 472.381 226.37 472.645 224.94 472.79L223.59 470.37C223.968 470.365 224.345 470.338 224.72 470.29C225.22 470.23 225.78 470.13 226.4 470C227.02 469.87 227.67 469.7 228.4 469.5C229.084 469.302 229.752 469.054 230.4 468.76L226.4 466.46L225.88 466.64L225.33 466.81C224.424 467.114 223.503 467.371 222.57 467.58C221.796 467.763 221.005 467.87 220.21 467.9C219.511 467.927 218.811 467.86 218.13 467.7C217.453 467.539 216.803 467.279 216.2 466.93C215.541 466.583 214.97 466.091 214.53 465.49C214.201 465.043 214.038 464.495 214.07 463.94C214.132 463.367 214.362 462.824 214.73 462.38C215.197 461.808 215.746 461.309 216.36 460.9L213.99 459.53L215.39 458.73L217.73 460.08C218.832 459.539 219.989 459.117 221.18 458.82C222.315 458.533 223.467 458.322 224.63 458.19L225.76 460.51ZM218.93 464.73C219.457 465.034 220.066 465.163 220.67 465.1C221.485 465.011 222.287 464.83 223.06 464.56L219.3 462.39C217.92 463.29 217.797 464.07 218.93 464.73ZM232.13 465.83C231.555 465.513 230.89 465.393 230.24 465.49C229.351 465.604 228.474 465.798 227.62 466.07L231.36 468.23C233 467.25 233.21 466.45 232.13 465.83Z" fill="#14FF00"/>
<path opacity="0.4" d="M404.911 494.32C428.996 494.32 448.521 483.047 448.521 469.14C448.521 455.233 428.996 443.96 404.911 443.96C380.826 443.96 361.301 455.233 361.301 469.14C361.301 483.047 380.826 494.32 404.911 494.32Z" fill="#D6D8E5"/>
<path d="M402.91 207.24C404.86 204.11 419.75 202.05 424.65 214.67C426.51 219.45 426.22 231.67 427.77 239.36C429.32 247.05 432.99 251.36 434.3 257.63C435.61 263.9 433.47 274.32 418.45 276.16C403.43 278 391.88 272.73 388.33 267.94C384.78 263.15 384.71 252.94 388.4 247.51C392.09 242.08 394.88 237.6 394.79 230.51L402.91 207.24Z" fill="#3A2C6D"/>
<path d="M385.07 260C385.07 260 381.54 284.9 388.21 302.6C394.88 320.3 393.03 298.04 393.03 298.04L391.43 292.75C391.43 292.75 390.09 272.39 390.64 267.4C391.19 262.41 391.06 258.12 391.43 257.72C391.8 257.32 390.1 256.53 389.43 256.43C388.76 256.33 385.07 260 385.07 260Z" fill="#FFCEA9"/>
<path d="M412.739 205.06C412.739 205.06 401.529 201.83 394.739 207.89C388.529 213.43 389.049 220.97 389.949 224.51C390.849 228.05 392.669 232.88 395.479 233.15C398.289 233.42 412.739 205.06 412.739 205.06Z" fill="#3A2C6D"/>
<path d="M416.999 235.64C416.999 235.64 416.259 248.14 416.489 249.06C416.719 249.98 421.399 250.86 422.709 251.95C424.019 253.04 415.909 265.72 411.789 267.6C407.669 269.48 394.899 264.68 394.019 258.33C393.199 252.48 397.669 247.94 399.389 246.33C400.56 246.227 401.735 246.197 402.909 246.24L403.289 240.18C408.909 238.43 416.999 235.64 416.999 235.64Z" fill="#FFCEA9"/>
<path d="M418.739 250.27C422.249 250.81 426.269 252.69 426.819 254.61C427.459 256.85 428.819 267.42 425.819 275.47C422.819 283.52 420.729 288.63 418.989 292.09C418.989 292.09 403.799 298.61 391.549 291.01C391.549 291.01 390.709 282.39 390.649 277.78C379.349 267.92 389.009 255.78 398.589 246.31C399.736 246.194 400.89 246.177 402.039 246.26C402.039 246.26 393.489 256.37 399.429 262.11C412.139 258.26 414.669 252.55 418.739 250.27Z" fill="#F4F4F4"/>
<path d="M393.68 220.16C394.94 212.16 400.74 206.06 409.02 206.55C412.349 206.734 415.537 207.959 418.132 210.052C420.728 212.146 422.6 215.002 423.484 218.217C424.369 221.432 424.22 224.844 423.06 227.971C421.9 231.097 419.787 233.78 417.02 235.64C416.733 236.857 416.304 238.035 415.74 239.15C412.8 242.57 405.02 244.73 402.45 244.77C400.22 244.77 398.31 242.72 396.22 239.27C391.9 232.08 393 224.12 393.68 220.16Z" fill="#FFCEA9"/>
<path d="M411.59 206.7C417.4 207.83 422.17 209.47 423.75 215.17C424.83 219.1 426.24 226.58 424.9 229.74L424.06 232.02L417.06 235.64C417.06 235.64 413.78 232.91 414.8 224.89C414.757 223.816 414.41 222.776 413.8 221.89C413.346 221.139 413.009 220.323 412.8 219.47C411.973 217.3 410.339 215.533 408.24 214.54C403.01 211.6 395.34 214.14 394.24 215.2C397.81 207.9 404.83 205.38 411.59 206.7Z" fill="#3A2C6D"/>
<path d="M422.14 459.79C419.2 462.18 414.63 460.53 414.41 460.74C411.41 463.74 406.96 466.35 403.64 468.97C401.81 470.41 398.96 472.34 399.47 475.11C400.4 480.06 408.33 478.54 411.32 477.02C414.31 475.5 416.75 473.02 419.58 471.24C421.58 469.98 423.58 469.33 423.9 466.78C424.09 465.24 422.66 459.73 422.14 459.79Z" fill="#38226D"/>
<path d="M423.86 465.76C423.47 468.2 421.51 468.87 419.51 470.11C416.63 471.9 414.1 474.48 411.11 475.99C408.35 477.39 401.45 478.78 399.51 475.25C400.57 480.02 408.36 478.52 411.32 477.02C414.28 475.52 416.75 473.02 419.58 471.24C421.58 469.98 423.58 469.33 423.9 466.78C423.924 466.44 423.91 466.098 423.86 465.76Z" fill="#9C73FF"/>
<path d="M401.519 455.67C398.829 457.86 394.769 456.67 394.569 456.83C391.829 459.58 387.769 461.94 384.729 464.33C383.049 465.65 380.429 467.42 380.899 469.95C381.749 474.49 389.009 473.09 391.749 471.71C394.489 470.33 396.749 468.02 399.319 466.41C401.169 465.26 402.989 464.66 403.319 462.33C403.449 460.92 401.999 455.61 401.519 455.67Z" fill="#38226D"/>
<path d="M403.24 461.39C402.89 463.62 401.09 464.24 399.24 465.39C396.6 467.03 394.24 469.39 391.54 470.77C389.01 472.06 382.7 473.33 380.92 470.09C381.92 474.46 389.02 473.09 391.73 471.72C394.44 470.35 396.73 468.03 399.3 466.42C401.15 465.27 402.97 464.67 403.3 462.34C403.318 462.022 403.298 461.703 403.24 461.39Z" fill="#9C73FF"/>
<path d="M385.68 318.94C386.97 308.81 390.68 294.09 390.68 294.09C394.233 295.755 398.08 296.703 402 296.88C408.54 297.21 419 295.23 419 295.23C420.835 298.424 422.838 301.518 425 304.5C427.92 308.55 433.6 317.44 432.23 332.97C431.33 343.12 425.65 386.21 425.65 386.21C427.858 393.459 429.033 400.983 429.14 408.56C429.08 414.83 427.43 425.48 425.58 435.33L422.19 459.79C422.19 459.79 417.68 463.05 414.46 460.74L414.87 436.81C414.47 430.95 413.87 422.31 413.52 416.81C412.91 407.81 411.3 393.55 410.84 389.98C410.38 386.41 409.23 380.19 408.69 373.21C408.15 366.23 405.51 330.76 405.51 330.76L405.15 337.4C405.15 337.4 404.8 348.19 403.25 361.49C401.7 374.79 401.16 380.7 401.16 380.7C401.16 380.7 403.85 385.65 404.16 389.29C404.43 392.17 407.72 414.92 405.76 426.49L401.76 455.91C400.75 456.608 399.588 457.056 398.371 457.216C397.154 457.376 395.916 457.244 394.76 456.83L392.39 427.18C390.8 415.89 387.39 391.97 386.91 388.86C386.23 384.77 385.67 382.75 384.91 369.86C384.15 356.97 384.38 329.07 385.68 318.94Z" fill="#FFCEA9"/>
<path d="M419 292.09L427.72 309.62C427.72 309.62 441.04 329.11 427.24 379.22L429.83 394.68C429.83 394.68 403.71 411.44 386.23 394.68C386.23 394.68 380.17 348.37 383.39 327.02C385.184 314.739 387.905 302.611 391.53 290.74C391.53 290.74 395.81 295.47 417.84 292.35" fill="#0EAC00"/>
<path d="M364.34 304.54C366.34 304.92 368.25 304.49 371.05 305.25C373.143 305.912 375.325 306.25 377.52 306.25C379.9 306.25 386.58 302.92 392.31 298.9C399.06 294.17 405.76 286 408.18 282.07C413.39 273.59 418.38 264.84 419.92 260.36C421.76 254.98 421.72 258.64 424.92 258.56C428.65 258.47 430.66 259.84 427.86 267.14C425.06 274.44 422.51 279.52 416.27 288.14C411.703 294.609 406.057 300.244 399.58 304.8C393.888 308.786 387.737 312.073 381.26 314.59C379.39 315.36 378.2 316.39 374.81 318.27C371.452 320.195 367.678 321.279 363.81 321.43C360.57 321.35 359.41 320.81 359.14 320.15C358.8 319.32 359.43 318.75 360.91 318.61C363.277 318.575 365.619 318.111 367.82 317.24C367.82 317.24 364.59 317.7 362.64 317.8C360.9 317.894 359.154 317.757 357.45 317.39C355.81 317 354.89 314.68 356.38 314.5C357.87 314.32 359.07 314.6 361.97 314.41C363.504 314.313 365.022 314.035 366.49 313.58C364.552 313.597 362.616 313.457 360.7 313.16C359.142 313.013 357.659 312.419 356.43 311.45C355.8 310.93 355.69 309.45 357.57 309.45C359.26 309.45 361.38 310.23 364.57 309.79C366.92 309.46 368.57 308.91 368.17 308.6C367.77 308.29 366.44 308.6 364.5 307.89C362.56 307.18 361.2 305.48 361.65 304.46C362.1 303.44 362.32 304.17 364.34 304.54Z" fill="#FFCEA9"/>
<path d="M426.131 274.06C426.131 274.06 417.581 274.51 412.721 269.15L417.991 258.15C417.991 258.15 420.421 252.06 426.121 253.56C431.821 255.06 431.911 263.08 426.131 274.06Z" fill="#EDEDED"/>
<path d="M398.58 246.31C398.58 246.31 391.64 244.19 384.27 259.56L387.03 261.22C387.03 261.22 394.28 250.25 398.58 246.31Z" fill="#EDEDED"/>
<path opacity="0.4" d="M195.1 339L81.5001 273.42C80.5304 272.86 79.7251 272.055 79.1652 271.085C78.6053 270.115 78.3105 269.015 78.3105 267.895C78.3105 266.775 78.6053 265.675 79.1652 264.705C79.7251 263.735 80.5304 262.93 81.5001 262.37C82.47 261.81 83.5702 261.515 84.6901 261.515C85.8101 261.515 86.9102 261.81 87.8801 262.37L201.48 328C202.509 328.595 203.352 329.465 203.913 330.513C204.474 331.561 204.731 332.745 204.655 333.932C204.579 335.118 204.173 336.259 203.483 337.227C202.794 338.195 201.847 338.951 200.75 339.41C199.841 339.783 198.857 339.94 197.877 339.869C196.897 339.798 195.946 339.5 195.1 339Z" fill="#D6D8E5"/>
<path d="M146.05 299.33C105.39 275.86 72.3203 218.57 72.3203 171.63C72.3203 124.69 105.39 105.63 146.05 129.07C186.71 152.51 219.78 209.82 219.78 256.77C219.78 303.72 186.7 322.8 146.05 299.33ZM146.05 144.33C112.67 125.06 85.5103 140.74 85.5103 179.28C85.5103 217.82 112.67 264.85 146.05 284.12C179.43 303.39 206.58 287.72 206.58 249.18C206.58 210.64 179.43 163.57 146.05 144.3V144.33Z" fill="#0EAC00"/>
<path d="M83.8203 129.6L97.3303 122.22L95.3103 131.48L83.8203 129.6Z" fill="#0EAC00"/>
<path d="M185.619 311.28C185.949 311.13 200.389 303.05 200.389 303.05L189.229 301.26L185.619 311.28Z" fill="#0EAC00"/>
<path d="M184.104 301.644C210.319 286.508 210.318 237.427 184.101 192.018C157.884 146.609 115.379 122.068 89.1641 137.203C62.9489 152.338 62.9503 201.419 89.1673 246.828C115.384 292.237 157.889 316.779 184.104 301.644Z" fill="#F4F4F4"/>
<path d="M136.64 304.56C96.0002 281.08 62.9102 223.8 62.9102 176.85C62.9102 129.9 95.9902 110.85 136.64 134.29C177.29 157.73 210.37 215.05 210.37 261.99C210.37 308.93 177.3 328 136.64 304.56ZM136.64 149.56C103.27 130.29 76.1102 145.96 76.1102 184.5C76.1102 223.04 103.27 270.08 136.64 289.35C170.01 308.62 197.18 292.94 197.18 254.4C197.18 215.86 170 168.8 136.64 149.53V149.56Z" fill="#76D36E"/>
<path d="M136.64 272.16C111.46 257.62 91 222.13 91 193.05C91 163.97 111.49 152.14 136.67 166.68C161.85 181.22 182.35 216.68 182.35 245.79C182.35 274.9 161.83 286.71 136.64 272.16ZM136.64 181.92C118.73 171.58 104.16 179.99 104.16 200.67C104.16 221.35 118.73 246.59 136.64 256.93C154.55 267.27 169.12 258.85 169.12 238.17C169.12 217.49 154.55 192.26 136.64 181.92Z" fill="#0C9300"/>
<path d="M136.64 240.28C126.64 234.53 118.58 220.49 118.58 208.99C118.58 197.49 126.68 192.81 136.64 198.56C146.6 204.31 154.71 218.35 154.71 229.85C154.71 241.35 146.61 246 136.64 240.28ZM136.64 213.8C133.96 212.25 131.77 213.51 131.77 216.61C131.864 218.298 132.354 219.941 133.2 221.405C134.046 222.87 135.224 224.115 136.64 225.04C139.33 226.59 141.51 225.33 141.51 222.23C141.418 220.541 140.929 218.897 140.083 217.433C139.237 215.968 138.057 214.723 136.64 213.8Z" fill="#76D36E"/>
<path d="M11.0198 290.9L4.25977 290.99L26.2198 281.67L13.4898 289.58L11.0198 290.9Z" fill="#0EAC00"/>
<path d="M13.9619 294.021C14.6363 293.632 14.6368 292.37 13.963 291.203C13.2892 290.036 12.1963 289.405 11.5219 289.795C10.8475 290.184 10.847 291.446 11.5208 292.613C12.1946 293.78 13.2875 294.41 13.9619 294.021Z" fill="#E8A30A"/>
<path d="M138.177 222.155C138.851 221.765 138.852 220.504 138.178 219.337C137.504 218.169 136.411 217.539 135.737 217.928C135.062 218.318 135.062 219.579 135.736 220.747C136.409 221.914 137.502 222.544 138.177 222.155Z" fill="#E8A30A"/>
<path d="M15.6393 300.69L14.0293 293.96L31.6893 282.7L30.9193 284.29L15.6393 300.69Z" fill="#0EAC00"/>
<path d="M14.0002 294C14.1502 293.87 138.15 222.19 138.15 222.19L135.87 217.89L11.4902 289.89L14.0002 294Z" fill="#E8A30A"/>
</g>
<defs>
<clipPath id="clip0">
<rect width="448.52" height="500" fill="white"/>
</clipPath>
</defs>
</svg>
