<svg width="467" height="557" viewBox="0 0 467 557" fill="none" xmlns="http://www.w3.org/2000/svg">
<g clip-path="url(#clip0)">
<path opacity="0.3" d="M65.8237 487.743L233.444 388.251L209.105 374.204L41.4842 473.706L65.8237 487.743Z" fill="#D6D8E5"/>
<path d="M66.1357 463.101L188.357 392.63C198.708 386.659 207.108 370.65 207.108 356.859V16.3984C207.097 2.61823 198.708 -3.72043 188.357 2.22833L66.1357 72.7222C55.7841 78.6821 47.3958 94.7015 47.3958 108.482V448.942C47.3958 462.734 55.7841 469.072 66.1357 463.101Z" fill="#B1B4C4"/>
<path d="M64.0493 469.24L54.356 464.349L63.6477 448.452L64.0493 469.24Z" fill="#B1B4C4"/>
<path d="M209.004 5.64825L200.091 0.980591L201.887 14.0924L209.004 5.64825Z" fill="#B1B4C4"/>
<path d="M73.9329 466.989L196.154 396.584C206.506 390.613 214.894 374.594 214.894 360.814V20.2863C214.894 6.50611 206.506 0.167454 196.154 6.13849L73.9329 76.6101C63.5814 82.5812 55.1932 98.5893 55.1932 112.381V452.841C55.1932 466.633 63.5814 472.96 73.9329 466.989Z" fill="#616E84"/>
<path d="M56.5092 113.249V453.699C56.5092 467.501 64.8974 473.818 75.2489 467.858L123.214 440.231L138.105 431.631L197.493 397.397C207.844 391.415 216.232 375.407 216.232 361.616V21.1661C216.232 7.36368 207.844 1.03616 197.493 6.99606L75.2267 77.4677C64.8751 83.4499 56.5092 99.4469 56.5092 113.249Z" fill="#20232D"/>
<path d="M65.3101 109.796V441.378C65.3101 449.733 71.1663 453.131 78.4168 448.942L116.633 426.907L119.979 424.969L121.094 424.312L129.349 419.555L153.253 405.786L163.159 400.071L167.152 397.765L194.269 382.102C201.508 377.925 207.387 367.765 207.387 359.41V27.8503C207.387 19.4953 201.508 16.1198 194.269 20.2862L146.561 47.802V47.9023C146.561 54.3969 141.976 62.3063 136.343 65.5592C130.71 68.812 126.125 66.183 126.125 59.6772C126.125 59.6772 126.125 59.5658 126.125 59.5213L78.4057 87.0482C71.1663 91.2591 65.3101 101.43 65.3101 109.796Z" fill="#2B303F"/>
<path d="M85.333 187.754L186.896 129.224C188.053 128.394 189 127.304 189.661 126.043C190.321 124.782 190.677 123.384 190.7 121.961V51.4337C190.7 48.6264 188.993 47.3453 186.896 48.5596L85.333 107.111C84.1756 107.942 83.2289 109.031 82.5684 110.292C81.9079 111.554 81.5521 112.952 81.5292 114.375V184.924C81.5292 187.676 83.2805 188.968 85.333 187.754Z" fill="#353C4C"/>
<path d="M83.0574 220.038L189.183 158.846C189.643 158.516 190.02 158.083 190.283 157.582C190.547 157.081 190.689 156.526 190.7 155.96V146.213C190.7 145.099 190.019 144.575 189.183 145.099L83.0574 206.291C82.5913 206.621 82.2099 207.056 81.9443 207.562C81.6787 208.067 81.5365 208.628 81.5292 209.198V218.946C81.5292 220.015 82.165 220.572 83.0574 220.038Z" fill="#353C4C"/>
<path d="M99.1759 233.662L189.183 181.772C189.644 181.438 190.022 181.002 190.285 180.497C190.548 179.992 190.69 179.433 190.7 178.864V169.106C190.7 167.992 190.019 167.479 189.183 167.992L99.1759 219.893C98.7098 220.223 98.3283 220.658 98.0628 221.164C97.7972 221.669 97.655 222.23 97.6477 222.8V232.548C97.6477 233.628 98.3282 234.152 99.1759 233.662Z" fill="#353C4C"/>
<path d="M113.398 248.344L189.127 204.687C189.59 204.355 189.969 203.919 190.233 203.414C190.496 202.909 190.637 202.349 190.644 201.779V192.032C190.644 190.918 189.964 190.394 189.127 190.918L113.398 234.542C112.935 234.874 112.556 235.31 112.292 235.815C112.029 236.32 111.888 236.88 111.881 237.449V247.197C111.937 248.322 112.617 248.834 113.398 248.344Z" fill="#353C4C"/>
<path d="M84.8311 379.874L190.956 318.682C191.422 318.352 191.803 317.916 192.068 317.411C192.334 316.906 192.476 316.345 192.484 315.775V306.027C192.484 304.913 191.804 304.39 190.956 304.913L84.8311 366.105C84.3662 366.437 83.9857 366.872 83.7203 367.377C83.4549 367.882 83.3119 368.443 83.3029 369.013V378.76C83.2805 379.874 83.9833 380.365 84.8311 379.874Z" fill="#353C4C"/>
<path d="M100.949 393.499L190.956 341.597C191.421 341.269 191.802 340.836 192.068 340.332C192.334 339.829 192.476 339.27 192.484 338.701V328.942C192.484 327.828 191.804 327.305 190.956 327.828L100.949 379.718C100.488 380.052 100.111 380.489 99.8473 380.993C99.584 381.498 99.442 382.057 99.4325 382.626V392.385C99.4325 393.465 100.113 393.989 100.949 393.499Z" fill="#353C4C"/>
<path d="M115.239 408.181L190.956 364.523C191.422 364.192 191.803 363.757 192.068 363.252C192.334 362.746 192.476 362.186 192.484 361.615V351.868C192.484 350.754 191.804 350.23 190.956 350.754L115.239 394.356C114.772 394.686 114.391 395.121 114.125 395.627C113.86 396.132 113.718 396.693 113.71 397.263V407.011C113.71 408.158 114.391 408.671 115.239 408.181Z" fill="#353C4C"/>
<path d="M65.3101 118.151V199.005L69.2031 196.855C70.3624 196.021 71.3108 194.928 71.973 193.663C72.6353 192.398 72.9931 190.997 73.0181 189.57V119.087C73.0181 116.28 71.3002 114.988 69.2031 116.213L65.3101 118.151Z" fill="#353C4C"/>
<path d="M182.322 291.4L189.941 287.011C190.411 286.676 190.795 286.235 191.062 285.724C191.329 285.213 191.473 284.647 191.48 284.07V247.609C191.48 246.495 190.789 245.972 189.952 246.495L182.334 250.951C181.872 251.282 181.494 251.716 181.23 252.219C180.967 252.722 180.825 253.28 180.817 253.848V290.353C180.805 291.367 181.441 291.868 182.322 291.4Z" fill="#353C4C"/>
<path d="M165.825 300.936L173.443 296.547C173.907 296.215 174.286 295.779 174.549 295.274C174.813 294.769 174.954 294.209 174.96 293.64V248.422C174.96 247.308 174.28 246.785 173.443 247.308L165.825 251.698C165.361 252.03 164.982 252.466 164.716 252.971C164.451 253.476 164.307 254.035 164.297 254.605V299.811C164.252 300.914 164.944 301.427 165.825 300.936Z" fill="#353C4C"/>
<path d="M149.238 310.483L156.901 306.083C157.363 305.752 157.741 305.318 158.004 304.815C158.268 304.312 158.409 303.754 158.418 303.187V271.148C158.418 270.034 157.738 269.51 156.901 270.034L149.282 274.423C148.817 274.754 148.436 275.189 148.17 275.694C147.905 276.2 147.762 276.76 147.754 277.331V309.358C147.71 310.45 148.39 310.962 149.238 310.483Z" fill="#353C4C"/>
<path d="M132.684 320.019L140.303 315.63C140.768 315.299 141.148 314.863 141.414 314.358C141.679 313.853 141.822 313.293 141.831 312.722V259.172C141.831 258.058 141.151 257.535 140.303 258.058L132.684 262.459C132.221 262.791 131.842 263.227 131.578 263.732C131.315 264.237 131.174 264.797 131.167 265.366V318.916C131.167 319.986 131.848 320.509 132.684 320.019Z" fill="#353C4C"/>
<path d="M116.143 329.555L123.761 325.166C124.226 324.834 124.607 324.399 124.872 323.894C125.138 323.389 125.281 322.828 125.29 322.258V277.052C125.29 275.938 124.598 275.414 123.761 275.938L116.143 280.327C115.681 280.66 115.303 281.097 115.039 281.601C114.776 282.106 114.634 282.665 114.626 283.235V328.407C114.626 329.532 115.306 330.045 116.143 329.555Z" fill="#353C4C"/>
<path d="M83.0572 348.682L90.6647 344.226C91.1302 343.896 91.5111 343.46 91.7766 342.955C92.0422 342.45 92.1847 341.889 92.1929 341.319V296.135C92.1929 295.021 91.5124 294.497 90.6647 295.021L83.0572 299.41C82.5911 299.74 82.2097 300.176 81.9441 300.681C81.6785 301.186 81.5363 301.747 81.529 302.318V347.524C81.529 348.615 82.1648 349.128 83.0572 348.682Z" fill="#353C4C"/>
<path d="M99.5997 339.102L107.218 334.713C107.68 334.379 108.057 333.943 108.321 333.438C108.584 332.933 108.726 332.375 108.735 331.806V269.901C108.735 268.787 108.055 268.274 107.218 268.787L99.5997 273.176C99.1348 273.507 98.7543 273.943 98.4889 274.448C98.2235 274.953 98.0805 275.513 98.0715 276.083V337.988C98.0715 339.069 98.7519 339.581 99.5997 339.102Z" fill="#353C4C"/>
<path d="M133.598 62.1834C132.083 61.3098 132.081 58.4808 133.593 55.8646C135.106 53.2485 137.56 51.8359 139.075 52.7096C140.591 53.5832 140.593 56.4122 139.08 59.0284C137.568 61.6445 135.114 63.0571 133.598 62.1834Z" fill="#2B303F"/>
<path opacity="0.1" d="M136.343 59.3094C136.81 58.9985 137.197 58.5826 137.474 58.0951C137.751 57.6076 137.91 57.062 137.938 56.5021C137.938 55.4661 137.202 55.0539 136.309 55.5664C135.837 55.8749 135.444 56.2895 135.162 56.777C134.879 57.2644 134.714 57.8113 134.681 58.3737C134.714 59.4097 135.451 59.833 136.343 59.3094Z" fill="white"/>
<path d="M51.5348 158.043C52.5275 158.623 53.3418 158.043 53.3418 156.684V142.202C53.3297 141.528 53.1601 140.865 52.8464 140.267C52.5326 139.67 52.0835 139.154 51.5348 138.76C50.542 138.192 49.7277 138.76 49.7277 140.13V154.612C49.7415 155.285 49.912 155.945 50.2256 156.541C50.5393 157.136 50.9875 157.651 51.5348 158.043Z" fill="#757B89"/>
<path d="M51.5348 181.827C52.5275 182.407 53.3418 181.827 53.3418 180.468V165.986C53.3297 165.312 53.1601 164.649 52.8464 164.052C52.5326 163.454 52.0835 162.938 51.5348 162.544C50.542 161.976 49.7277 162.544 49.7277 163.914V178.396C49.7415 179.069 49.912 179.729 50.2256 180.325C50.5393 180.92 50.9875 181.435 51.5348 181.827Z" fill="#757B89"/>
<path opacity="0.3" d="M303.049 349.317C272.967 349.317 248.581 335.257 248.581 317.914C248.581 300.57 272.967 286.51 303.049 286.51C333.131 286.51 357.517 300.57 357.517 317.914C357.517 335.257 333.131 349.317 303.049 349.317Z" fill="#D6D8E5"/>
<path d="M297.605 341.129C267.523 341.129 243.137 327.069 243.137 309.726C243.137 292.382 267.523 278.322 297.605 278.322C327.687 278.322 352.073 292.382 352.073 309.726C352.073 327.069 327.687 341.129 297.605 341.129Z" fill="#0C9300"/>
<path d="M352.062 310.204V295.901L341.298 305.47L352.062 310.204Z" fill="#0C9300"/>
<path d="M243.137 296.269V309.726L248.636 315.563L251.335 300.157L243.137 296.269Z" fill="#0C9300"/>
<path d="M297.605 327.672C267.523 327.672 243.137 313.612 243.137 296.269C243.137 278.925 267.523 264.865 297.605 264.865C327.687 264.865 352.073 278.925 352.073 296.269C352.073 313.612 327.687 327.672 297.605 327.672Z" fill="#76D36E"/>
<path d="M258.676 297.249C259.233 302.529 263.004 307.743 270.031 311.798C285.257 320.576 309.954 320.576 325.18 311.798C332.196 307.743 335.977 302.529 336.513 297.249C337.171 291.055 333.389 284.728 325.18 280.004C309.954 271.215 285.257 271.215 270.031 280.004C261.821 284.728 258.029 291.055 258.676 297.249Z" fill="#0C9300"/>
<path d="M258.676 297.249C259.233 302.53 263.004 307.743 270.031 311.798C285.257 320.576 309.954 320.576 325.18 311.798C332.196 307.743 335.977 302.53 336.513 297.249C335.977 291.958 332.196 286.744 325.18 282.689C309.954 273.9 285.257 273.9 270.031 282.689C263.004 286.744 259.233 291.958 258.676 297.249Z" fill="#0C9300"/>
<path d="M298.174 289.885C298.652 289.884 299.129 289.922 299.601 289.997C300.248 290.097 300.962 290.22 301.754 290.387C302.546 290.554 303.383 290.765 304.242 291.022C305.079 291.27 305.896 291.582 306.685 291.957L300.416 295.567L299.3 295.166C297.705 294.642 296.199 294.185 294.838 293.818C293.51 293.464 292.15 293.24 290.778 293.149C289.53 293.07 288.278 293.156 287.052 293.406C285.796 293.672 284.591 294.139 283.483 294.787C282.396 295.336 281.467 296.153 280.784 297.16C280.557 297.519 280.406 297.921 280.339 298.34C280.272 298.759 280.29 299.187 280.393 299.599C280.657 300.52 281.161 301.355 281.854 302.017C282.718 302.87 283.681 303.618 284.721 304.245L280.739 306.54L282.903 307.798L286.919 305.481C288.836 306.413 290.838 307.159 292.897 307.709C295.056 308.308 297.261 308.721 299.49 308.946L301.542 305.236C300.957 305.222 300.372 305.177 299.791 305.103C298.906 304.999 298.028 304.85 297.159 304.657C296.199 304.445 295.173 304.189 294.102 303.877C293.057 303.583 292.035 303.211 291.046 302.763L297.27 299.165L298.084 299.455L298.932 299.711C300.505 300.223 301.944 300.624 303.249 300.925C304.454 301.205 305.683 301.369 306.919 301.415C308.006 301.455 309.093 301.354 310.154 301.114C311.21 300.855 312.224 300.446 313.165 299.9C314.192 299.362 315.084 298.601 315.776 297.672C316.274 296.972 316.522 296.124 316.478 295.266C316.386 294.37 316.025 293.524 315.441 292.837C314.724 291.941 313.869 291.162 312.909 290.531L316.601 288.404L314.426 287.156L310.778 289.262C309.061 288.416 307.259 287.755 305.402 287.29C303.635 286.841 301.838 286.517 300.025 286.321L298.174 289.885ZM308.815 296.447C307.993 296.915 307.046 297.117 306.105 297.026C304.837 296.877 303.589 296.597 302.379 296.191L308.235 292.849C310.388 294.219 310.578 295.422 308.815 296.447ZM288.257 298.151C289.153 297.666 290.182 297.483 291.191 297.628C292.557 297.821 293.904 298.13 295.218 298.552L289.395 301.894C286.963 300.368 286.562 299.132 288.257 298.151Z" fill="#0C9300"/>
<path d="M301.542 305.236C301.542 305.092 301.542 303.131 301.542 303.131L299.155 304.668L300.193 306.261L301.542 305.236Z" fill="#0C9300"/>
<path d="M280.683 306.562V304.456L285.87 304.846L282.892 306.874L280.683 306.562Z" fill="#0C9300"/>
<path d="M280.249 298.819V296.692L284.13 298.095L280.249 298.819Z" fill="#0C9300"/>
<path d="M296.333 298.708L295.051 297.472L290.5 300.613L290.778 301.538C290.778 301.538 294.181 300.112 294.292 300.034C294.404 299.956 296.333 298.708 296.333 298.708Z" fill="#0C9300"/>
<path d="M308.224 292.069L302.178 295.477L300.951 294.586C300.951 294.586 301.71 293.717 301.766 293.639C302.302 293.019 302.935 292.489 303.64 292.069C304.097 291.979 306.986 290.698 306.986 290.698L308.224 292.069Z" fill="#0C9300"/>
<path d="M298.174 289.885V287.78L300.951 286.878L301.542 288.526L301.397 289.284L298.174 289.885Z" fill="#0C9300"/>
<path d="M316.601 288.359V286.254L313.389 286.599L314.426 288.649L316.601 288.359Z" fill="#0C9300"/>
<path d="M316.49 295.523V293.295H312.809L313.712 295.255L315.296 297.049L316.49 295.523Z" fill="#0C9300"/>
<path d="M298.174 287.78C298.652 287.779 299.129 287.816 299.601 287.891C300.248 287.981 300.962 288.114 301.754 288.281C302.546 288.448 303.383 288.66 304.242 288.916C305.077 289.165 305.894 289.474 306.685 289.841L300.416 293.45L299.3 293.06C297.705 292.526 296.199 292.08 294.838 291.712C293.51 291.359 292.15 291.135 290.778 291.044C289.531 290.967 288.279 291.049 287.052 291.289C285.796 291.56 284.591 292.03 283.483 292.682C282.396 293.231 281.467 294.047 280.784 295.054C280.557 295.414 280.406 295.815 280.339 296.234C280.272 296.654 280.29 297.082 280.393 297.494C280.657 298.412 281.162 299.242 281.854 299.9C282.716 300.757 283.678 301.505 284.721 302.128L280.717 304.457L282.881 305.704L286.896 303.387C288.812 304.323 290.814 305.069 292.875 305.615C295.034 306.21 297.239 306.62 299.468 306.841L301.565 303.086C300.979 303.072 300.394 303.028 299.813 302.953C299.021 302.864 298.151 302.708 297.181 302.507C296.21 302.307 295.195 302.028 294.125 301.716C293.079 301.422 292.057 301.05 291.068 300.602L297.292 297.015L298.107 297.294L298.954 297.561C300.524 298.073 301.962 298.474 303.271 298.764C304.475 299.049 305.705 299.213 306.941 299.254C308.028 299.294 309.115 299.193 310.176 298.953C311.236 298.703 312.251 298.294 313.188 297.739C314.214 297.202 315.106 296.44 315.798 295.511C316.296 294.811 316.544 293.963 316.501 293.105C316.407 292.206 316.045 291.357 315.463 290.665C314.742 289.775 313.888 289.001 312.931 288.37L316.601 286.298L314.426 285.04L310.778 287.156C309.061 286.31 307.259 285.649 305.402 285.184C303.635 284.736 301.838 284.412 300.025 284.215L298.174 287.78ZM308.815 294.33C307.997 294.81 307.048 295.017 306.105 294.921C304.837 294.771 303.589 294.491 302.379 294.085L308.235 290.743C310.384 292.117 310.578 293.313 308.815 294.33ZM288.257 296.046C289.151 295.556 290.182 295.372 291.191 295.522C292.576 295.7 293.943 296.002 295.273 296.425L289.451 299.767C286.96 298.259 286.562 297.019 288.257 296.046Z" fill="#14FF00"/>
<path d="M297.605 323.517C267.523 323.517 243.137 309.457 243.137 292.114C243.137 274.77 267.523 260.71 297.605 260.71C327.687 260.71 352.073 274.77 352.073 292.114C352.073 309.457 327.687 323.517 297.605 323.517Z" fill="#0C9300"/>
<path d="M352.062 292.582V278.278L341.298 287.847L352.062 292.582Z" fill="#0C9300"/>
<path d="M243.137 278.657V292.114L248.636 297.94L251.335 282.533L243.137 278.657Z" fill="#0C9300"/>
<path d="M297.605 310.06C267.523 310.06 243.137 296 243.137 278.657C243.137 261.313 267.523 247.253 297.605 247.253C327.687 247.253 352.073 261.313 352.073 278.657C352.073 296 327.687 310.06 297.605 310.06Z" fill="#76D36E"/>
<path d="M258.676 279.615C259.233 284.906 263.004 290.109 270.031 294.164C285.257 302.942 309.954 302.942 325.18 294.164C332.196 290.109 335.977 284.906 336.513 279.615C337.171 273.421 333.389 267.093 325.18 262.37C309.954 253.581 285.257 253.581 270.031 262.37C261.821 267.105 258.029 273.432 258.676 279.615Z" fill="#0C9300"/>
<path d="M258.676 279.615C259.233 284.906 263.004 290.109 270.031 294.163C285.257 302.942 309.954 302.942 325.18 294.163C332.196 290.109 335.977 284.906 336.513 279.615C335.977 274.323 332.196 269.121 325.18 265.066C309.954 256.276 285.257 256.276 270.031 265.066C263.004 269.132 259.233 274.334 258.676 279.615Z" fill="#0C9300"/>
<path d="M298.174 272.262C298.652 272.266 299.129 272.307 299.601 272.385C300.248 272.474 300.962 272.597 301.754 272.764C302.546 272.931 303.383 273.154 304.242 273.41C305.079 273.654 305.896 273.963 306.685 274.334L300.416 277.944L299.3 277.554C297.705 277.019 296.199 276.574 294.838 276.206C293.51 275.852 292.15 275.628 290.778 275.538C289.531 275.455 288.278 275.537 287.052 275.783C285.796 276.053 284.591 276.523 283.483 277.175C282.397 277.721 281.468 278.533 280.784 279.537C280.558 279.898 280.407 280.302 280.34 280.723C280.273 281.144 280.291 281.574 280.393 281.988C280.657 282.905 281.162 283.736 281.854 284.394C282.719 285.247 283.681 285.995 284.721 286.622L280.739 288.917L282.903 290.164L286.919 287.847C288.836 288.778 290.838 289.524 292.897 290.075C295.057 290.665 297.262 291.075 299.49 291.301L301.587 287.546C301.001 287.532 300.417 287.488 299.836 287.413C299.044 287.312 298.174 287.168 297.203 286.956C296.233 286.744 295.218 286.488 294.147 286.176C293.101 285.882 292.08 285.51 291.09 285.062L297.315 281.475L298.129 281.754L298.977 282.01C300.394 282.488 301.835 282.893 303.294 283.224C304.499 283.504 305.727 283.668 306.963 283.714C308.05 283.754 309.138 283.653 310.198 283.414C311.256 283.159 312.271 282.749 313.21 282.199C314.237 281.662 315.129 280.9 315.82 279.971C316.317 279.266 316.565 278.415 316.523 277.554C316.431 276.658 316.069 275.812 315.486 275.125C314.768 274.232 313.913 273.458 312.954 272.831L316.601 270.703L314.426 269.444L310.778 271.549C309.061 270.704 307.259 270.043 305.402 269.578C303.633 269.135 301.837 268.811 300.025 268.608L298.174 272.262ZM308.815 278.824C307.996 279.299 307.047 279.502 306.105 279.403C304.835 279.265 303.586 278.984 302.379 278.568L308.235 275.226C310.384 276.607 310.578 277.806 308.815 278.824ZM288.257 280.539C289.15 280.044 290.182 279.86 291.191 280.016C292.575 280.194 293.941 280.492 295.273 280.907L289.451 284.249C286.96 282.749 286.562 281.512 288.257 280.539Z" fill="#0C9300"/>
<path d="M301.542 287.613C301.542 287.457 301.542 285.497 301.542 285.497L299.155 287.034L300.193 288.638L301.542 287.613Z" fill="#0C9300"/>
<path d="M280.683 288.95V286.833L285.87 287.234L282.892 289.262L280.683 288.95Z" fill="#0C9300"/>
<path d="M280.249 281.208V279.069L284.13 280.473L280.249 281.208Z" fill="#0C9300"/>
<path d="M296.333 281.096L295.051 279.86L290.5 283.001L290.778 283.926C290.778 283.926 294.181 282.489 294.292 282.411C294.404 282.333 296.333 281.096 296.333 281.096Z" fill="#0C9300"/>
<path d="M308.224 274.446L302.178 277.866L300.951 276.975C300.951 276.975 301.71 276.106 301.766 276.017C302.305 275.399 302.937 274.869 303.64 274.446C304.097 274.357 306.986 273.076 306.986 273.076L308.224 274.446Z" fill="#0C9300"/>
<path d="M298.174 272.273V270.157L300.951 269.254L301.542 270.914L301.397 271.672L298.174 272.273Z" fill="#0C9300"/>
<path d="M316.601 270.747V268.63L313.389 268.976L314.426 271.025L316.601 270.747Z" fill="#0C9300"/>
<path d="M316.49 277.899V275.671H312.809L313.712 277.632L315.296 279.425L316.49 277.899Z" fill="#0C9300"/>
<path d="M298.174 270.157C298.652 270.156 299.13 270.193 299.602 270.269C300.249 270.369 300.963 270.491 301.755 270.659C302.547 270.826 303.383 271.037 304.242 271.294C305.08 271.542 305.897 271.854 306.685 272.229L300.416 275.839L299.301 275.438C297.706 274.914 296.2 274.457 294.839 274.09C293.51 273.736 292.151 273.512 290.779 273.421C289.531 273.342 288.278 273.428 287.053 273.677C285.797 273.944 284.592 274.41 283.484 275.059C282.377 275.586 281.425 276.388 280.717 277.387C280.491 277.747 280.34 278.148 280.273 278.567C280.206 278.986 280.224 279.415 280.327 279.827C280.596 280.769 281.117 281.62 281.833 282.289C282.694 283.145 283.657 283.893 284.699 284.517L280.717 286.812L282.881 288.07L286.897 285.753C288.814 286.684 290.816 287.431 292.876 287.981C295.034 288.58 297.24 288.993 299.468 289.218L301.565 285.452C300.98 285.438 300.395 285.394 299.814 285.319C298.929 285.215 298.051 285.067 297.181 284.873C296.222 284.662 295.196 284.405 294.125 284.093C293.08 283.799 292.058 283.427 291.069 282.979L297.293 279.381L298.107 279.671L298.955 279.927C300.528 280.439 301.967 280.841 303.272 281.141C304.477 281.421 305.706 281.585 306.942 281.631C308.029 281.671 309.116 281.57 310.177 281.331C311.233 281.071 312.247 280.662 313.188 280.116C314.215 279.579 315.107 278.817 315.799 277.888C316.297 277.188 316.545 276.34 316.501 275.482C316.409 274.587 316.047 273.74 315.464 273.054C314.747 272.157 313.892 271.379 312.932 270.748L316.624 268.62L314.449 267.372L310.801 269.478C309.084 268.632 307.282 267.971 305.425 267.506C303.658 267.058 301.861 266.734 300.048 266.537L298.174 270.157ZM308.816 276.719C307.994 277.187 307.047 277.389 306.105 277.298C304.837 277.154 303.588 276.874 302.38 276.462L308.236 273.12C310.389 274.491 310.578 275.694 308.816 276.719ZM288.258 278.423C289.154 277.938 290.183 277.755 291.191 277.9C292.576 278.082 293.942 278.384 295.274 278.802L289.451 282.144C286.964 280.64 286.562 279.403 288.258 278.423Z" fill="#14FF00"/>
<path d="M294.081 303.543C263.999 303.543 239.613 289.483 239.613 272.14C239.613 254.796 263.999 240.736 294.081 240.736C324.163 240.736 348.549 254.796 348.549 272.14C348.549 289.483 324.163 303.543 294.081 303.543Z" fill="#0C9300"/>
<path d="M348.526 272.619V258.304L337.773 267.885L348.526 272.619Z" fill="#0C9300"/>
<path d="M239.613 258.683V272.14L245.112 277.977L247.812 262.571L239.613 258.683Z" fill="#0C9300"/>
<path d="M294.081 290.086C263.999 290.086 239.613 276.027 239.613 258.683C239.613 241.339 263.999 227.279 294.081 227.279C324.163 227.279 348.549 241.339 348.549 258.683C348.549 276.027 324.163 290.086 294.081 290.086Z" fill="#76D36E"/>
<path d="M255.152 259.652C255.709 264.943 259.48 270.157 266.496 274.212C281.733 282.979 306.418 282.979 321.655 274.212C328.672 270.157 332.442 264.943 332.989 259.652C333.647 253.469 329.854 247.142 321.655 242.418C306.418 233.629 281.733 233.629 266.496 242.418C258.297 247.142 254.505 253.469 255.152 259.652Z" fill="#0C9300"/>
<path d="M255.151 259.652C255.709 264.944 259.479 270.157 266.496 274.212C281.733 282.979 306.418 282.979 321.655 274.212C328.671 270.157 332.442 264.944 332.988 259.652C332.442 254.372 328.671 249.158 321.655 245.103C306.418 236.314 281.733 236.314 266.496 245.103C259.524 249.158 255.709 254.372 255.151 259.652Z" fill="#0C9300"/>
<path d="M294.65 252.299C295.128 252.298 295.605 252.335 296.077 252.411C296.713 252.5 297.438 252.634 298.23 252.801C299.022 252.968 299.859 253.179 300.707 253.436C301.545 253.687 302.365 253.996 303.161 254.36L296.892 257.981L295.776 257.58C294.192 257.056 292.686 256.599 291.314 256.232C289.99 255.877 288.634 255.654 287.265 255.563C286.014 255.485 284.757 255.571 283.528 255.82C282.276 256.086 281.074 256.553 279.97 257.201C278.883 257.75 277.954 258.567 277.271 259.574C277.046 259.934 276.894 260.335 276.825 260.753C276.756 261.172 276.771 261.6 276.869 262.013C277.143 262.932 277.651 263.765 278.342 264.431C279.204 265.282 280.162 266.029 281.197 266.659L277.215 268.954L279.39 270.213L283.406 267.895C285.323 268.827 287.325 269.573 289.385 270.123C291.539 270.723 293.741 271.136 295.966 271.36L298.074 267.595C297.485 267.58 296.896 267.536 296.312 267.461C295.431 267.357 294.556 267.208 293.69 267.015C292.72 266.804 291.705 266.547 290.634 266.236C289.587 265.936 288.562 265.564 287.566 265.122L293.802 261.534L294.616 261.813L295.464 262.08C297.037 262.593 298.465 262.994 299.77 263.283C300.978 263.566 302.211 263.733 303.451 263.785C304.538 263.824 305.626 263.72 306.685 263.473C307.743 263.222 308.758 262.817 309.697 262.27C310.72 261.731 311.608 260.97 312.296 260.042C312.805 259.346 313.053 258.495 312.999 257.635C312.907 256.738 312.55 255.889 311.973 255.196C311.237 254.293 310.363 253.511 309.385 252.879L313.066 250.773L310.891 249.526L307.232 251.631C305.516 250.782 303.714 250.121 301.856 249.659C300.089 249.209 298.292 248.885 296.479 248.69L294.65 252.299ZM305.258 258.85C304.438 259.325 303.49 259.531 302.547 259.44C301.276 259.291 300.024 259.011 298.81 258.605L304.678 255.263C306.849 256.644 307.042 257.84 305.258 258.85ZM284.689 260.565C285.585 260.083 286.613 259.899 287.622 260.042C289.011 260.219 290.381 260.521 291.716 260.944L285.893 264.286C283.424 262.778 283.034 261.538 284.722 260.565H284.689Z" fill="#0C9300"/>
<path d="M298.018 267.639C297.951 267.483 298.018 265.534 298.018 265.534L295.62 267.071L296.657 268.664L298.018 267.639Z" fill="#0C9300"/>
<path d="M277.159 268.976V266.871L282.346 267.261L279.367 269.288L277.159 268.976Z" fill="#0C9300"/>
<path d="M276.724 261.234V259.106L280.606 260.509L276.724 261.234Z" fill="#0C9300"/>
<path d="M292.787 261.122L291.493 259.886L286.942 263.027L287.232 263.952C287.232 263.952 290.578 262.526 290.735 262.437L292.787 261.122Z" fill="#0C9300"/>
<path d="M304.689 254.471L298.654 257.891L297.416 257C297.416 257 298.175 256.131 298.23 256.042C298.777 255.428 299.413 254.899 300.116 254.471C300.562 254.393 303.462 253.112 303.462 253.112L304.689 254.471Z" fill="#0C9300"/>
<path d="M294.649 252.299V250.194L297.416 249.292L298.018 250.94L297.873 251.698L294.649 252.299Z" fill="#0C9300"/>
<path d="M313.077 250.773V248.668L309.853 249.013L310.902 251.052L313.077 250.773Z" fill="#0C9300"/>
<path d="M312.955 257.937V255.709H309.274L310.166 257.669L311.772 259.43L312.955 257.937Z" fill="#0C9300"/>
<path d="M294.65 250.194C295.128 250.187 295.606 250.224 296.077 250.305C296.713 250.394 297.438 250.528 298.23 250.695C299.022 250.862 299.859 251.074 300.707 251.33C301.545 251.581 302.365 251.89 303.161 252.255L296.892 255.864L295.776 255.474C294.192 254.94 292.686 254.494 291.314 254.126C289.99 253.772 288.634 253.548 287.265 253.458C286.014 253.375 284.758 253.458 283.528 253.703C282.275 253.974 281.074 254.444 279.97 255.095C278.883 255.645 277.954 256.461 277.271 257.468C277.046 257.828 276.894 258.229 276.825 258.648C276.756 259.067 276.771 259.495 276.869 259.908C277.142 260.824 277.65 261.653 278.342 262.314C279.201 263.168 280.16 263.916 281.197 264.542L277.215 266.837L279.39 268.085L283.406 265.768C285.323 266.699 287.325 267.445 289.385 267.996C291.54 268.586 293.742 268.996 295.966 269.221L298.074 265.467C297.485 265.452 296.896 265.408 296.312 265.333C295.531 265.244 294.661 265.088 293.69 264.876C292.72 264.665 291.705 264.409 290.634 264.097C289.585 263.803 288.56 263.43 287.566 262.983L293.802 259.396L294.616 259.674L295.464 259.93C296.877 260.408 298.315 260.814 299.77 261.145C300.978 261.423 302.211 261.587 303.451 261.635C304.537 261.673 305.625 261.572 306.685 261.334C307.745 261.084 308.761 260.675 309.697 260.12C310.723 259.586 311.612 258.823 312.296 257.892C312.806 257.193 313.055 256.337 312.999 255.474C312.91 254.58 312.552 253.733 311.973 253.046C311.252 252.155 310.398 251.381 309.441 250.751L313.066 248.668L310.891 247.409L307.232 249.525C305.521 248.667 303.717 248.005 301.856 247.554C300.088 247.105 298.291 246.778 296.479 246.573L294.65 250.194ZM305.258 256.744C304.439 257.22 303.489 257.423 302.547 257.323C301.274 257.185 300.021 256.905 298.81 256.488L304.678 253.146C306.849 254.527 307.042 255.727 305.258 256.744ZM284.722 258.449C285.617 257.961 286.647 257.777 287.656 257.925C289.044 258.103 290.413 258.401 291.749 258.816L285.927 262.158C283.435 260.666 283.034 259.429 284.722 258.449Z" fill="#14FF00"/>
<path d="M295.252 283.58C265.17 283.58 240.784 269.52 240.784 252.176C240.784 234.832 265.17 220.773 295.252 220.773C325.334 220.773 349.72 234.832 349.72 252.176C349.72 269.52 325.334 283.58 295.252 283.58Z" fill="#0C9300"/>
<path d="M349.709 252.644V238.341L338.945 247.91L349.709 252.644Z" fill="#0C9300"/>
<path d="M240.784 238.719V252.176L246.283 258.003L248.982 242.596L240.784 238.719Z" fill="#0C9300"/>
<path d="M295.252 270.123C265.17 270.123 240.784 256.063 240.784 238.719C240.784 221.375 265.17 207.316 295.252 207.316C325.334 207.316 349.72 221.375 349.72 238.719C349.72 256.063 325.334 270.123 295.252 270.123Z" fill="#76D36E"/>
<path d="M256.323 239.689C256.88 244.98 260.651 250.183 267.678 254.238C282.904 263.016 307.601 263.016 322.827 254.238C329.854 250.183 333.624 244.98 334.16 239.689C334.818 233.495 331.036 227.167 322.827 222.444C307.601 213.655 282.904 213.655 267.678 222.444C259.468 227.167 255.676 233.495 256.323 239.689Z" fill="#0C9300"/>
<path d="M256.323 239.689C256.88 244.98 260.651 250.182 267.678 254.237C282.904 263.016 307.6 263.016 322.827 254.237C329.854 250.182 333.624 244.98 334.16 239.689C333.624 234.397 329.854 229.184 322.827 225.14C307.6 216.35 282.904 216.35 267.678 225.14C260.639 229.184 256.88 234.397 256.323 239.689Z" fill="#0C9300"/>
<path d="M295.821 232.325C296.299 232.328 296.777 232.369 297.249 232.447C297.896 232.536 298.61 232.659 299.413 232.826C300.216 232.993 301.03 233.205 301.889 233.461C302.725 233.714 303.541 234.027 304.332 234.397L298.074 238.006L296.959 237.616C295.364 237.081 293.858 236.636 292.497 236.268C291.168 235.914 289.809 235.691 288.437 235.6C287.189 235.517 285.937 235.6 284.711 235.845C283.454 236.116 282.249 236.586 281.141 237.237C280.055 237.783 279.126 238.595 278.442 239.599C278.216 239.961 278.065 240.364 277.998 240.785C277.931 241.206 277.949 241.636 278.052 242.05C278.316 242.967 278.82 243.798 279.513 244.456C280.376 245.31 281.339 246.058 282.38 246.684L278.397 248.99L280.561 250.238L284.588 247.921C286.499 248.859 288.498 249.605 290.556 250.149C292.714 250.747 294.92 251.161 297.148 251.385L299.245 247.631C298.66 247.617 298.075 247.572 297.494 247.497C296.702 247.397 295.832 247.252 294.862 247.041C293.891 246.829 292.876 246.573 291.805 246.261C290.76 245.967 289.738 245.594 288.749 245.147L294.973 241.56L295.787 241.838L296.635 242.094C298.208 242.607 299.647 243.019 300.952 243.309C302.157 243.588 303.386 243.752 304.622 243.799C305.712 243.838 306.803 243.737 307.868 243.498C308.923 243.243 309.934 242.834 310.869 242.284C311.895 241.746 312.787 240.985 313.479 240.056C313.976 239.351 314.223 238.5 314.181 237.638C314.092 236.744 313.735 235.898 313.155 235.21C312.431 234.319 311.573 233.545 310.612 232.915L314.304 230.787L312.14 229.528L308.481 231.634C306.764 230.788 304.962 230.127 303.105 229.662C301.337 229.219 299.54 228.895 297.728 228.693L295.821 232.325ZM306.474 238.886C305.649 239.358 304.697 239.561 303.752 239.465C302.483 239.327 301.233 239.047 300.026 238.63L305.894 235.288C308.035 236.658 308.236 237.872 306.474 238.886ZM285.904 240.624C286.8 240.137 287.83 239.957 288.838 240.111C290.226 240.29 291.596 240.588 292.932 241.003L287.098 244.345C284.607 242.822 284.209 241.582 285.904 240.624Z" fill="#0C9300"/>
<path d="M299.189 247.676C299.134 247.52 299.189 245.559 299.189 245.559L296.802 247.097L297.84 248.701L299.189 247.676Z" fill="#0C9300"/>
<path d="M278.341 249.013V246.896L283.517 247.297L280.539 249.324L278.341 249.013Z" fill="#0C9300"/>
<path d="M277.896 241.271V239.132L281.777 240.535L277.896 241.271Z" fill="#0C9300"/>
<path d="M293.97 241.159L292.676 239.922L288.125 243.064L288.404 243.988C288.404 243.988 291.806 242.551 291.917 242.473C292.029 242.395 293.97 241.159 293.97 241.159Z" fill="#0C9300"/>
<path d="M305.871 234.508L299.836 237.928L298.598 237.037C298.598 237.037 299.357 236.157 299.413 236.079C299.954 235.46 300.59 234.929 301.298 234.508C301.744 234.419 304.644 233.138 304.644 233.138L305.871 234.508Z" fill="#0C9300"/>
<path d="M295.821 232.325V230.219L298.598 229.317L299.189 230.977L299.044 231.734L295.821 232.325Z" fill="#0C9300"/>
<path d="M314.248 230.81V228.693L311.035 229.038L312.073 231.088L314.248 230.81Z" fill="#0C9300"/>
<path d="M314.182 237.962V235.734H310.489L311.393 237.695L312.943 239.51L314.182 237.962Z" fill="#0C9300"/>
<path d="M295.821 230.219C296.299 230.218 296.776 230.256 297.248 230.331C297.895 230.431 298.609 230.554 299.412 230.721C300.216 230.888 301.03 231.099 301.889 231.356C302.726 231.604 303.543 231.917 304.332 232.291L298.074 235.901L296.958 235.5C295.363 234.976 293.857 234.519 292.497 234.152C291.168 233.798 289.808 233.574 288.436 233.483C287.188 233.405 285.936 233.491 284.711 233.74C283.454 234.006 282.249 234.473 281.141 235.121C280.056 235.673 279.128 236.489 278.442 237.494C278.215 237.853 278.064 238.255 277.997 238.674C277.93 239.093 277.949 239.522 278.051 239.934C278.315 240.854 278.819 241.689 279.513 242.351C280.379 243.202 281.341 243.949 282.379 244.579L278.397 246.874L280.561 248.133L284.588 245.815C286.5 246.749 288.499 247.495 290.556 248.043C292.714 248.642 294.919 249.056 297.148 249.28L299.245 245.515C298.659 245.5 298.075 245.456 297.494 245.381C296.609 245.278 295.731 245.129 294.861 244.935C293.902 244.724 292.876 244.467 291.805 244.156C290.76 243.862 289.738 243.489 288.749 243.042L294.917 239.51L295.731 239.8L296.579 240.056C298.152 240.568 299.591 240.97 300.896 241.27C302.101 241.549 303.33 241.713 304.566 241.76C305.656 241.799 306.747 241.698 307.812 241.46C308.865 241.2 309.875 240.791 310.812 240.245C311.839 239.708 312.731 238.946 313.423 238.017C313.921 237.317 314.169 236.469 314.125 235.611C314.036 234.717 313.679 233.87 313.099 233.183C312.375 232.288 311.517 231.511 310.556 230.877L314.248 228.749L312.084 227.501L308.425 229.607C306.708 228.761 304.906 228.1 303.049 227.635C301.282 227.187 299.485 226.863 297.672 226.666L295.821 230.219ZM306.473 236.781C305.647 237.248 304.697 237.45 303.752 237.36C302.484 237.211 301.236 236.931 300.026 236.525L305.893 233.183C308.035 234.553 308.236 235.756 306.473 236.781ZM285.904 238.485C286.8 238 287.829 237.817 288.838 237.962C290.226 238.144 291.595 238.446 292.932 238.864L287.098 242.206C284.61 240.702 284.209 239.51 285.904 238.485Z" fill="#14FF00"/>
<path opacity="0.3" d="M60.9269 545.181C30.845 545.181 6.4588 531.121 6.4588 513.777C6.4588 496.433 30.845 482.374 60.9269 482.374C91.0088 482.374 115.395 496.433 115.395 513.777C115.395 531.121 91.0088 545.181 60.9269 545.181Z" fill="#D6D8E5"/>
<path d="M54.4791 538.987C24.3972 538.987 0.0110168 524.927 0.0110168 507.583C0.0110168 490.239 24.3972 476.179 54.4791 476.179C84.561 476.179 108.947 490.239 108.947 507.583C108.947 524.927 84.561 538.987 54.4791 538.987Z" fill="#0C9300"/>
<path d="M108.924 508.062V493.748L98.1712 503.328L108.924 508.062Z" fill="#0C9300"/>
<path d="M0.0112 494.126V507.583L5.51045 513.421L8.19873 498.014L0.0112 494.126Z" fill="#0C9300"/>
<path d="M54.4791 525.53C24.3972 525.53 0.0110168 511.47 0.0110168 494.126C0.0110168 476.782 24.3972 462.722 54.4791 462.722C84.561 462.722 108.947 476.782 108.947 494.126C108.947 511.47 84.561 525.53 54.4791 525.53Z" fill="#76D36E"/>
<path d="M15.5499 495.095C16.0964 500.387 19.8779 505.6 26.8941 509.655C42.1314 518.422 66.8166 518.422 82.0538 509.655C89.0701 505.6 92.8404 500.387 93.387 495.095C94.0451 488.913 90.2525 482.585 82.0538 477.862C66.8166 469.072 42.1314 469.072 26.8941 477.862C18.6843 482.585 14.9029 488.913 15.5499 495.095Z" fill="#0C9300"/>
<path d="M15.5496 495.095C16.0962 500.387 19.8776 505.6 26.8939 509.655C42.1311 518.423 66.8164 518.423 82.0536 509.655C89.0699 505.6 92.8401 500.387 93.3867 495.095C92.8401 489.815 89.0699 484.602 82.0536 480.547C66.8164 471.757 42.1311 471.757 26.8939 480.547C19.8776 484.59 16.0962 489.815 15.5496 495.095Z" fill="#0C9300"/>
<path d="M55.048 487.743C55.5261 487.742 56.0036 487.779 56.4757 487.854C57.1116 487.943 57.8366 488.077 58.6286 488.244C59.4206 488.411 60.2572 488.623 61.1049 488.879C61.9434 489.13 62.7634 489.439 63.5589 489.804L57.29 493.424L56.1746 493.023C54.5906 492.5 53.0847 492.043 51.7127 491.675C50.3881 491.321 49.0319 491.097 47.6636 491.007C46.4121 490.928 45.1557 491.014 43.9268 491.263C42.6726 491.525 41.4703 491.991 40.3685 492.644C39.2815 493.194 38.3525 494.01 37.669 495.017C37.4438 495.377 37.2924 495.778 37.2235 496.197C37.1546 496.616 37.1695 497.044 37.2675 497.457C37.5384 498.377 38.0461 499.211 38.7399 499.874C39.5998 500.728 40.5584 501.475 41.5955 502.102L37.5463 504.419L39.7773 505.678L43.7929 503.361C45.7094 504.294 47.7116 505.04 49.7718 505.589C51.9252 506.19 54.1274 506.6 56.353 506.814L58.4613 503.06C57.8719 503.046 57.2837 503.001 56.6988 502.927C55.818 502.823 54.943 502.674 54.0775 502.481C53.107 502.269 52.092 502.013 51.0211 501.69C49.9721 501.396 48.9467 501.024 47.9536 500.576L54.1891 496.989L55.0033 497.267L55.8511 497.535C57.4239 498.047 58.8517 498.448 60.1568 498.738C61.3646 499.022 62.5976 499.186 63.8378 499.228C64.9248 499.278 66.0135 499.176 67.0726 498.927C68.1274 498.678 69.1389 498.273 70.0732 497.724C71.1015 497.189 71.9942 496.427 72.6834 495.496C73.1918 494.801 73.4405 493.949 73.3862 493.09C73.2946 492.193 72.9373 491.344 72.3599 490.65C71.639 489.76 70.785 488.986 69.8278 488.355L73.52 486.228L71.3449 484.98L67.6861 487.085C65.9705 486.236 64.1678 485.575 62.3096 485.114C60.5428 484.663 58.7461 484.339 56.9331 484.145L55.048 487.743ZM65.6895 494.293C64.8698 494.768 63.922 494.974 62.9789 494.883C61.7078 494.734 60.4556 494.454 59.2421 494.048L65.1094 490.706C67.2585 492.08 67.4519 493.276 65.6895 494.293ZM45.1203 496.009C46.0154 495.521 47.0451 495.337 48.054 495.485C49.443 495.662 50.8131 495.964 52.1477 496.387L46.325 499.729C43.8338 498.222 43.4323 496.982 45.1203 496.009Z" fill="#0C9300"/>
<path d="M58.4165 503.083C58.3496 502.927 58.4165 500.977 58.4165 500.977L56.0183 502.514L57.0557 504.107L58.4165 503.083Z" fill="#0C9300"/>
<path d="M37.5573 504.42V502.314L42.7441 502.704L39.7658 504.732L37.5573 504.42Z" fill="#0C9300"/>
<path d="M37.1226 496.677V494.549L41.0044 495.953L37.1226 496.677Z" fill="#0C9300"/>
<path d="M53.1626 496.566L51.8686 495.329L47.3175 498.471L47.6075 499.395C47.6075 499.395 50.954 497.969 51.1101 497.88L53.1626 496.566Z" fill="#0C9300"/>
<path d="M65.0874 489.915L59.0527 493.335L57.8146 492.444C57.8146 492.444 58.5731 491.575 58.6288 491.486C59.1757 490.871 59.811 490.342 60.514 489.915C60.9602 489.837 63.8604 488.556 63.8604 488.556L65.0874 489.915Z" fill="#0C9300"/>
<path d="M55.0479 487.743V485.637L57.8142 484.735L58.4165 486.384L58.2715 487.141L55.0479 487.743Z" fill="#0C9300"/>
<path d="M73.4751 486.217V484.111L70.2514 484.457L71.3 486.495L73.4751 486.217Z" fill="#0C9300"/>
<path d="M73.353 493.38V491.152H69.6719L70.5643 493.112L72.126 494.895L73.353 493.38Z" fill="#0C9300"/>
<path d="M55.048 485.637C55.5263 485.63 56.0043 485.667 56.4757 485.749C57.1116 485.838 57.8366 485.96 58.6286 486.127C59.4206 486.294 60.2572 486.517 61.1049 486.774C61.9434 487.025 62.7634 487.334 63.5589 487.698L57.29 491.274L56.1746 490.884C54.5906 490.349 53.0847 489.904 51.7127 489.536C50.3881 489.182 49.0319 488.958 47.6636 488.868C46.4126 488.785 45.1562 488.868 43.9268 489.113C42.6736 489.384 41.4722 489.854 40.3685 490.505C39.2792 491.051 38.3494 491.869 37.669 492.878C37.4438 493.238 37.2924 493.639 37.2235 494.058C37.1546 494.477 37.1695 494.905 37.2675 495.318C37.5363 496.236 38.0444 497.066 38.7399 497.724C39.6 498.577 40.5586 499.325 41.5955 499.952L37.6133 502.247L39.7773 503.528L43.7929 501.211C45.7094 502.144 47.7117 502.89 49.7718 503.439C51.9276 504.029 54.129 504.439 56.353 504.664L58.4613 500.91C57.8719 500.896 57.2837 500.851 56.6988 500.776C55.8179 500.669 54.9429 500.516 54.0775 500.32C53.107 500.119 52.092 499.852 51.0211 499.54C49.9721 499.246 48.9467 498.874 47.9536 498.426L54.1891 494.839L55.0033 495.117L55.8511 495.374C57.2646 495.852 58.7017 496.257 60.1568 496.588C61.3656 496.867 62.5981 497.031 63.8378 497.078C64.9245 497.116 66.0117 497.015 67.0726 496.777C68.1279 496.524 69.1392 496.115 70.0732 495.563C71.1042 495.032 71.9977 494.269 72.6834 493.335C73.1918 492.635 73.4403 491.78 73.3862 490.918C73.2972 490.023 72.9394 489.177 72.3599 488.489C71.639 487.599 70.785 486.825 69.8278 486.194L73.52 484.066L71.3449 482.808L67.6861 484.924C65.973 484.067 64.1698 483.402 62.3096 482.941C60.5405 482.502 58.7445 482.178 56.9331 481.972L55.048 485.637ZM65.6895 492.188C64.8685 492.658 63.9208 492.861 62.9789 492.767C61.706 492.628 60.4526 492.348 59.2421 491.931L65.1094 488.589C67.2585 489.971 67.4519 491.17 65.6895 492.188ZM45.1203 493.903C46.0154 493.415 47.0451 493.231 48.054 493.38C49.4418 493.558 50.8116 493.856 52.1477 494.271L46.325 497.613C43.8338 496.113 43.4323 494.876 45.1203 493.903Z" fill="#14FF00"/>
<path d="M54.4791 521.375C24.3972 521.375 0.0110168 507.315 0.0110168 489.971C0.0110168 472.627 24.3972 458.567 54.4791 458.567C84.561 458.567 108.947 472.627 108.947 489.971C108.947 507.315 84.561 521.375 54.4791 521.375Z" fill="#0C9300"/>
<path d="M108.924 490.438V476.135L98.1712 485.704L108.924 490.438Z" fill="#0C9300"/>
<path d="M0.0112 476.503V489.971L5.51045 495.797L8.19873 480.391L0.0112 476.503Z" fill="#0C9300"/>
<path d="M54.4791 507.906C24.3972 507.906 0.0110168 493.846 0.0110168 476.503C0.0110168 459.159 24.3972 445.099 54.4791 445.099C84.561 445.099 108.947 459.159 108.947 476.503C108.947 493.846 84.561 507.906 54.4791 507.906Z" fill="#76D36E"/>
<path d="M15.5499 477.483C16.0964 482.774 19.8779 487.977 26.8941 492.032C42.1314 500.81 66.8166 500.81 82.0538 492.032C89.0701 487.977 92.8404 482.774 93.387 477.483C94.0451 471.289 90.2525 464.961 82.0538 460.238C66.8166 451.449 42.1314 451.449 26.8941 460.238C18.6843 464.961 14.9029 471.289 15.5499 477.483Z" fill="#0C9300"/>
<path d="M15.5496 477.483C16.0962 482.774 19.8776 487.977 26.8939 492.032C42.1311 500.81 66.8164 500.81 82.0536 492.032C89.0699 487.977 92.8401 482.774 93.3867 477.483C92.8401 472.191 89.0699 466.978 82.0536 462.934C66.8164 454.145 42.1311 454.145 26.8939 462.934C19.8776 466.978 16.0962 472.191 15.5496 477.483Z" fill="#0C9300"/>
<path d="M55.0479 470.108C55.5261 470.107 56.0036 470.144 56.4757 470.219C57.1115 470.32 57.8366 470.442 58.6286 470.609C59.4206 470.776 60.2572 470.988 61.1049 471.244C61.9453 471.494 62.7657 471.807 63.5589 472.18L57.29 475.789L56.1746 475.388C54.5906 474.865 53.0847 474.419 51.7127 474.04C50.3881 473.686 49.0319 473.462 47.6636 473.372C46.4121 473.299 45.1564 473.385 43.9268 473.628C42.6721 473.894 41.4699 474.365 40.3684 475.021C39.28 475.563 38.3501 476.376 37.669 477.382C37.4441 477.744 37.2928 478.147 37.2239 478.568C37.155 478.988 37.1698 479.418 37.2674 479.833C37.5123 480.747 37.9931 481.581 38.6618 482.251C39.5188 483.107 40.4778 483.855 41.5174 484.479L37.5463 486.818L39.7772 488.054L43.7929 485.737C45.7075 486.675 47.7102 487.421 49.7718 487.965C51.9261 488.565 54.1279 488.978 56.353 489.202L58.4613 485.448C57.8715 485.434 57.283 485.386 56.6988 485.303C55.818 485.199 54.943 485.051 54.0775 484.857C53.107 484.646 52.0919 484.389 51.0211 484.078C49.9721 483.783 48.9467 483.411 47.9536 482.964L54.189 479.365L55.0033 479.655L55.8511 479.911C57.4239 480.424 58.8517 480.836 60.1568 481.125C61.3656 481.404 62.5981 481.568 63.8378 481.616C64.9245 481.654 66.0117 481.553 67.0726 481.315C68.1263 481.057 69.1369 480.648 70.0732 480.101C71.106 479.572 72.0001 478.809 72.6834 477.873C73.1918 477.177 73.4405 476.326 73.3862 475.466C73.2972 474.572 72.9394 473.725 72.3599 473.038C71.6419 472.145 70.7874 471.37 69.8278 470.743L73.52 468.604L71.3449 467.356L67.6861 469.462C65.9705 468.613 64.1678 467.951 62.3096 467.49C60.5428 467.04 58.7461 466.716 56.9331 466.521L55.0479 470.108ZM65.6895 476.669C64.8685 477.14 63.9208 477.343 62.9789 477.249C61.706 477.11 60.4526 476.83 59.2421 476.413L65.1094 473.071C67.2623 474.453 67.4519 475.678 65.6895 476.681V476.669ZM45.1203 478.374C46.0172 477.891 47.0452 477.708 48.054 477.85C49.4411 478.038 50.8103 478.34 52.1477 478.753L46.325 482.095C43.8338 480.602 43.4323 479.365 45.1203 478.385V478.374Z" fill="#0C9300"/>
<path d="M58.4165 485.471C58.3496 485.315 58.4165 483.354 58.4165 483.354L56.0183 484.891L57.0557 486.484L58.4165 485.471Z" fill="#0C9300"/>
<path d="M37.5573 486.796V484.69L42.7441 485.091L39.7658 487.108L37.5573 486.796Z" fill="#0C9300"/>
<path d="M37.1226 479.053V476.926L41.0044 478.329L37.1226 479.053Z" fill="#0C9300"/>
<path d="M53.1626 478.942L51.8686 477.717L47.3175 480.858L47.6075 481.783C47.6075 481.783 50.954 480.346 51.1101 480.268C51.2663 480.19 53.1626 478.942 53.1626 478.942Z" fill="#0C9300"/>
<path d="M65.0874 472.336L59.0527 475.756L57.8146 474.854C57.8146 474.854 58.5731 473.985 58.6288 473.907C59.1704 473.288 59.8066 472.757 60.514 472.336C60.9602 472.247 63.8604 470.966 63.8604 470.966L65.0874 472.336Z" fill="#0C9300"/>
<path d="M55.0479 470.119V468.014L57.8142 467.111L58.4165 468.771L58.2715 469.529L55.0479 470.119Z" fill="#0C9300"/>
<path d="M73.4751 468.593V466.488L70.2514 466.833L71.3 468.883L73.4751 468.593Z" fill="#0C9300"/>
<path d="M73.353 475.756V473.528H69.6719L70.5643 475.488L72.126 477.282L73.353 475.756Z" fill="#0C9300"/>
<path d="M55.048 468.014C55.5261 468.013 56.0036 468.05 56.4757 468.125C57.1116 468.214 57.8366 468.348 58.6286 468.515C59.4206 468.682 60.2572 468.894 61.1049 469.15C61.9434 469.401 62.7634 469.71 63.5589 470.075L57.29 473.695L56.1746 473.294C54.5906 472.77 53.0847 472.314 51.7127 471.946C50.3881 471.592 49.0319 471.368 47.6636 471.278C46.4121 471.199 45.1557 471.285 43.9268 471.534C42.6741 471.801 41.4727 472.267 40.3685 472.915C39.2815 473.464 38.3525 474.281 37.669 475.288C37.4438 475.648 37.2924 476.049 37.2235 476.468C37.1546 476.887 37.1695 477.315 37.2675 477.728C37.5179 478.636 37.9981 479.465 38.6618 480.134C39.5217 480.987 40.4803 481.735 41.5174 482.362L37.5352 484.657L39.7773 485.949L43.7929 483.632C45.7094 484.565 47.7116 485.311 49.7718 485.86C51.9261 486.459 54.1279 486.873 56.353 487.097L58.4613 483.331C57.8719 483.317 57.2837 483.272 56.6988 483.198C55.818 483.094 54.943 482.945 54.0775 482.752C53.107 482.54 52.092 482.284 51.0211 481.972C49.9737 481.673 48.9487 481.301 47.9536 480.858L54.1891 477.271L55.0033 477.55L55.8511 477.817C57.4239 478.329 58.8517 478.73 60.1568 479.02C61.3653 479.302 62.5978 479.47 63.8378 479.521C64.9252 479.561 66.013 479.456 67.0726 479.209C68.1274 478.96 69.1389 478.555 70.0732 478.006C71.1015 477.471 71.9942 476.709 72.6834 475.778C73.1918 475.083 73.4405 474.231 73.3862 473.372C73.2946 472.475 72.9373 471.626 72.3599 470.932C71.639 470.042 70.785 469.268 69.8278 468.638L73.52 466.51L71.3449 465.262L67.6861 467.368C65.9705 466.518 64.1678 465.857 62.3096 465.396C60.5428 464.945 58.7461 464.622 56.9331 464.427L55.048 468.014ZM65.6895 474.564C64.8698 475.038 63.922 475.245 62.9789 475.154C61.7078 475.005 60.4556 474.725 59.2421 474.319L65.1094 470.977C67.2585 472.351 67.4519 473.547 65.6895 474.564ZM45.1203 476.28C46.0154 475.792 47.0451 475.608 48.054 475.756C49.443 475.933 50.8131 476.235 52.1477 476.658L46.325 480C43.8338 478.493 43.4323 477.252 45.1203 476.28Z" fill="#14FF00"/>
<path opacity="0.15" d="M131.458 300.312L151.357 288.515L151.224 171.055L131.324 182.852L131.458 300.312Z" fill="#131313"/>
<path d="M146.773 178.92C170.789 193.837 189.975 227.68 189.975 255.63C189.975 283.58 170.789 295.311 146.773 282.544V178.92Z" fill="#0C9300"/>
<path d="M146.784 178.909L134.983 185.637L144.542 205.912L155.172 196.744L146.784 178.909Z" fill="#0C9300"/>
<path d="M163.014 292.436C163.259 292.325 178.63 283.524 178.63 283.524L170.409 276.974L163.014 292.436Z" fill="#0C9300"/>
<path d="M134.983 185.637C158.987 200.565 178.173 234.408 178.173 262.358C178.173 290.309 158.987 302.028 134.983 289.273V185.637Z" fill="#76D36E"/>
<path d="M134.983 203.862C151.938 214.702 165.39 238.653 165.39 258.448C165.39 278.244 151.938 286.688 134.983 277.977V203.862Z" fill="#0C9300"/>
<path d="M142.043 242.707C141.212 243.054 140.306 243.184 139.411 243.086C138.144 242.972 136.89 242.748 135.663 242.418L134.982 242.262V235.321C135.717 235.484 136.479 235.484 137.213 235.321C137.871 235.143 138.206 234.497 138.206 233.383C138.163 232.268 137.851 231.18 137.298 230.21C136.745 229.241 135.966 228.418 135.027 227.813V221.931C136.224 222.774 137.344 223.721 138.373 224.761C139.542 225.943 140.571 227.255 141.441 228.671C142.293 230.07 142.974 231.566 143.471 233.127C143.958 234.677 144.206 236.292 144.207 237.917C144.256 238.99 144.073 240.062 143.672 241.059C143.354 241.792 142.773 242.38 142.043 242.707Z" fill="#14FF00"/>
<path d="M134.982 250.74C135.663 251.007 136.364 251.22 137.079 251.374C137.929 251.549 138.79 251.664 139.656 251.72C140.319 251.76 140.985 251.726 141.641 251.62C142.047 251.559 142.442 251.438 142.812 251.263L145.389 258.549C143.712 258.913 141.978 258.936 140.291 258.615C138.451 258.283 136.665 257.702 134.982 256.889V250.74Z" fill="#14FF00"/>
<path opacity="0.3" d="M262.714 555.886L465.104 439.206C467.915 437.591 467.558 434.75 464.323 432.912L351.226 367.698C347.991 365.827 343.094 365.626 340.294 367.241L137.938 483.944C135.138 485.559 135.484 488.4 138.719 490.249L251.782 555.452C255.062 557.323 259.914 557.524 262.714 555.886Z" fill="#D6D8E5"/>
<path d="M131.324 479.588L133.443 480.357L335.61 363.788C338.41 362.173 343.307 362.373 346.541 364.233L459.638 429.447C460.102 429.712 460.536 430.025 460.932 430.383L462.304 429.269V432.967C462.271 433.554 462.078 434.121 461.746 434.606C461.414 435.091 460.955 435.476 460.419 435.719L258.029 552.455C255.23 554.07 250.333 553.859 247.098 551.998L134.001 486.818C132.172 485.704 131.268 484.401 131.324 483.131V479.588Z" fill="#DADCE5"/>
<path d="M258.029 548.89L460.419 432.232C463.23 430.617 462.873 427.776 459.638 425.938L346.53 360.68C343.295 358.809 338.398 358.608 335.598 360.223L133.22 476.926C130.409 478.541 130.766 481.382 134 483.231L247.097 548.434C250.332 550.316 255.229 550.506 258.029 548.89Z" fill="#F8F9FF"/>
<path d="M393.045 451.248L431.885 428.868L422.895 423.688L384.065 446.068L393.045 451.248Z" fill="#DADCE5"/>
<path d="M315.632 405.697L354.461 383.306L345.481 378.126L306.652 400.517L315.632 405.697Z" fill="#DADCE5"/>
<path d="M346.006 478.385L384.824 455.994L375.844 450.813L337.015 473.205L346.006 478.385Z" fill="#DADCE5"/>
<path d="M298.944 505.511L337.785 483.12L328.794 477.94L289.965 500.331L298.944 505.511Z" fill="#DADCE5"/>
<path d="M251.894 532.637L290.723 510.246L281.744 505.066L242.914 527.457L251.894 532.637Z" fill="#DADCE5"/>
<path opacity="0.5" d="M180.169 487.375C171.12 487.375 163.783 483.145 163.783 477.928C163.783 472.711 171.12 468.481 180.169 468.481C189.219 468.481 196.556 472.711 196.556 477.928C196.556 483.145 189.219 487.375 180.169 487.375Z" fill="#DADCE5"/>
<path opacity="0.5" d="M192.864 480.045C183.814 480.045 176.478 475.816 176.478 470.598C176.478 465.381 183.814 461.152 192.864 461.152C201.914 461.152 209.25 465.381 209.25 470.598C209.25 475.816 201.914 480.045 192.864 480.045Z" fill="#DADCE5"/>
</g>
<defs>
<clipPath id="clip0">
<rect width="467" height="557" transform="matrix(-1 0 0 1 467 0)" fill="white"/>
</clipPath>
</defs>
</svg>
