<svg width="500" height="502" viewBox="0 0 500 502" fill="none" xmlns="http://www.w3.org/2000/svg">
<path d="M488.638 460.274L157.076 268.942V6.55664L488.638 197.889V460.274Z" fill="#FAFBFF"/>
<path opacity="0.8" d="M488.638 197.888L157.076 6.55612L168.437 0L499.999 191.322L488.638 197.888Z" fill="#0C9300"/>
<path opacity="0.2" d="M411.642 454.642L191.481 327.606C188.869 326.1 189.362 321.501 192.355 319.323C192.931 318.842 193.635 318.538 194.38 318.449C195.125 318.36 195.881 318.489 196.554 318.821L416.715 445.867C419.316 447.373 418.834 451.971 415.841 454.14C415.266 454.624 414.563 454.93 413.817 455.019C413.07 455.108 412.314 454.977 411.642 454.642Z" fill="#0C9300"/>
<path opacity="0.8" d="M500 453.688L488.639 460.254V197.869L500 191.303V453.688Z" fill="#0C9300"/>
<path opacity="0.02" d="M500 223.782L488.639 230.338V197.869L500 191.303V223.782Z" fill="#131313"/>
<path opacity="0.2" d="M488.638 230.358L157.076 39.036V6.55664L488.638 197.889V230.358Z" fill="#0C9300"/>
<path d="M173.329 35.2702C174.871 34.3802 174.871 31.4944 173.329 28.8244C171.786 26.1545 169.286 24.7115 167.744 25.6015C166.201 26.4914 166.201 29.3773 167.744 32.0473C169.286 34.7172 171.787 36.1602 173.329 35.2702Z" fill="white"/>
<path d="M185.173 42.1003C186.715 41.2103 186.715 38.3244 185.172 35.6545C183.63 32.9845 181.13 31.5416 179.587 32.4316C178.045 33.3215 178.045 36.2074 179.587 38.8773C181.13 41.5473 183.63 42.9902 185.173 42.1003Z" fill="white"/>
<path d="M197.012 48.9362C198.555 48.0463 198.555 45.1604 197.012 42.4904C195.47 39.8205 192.97 38.3775 191.427 39.2675C189.885 40.1575 189.885 43.0433 191.427 45.7133C192.97 48.3832 195.47 49.8262 197.012 48.9362Z" fill="white"/>
<path d="M284.186 268.275C284.204 267.68 284.063 267.138 283.763 266.65C283.468 266.164 282.925 265.541 282.135 264.782C281.344 264.023 280.718 263.315 280.257 262.657C279.375 261.396 278.953 260.142 278.99 258.897C279.023 257.807 279.375 257.083 280.047 256.727C280.723 256.373 281.582 256.476 282.624 257.037C283.315 257.409 283.926 257.914 284.457 258.552C284.988 259.19 285.399 259.915 285.689 260.725C285.979 261.53 286.112 262.323 286.089 263.103L284.369 262.178C284.39 261.472 284.243 260.832 283.928 260.26C283.617 259.683 283.159 259.232 282.554 258.907C281.99 258.603 281.546 258.531 281.222 258.691C280.903 258.853 280.735 259.228 280.717 259.817C280.702 260.312 280.858 260.818 281.184 261.334C281.511 261.843 282.056 262.464 282.82 263.196C283.584 263.922 284.194 264.612 284.651 265.267C285.108 265.915 285.437 266.558 285.64 267.196C285.843 267.828 285.934 268.491 285.913 269.185C285.879 270.312 285.534 271.04 284.877 271.366C284.225 271.689 283.355 271.558 282.268 270.973C281.549 270.586 280.892 270.05 280.298 269.366C279.709 268.677 279.255 267.923 278.938 267.104C278.625 266.287 278.481 265.454 278.507 264.605L280.233 265.534C280.21 266.302 280.379 266.998 280.739 267.62C281.099 268.242 281.628 268.74 282.324 269.114C282.924 269.437 283.379 269.515 283.689 269.348C284.004 269.178 284.17 268.82 284.186 268.275Z" fill="#131313"/>
<path d="M291.664 274.838C291.154 275.357 290.451 275.375 289.555 274.893C288.754 274.463 288.157 273.817 287.762 272.956C287.372 272.098 287.195 271.064 287.231 269.856L287.427 263.341L289.085 264.233L288.89 270.72C288.852 271.997 289.221 272.844 289.999 273.262C290.804 273.696 291.36 273.595 291.665 272.959L291.882 265.738L293.54 266.63L293.238 276.686L291.676 275.845L291.664 274.838Z" fill="#131313"/>
<path d="M298.009 277.609C298.423 277.832 298.771 277.852 299.054 277.671C299.337 277.489 299.494 277.162 299.527 276.688L301.09 277.529C301.053 278.145 300.892 278.653 300.607 279.054C300.322 279.449 299.946 279.681 299.477 279.749C299.008 279.818 298.507 279.709 297.975 279.423C296.942 278.868 296.137 277.972 295.56 276.735C294.982 275.499 294.717 274.079 294.765 272.474L294.772 272.242C294.818 270.711 295.155 269.649 295.783 269.055C296.412 268.455 297.244 268.434 298.281 268.992C299.159 269.464 299.863 270.199 300.392 271.195C300.926 272.187 301.19 273.258 301.183 274.406L299.621 273.566C299.62 272.98 299.489 272.427 299.227 271.909C298.97 271.393 298.632 271.022 298.213 270.797C297.677 270.508 297.255 270.552 296.947 270.928C296.641 271.298 296.469 272.021 296.432 273.097L296.421 273.459C296.388 274.549 296.507 275.441 296.777 276.134C297.052 276.824 297.463 277.316 298.009 277.609Z" fill="#131313"/>
<path d="M305.323 281.544C305.737 281.767 306.086 281.788 306.368 281.606C306.651 281.424 306.809 281.097 306.842 280.624L308.404 281.464C308.367 282.08 308.206 282.589 307.922 282.989C307.637 283.384 307.26 283.616 306.791 283.685C306.322 283.753 305.822 283.645 305.29 283.358C304.257 282.803 303.452 281.907 302.874 280.671C302.297 279.434 302.032 278.014 302.08 276.409L302.087 276.177C302.133 274.647 302.47 273.584 303.098 272.99C303.726 272.39 304.559 272.369 305.596 272.927C306.474 273.4 307.178 274.134 307.707 275.13C308.241 276.123 308.505 277.193 308.498 278.341L306.935 277.501C306.935 276.915 306.803 276.363 306.541 275.844C306.284 275.328 305.946 274.957 305.528 274.732C304.991 274.443 304.569 274.487 304.262 274.863C303.955 275.233 303.783 275.956 303.746 277.032L303.735 277.394C303.703 278.485 303.821 279.376 304.092 280.07C304.367 280.759 304.777 281.251 305.323 281.544Z" fill="#131313"/>
<path d="M312.802 287.4C311.751 286.835 310.912 285.926 310.284 284.676C309.66 283.421 309.371 282.044 309.416 280.545L309.425 280.266C309.455 279.262 309.623 278.443 309.929 277.808C310.239 277.169 310.658 276.768 311.185 276.604C311.712 276.441 312.292 276.53 312.924 276.87C313.93 277.411 314.692 278.265 315.212 279.432C315.736 280.602 315.974 281.986 315.926 283.584L315.899 284.495L311.074 281.9C311.1 282.757 311.282 283.522 311.623 284.197C311.967 284.873 312.41 285.357 312.952 285.648C313.711 286.057 314.343 285.972 314.845 285.392L315.704 287.035C315.391 287.477 314.981 287.731 314.475 287.799C313.974 287.863 313.416 287.73 312.802 287.4ZM312.863 278.678C312.408 278.434 312.033 278.452 311.738 278.734C311.448 279.019 311.252 279.527 311.151 280.26L314.311 281.96L314.316 281.792C314.302 281.017 314.171 280.367 313.924 279.844C313.676 279.314 313.322 278.925 312.863 278.678Z" fill="#131313"/>
<path d="M321.282 288.997C321.295 288.594 321.181 288.221 320.942 287.878C320.707 287.538 320.31 287.136 319.751 286.671C319.191 286.207 318.727 285.749 318.357 285.298C317.545 284.307 317.155 283.295 317.186 282.26C317.212 281.393 317.502 280.812 318.056 280.518C318.611 280.225 319.302 280.301 320.13 280.746C321.012 281.221 321.715 281.901 322.239 282.787C322.767 283.676 323.016 284.594 322.988 285.542L321.33 284.65C321.343 284.216 321.235 283.793 321.007 283.381C320.78 282.962 320.47 282.648 320.079 282.438C319.715 282.242 319.414 282.196 319.175 282.3C318.94 282.407 318.817 282.653 318.806 283.037C318.795 283.384 318.894 283.711 319.102 284.018C319.31 284.325 319.737 284.753 320.381 285.301C321.026 285.843 321.528 286.349 321.889 286.82C322.254 287.287 322.519 287.758 322.685 288.231C322.856 288.707 322.933 289.214 322.917 289.753C322.89 290.658 322.592 291.244 322.025 291.512C321.458 291.773 320.729 291.664 319.837 291.184C319.232 290.859 318.697 290.42 318.233 289.868C317.769 289.316 317.413 288.709 317.165 288.047C316.916 287.385 316.801 286.753 316.819 286.152L318.43 287.018C318.437 287.563 318.572 288.055 318.836 288.493C319.101 288.925 319.458 289.262 319.908 289.504C320.345 289.739 320.68 289.806 320.914 289.705C321.149 289.599 321.271 289.362 321.282 288.997Z" fill="#131313"/>
<path d="M328.502 292.881C328.514 292.478 328.4 292.105 328.161 291.762C327.926 291.422 327.529 291.019 326.97 290.555C326.411 290.09 325.946 289.633 325.576 289.182C324.764 288.191 324.374 287.178 324.405 286.144C324.431 285.276 324.721 284.696 325.276 284.402C325.83 284.109 326.521 284.184 327.349 284.63C328.231 285.105 328.934 285.785 329.458 286.671C329.986 287.559 330.235 288.478 330.207 289.426L328.549 288.534C328.562 288.1 328.454 287.677 328.226 287.265C327.999 286.846 327.689 286.532 327.298 286.321C326.934 286.125 326.633 286.08 326.394 286.184C326.159 286.291 326.037 286.537 326.025 286.921C326.015 287.268 326.113 287.595 326.321 287.902C326.529 288.209 326.956 288.637 327.6 289.185C328.245 289.727 328.747 290.233 329.108 290.704C329.473 291.171 329.738 291.641 329.904 292.115C330.075 292.591 330.152 293.098 330.136 293.637C330.109 294.542 329.812 295.128 329.244 295.395C328.677 295.657 327.948 295.548 327.056 295.068C326.451 294.743 325.916 294.304 325.452 293.752C324.988 293.2 324.632 292.593 324.384 291.931C324.136 291.268 324.021 290.637 324.039 290.036L325.649 290.902C325.656 291.447 325.791 291.939 326.055 292.377C326.32 292.808 326.677 293.145 327.127 293.388C327.564 293.623 327.899 293.69 328.134 293.589C328.368 293.482 328.491 293.246 328.502 292.881Z" fill="#131313"/>
<path fill-rule="evenodd" clip-rule="evenodd" d="M317.064 218.625C314.134 217.032 311.847 217.155 310.359 219.104C308.928 220.98 308.205 224.504 308.077 229.47L307.931 235.132L307.931 235.143C307.853 239.929 308.412 244.027 309.718 247.366L309.719 247.369C311.078 250.825 313.274 253.369 316.16 254.938C319.086 256.528 321.367 256.379 322.852 254.4C324.281 252.494 325.005 248.926 325.135 243.9L325.277 238.398L325.277 238.39C325.369 233.515 324.825 229.398 323.521 226.127C322.167 222.715 319.961 220.199 317.064 218.625ZM301.227 210.32L299.672 209.476L289.956 209.18L289.8 215.21L296.145 215.474L295.429 243.207L300.309 245.859L301.227 210.32ZM336.504 230.535C334.772 229.594 333.3 229.591 332.155 230.518L332.152 230.52C331.033 231.444 330.474 233.053 330.417 235.239L330.376 236.843C330.316 239.14 330.783 241.373 331.861 243.488L331.865 243.495C332.943 245.591 334.37 247.141 336.085 248.073C337.791 249.001 339.245 249.012 340.378 248.112C341.515 247.21 342.08 245.598 342.137 243.398L342.179 241.77C342.237 239.521 341.782 237.319 340.738 235.215C339.692 233.072 338.256 231.488 336.504 230.535ZM314.181 224.55C314.503 224.032 314.885 223.771 315.312 223.703C315.738 223.635 316.263 223.751 316.922 224.109C317.586 224.469 318.108 224.925 318.525 225.455C318.943 225.986 319.307 226.659 319.599 227.52L319.6 227.524C320.203 229.286 320.513 231.9 320.421 235.457L320.242 242.398C320.119 245.821 319.667 247.961 318.982 249.011L318.979 249.015C318.65 249.528 318.268 249.787 317.849 249.857C317.432 249.926 316.927 249.817 316.301 249.477C315.671 249.134 315.165 248.686 314.75 248.146C314.332 247.6 313.956 246.896 313.644 245.984C313.017 244.108 312.701 241.428 312.792 237.867L312.968 231.085C313.076 227.751 313.51 225.63 314.181 224.55ZM335.116 235.376C335.448 235.033 335.842 235.016 336.38 235.309C336.919 235.601 337.301 236.04 337.607 236.73C337.946 237.495 338.135 238.38 338.108 239.418L338.065 241.092C338.035 242.257 337.793 242.924 337.437 243.258L337.431 243.264C337.097 243.589 336.714 243.598 336.208 243.323C335.662 243.026 335.271 242.583 334.956 241.898C334.611 241.131 334.419 240.25 334.446 239.218L334.489 237.545C334.518 236.433 334.752 235.751 335.116 235.376ZM350.15 243.996L347.035 239.531L333.553 260.482L336.669 264.947L350.15 243.996ZM280.572 205.07L275.691 202.418L275.44 212.161L268.622 208.456L268.467 214.467L275.284 218.172L275.012 228.718L279.893 231.37L280.165 220.824L286.982 224.529L287.138 218.518L280.32 214.813L280.572 205.07ZM347.924 255.804C346.192 254.863 344.721 254.86 343.576 255.786C342.453 256.694 341.894 258.299 341.838 260.484L341.795 262.135C341.736 264.431 342.202 266.665 343.281 268.78L343.284 268.786C344.363 270.882 345.79 272.433 347.505 273.365C349.224 274.299 350.684 274.305 351.819 273.387C352.951 272.471 353.517 270.863 353.574 268.675L353.616 267.047C353.675 264.754 353.216 262.526 352.15 260.418C351.082 258.305 349.652 256.743 347.924 255.804ZM345.91 262.79C345.94 261.644 346.18 260.982 346.536 260.647L346.537 260.646C346.899 260.307 347.3 260.305 347.801 260.577C348.331 260.865 348.71 261.298 349.016 261.976L349.021 261.988C349.362 262.732 349.556 263.61 349.529 264.664L349.485 266.36C349.455 267.525 349.218 268.211 348.865 268.567C348.535 268.887 348.148 268.897 347.627 268.614C347.082 268.318 346.69 267.874 346.376 267.19C346.032 266.425 345.839 265.537 345.866 264.487L345.91 262.79Z" fill="#0C9300"/>
<path opacity="0.3" d="M48.1561 411.58C71.1351 411.58 89.7633 400.832 89.7633 387.574C89.7633 374.316 71.1351 363.568 48.1561 363.568C25.177 363.568 6.54883 374.316 6.54883 387.574C6.54883 400.832 25.177 411.58 48.1561 411.58Z" fill="#D6D8E5"/>
<path d="M60.5115 407.464C83.4906 407.464 102.119 396.717 102.119 383.459C102.119 370.201 83.4906 359.453 60.5115 359.453C37.5325 359.453 18.9043 370.201 18.9043 383.459C18.9043 396.717 37.5325 407.464 60.5115 407.464Z" fill="#0C9300"/>
<path d="M18.9141 383.83V372.887L27.131 380.206L18.9141 383.83Z" fill="#0C9300"/>
<path d="M102.12 373.178V383.459L97.9108 387.927L95.8516 376.14L102.12 373.178Z" fill="#0C9300"/>
<path d="M60.5115 397.183C83.4906 397.183 102.119 386.435 102.119 373.178C102.119 359.92 83.4906 349.172 60.5115 349.172C37.5325 349.172 18.9043 359.92 18.9043 373.178C18.9043 386.435 37.5325 397.183 60.5115 397.183Z" fill="#76D36E"/>
<path d="M90.2457 373.921C89.8238 377.937 86.9408 381.953 81.5767 385.046C69.9444 391.752 51.0795 391.752 39.4471 385.046C34.083 381.943 31.2 377.957 30.7882 373.921C30.2859 369.182 33.1789 364.353 39.4471 360.739C51.0795 354.022 69.9444 354.022 81.5767 360.739C87.8449 364.353 90.7379 369.182 90.2457 373.921Z" fill="#0C9300"/>
<path d="M90.2447 373.92C89.8228 377.936 86.9398 381.952 81.5757 385.044C69.9433 391.751 51.0784 391.751 39.4461 385.044C34.0819 381.942 31.199 377.956 30.7871 373.92C31.199 369.904 34.0819 365.888 39.4461 362.795C51.0784 356.079 69.9433 356.079 81.5757 362.795C86.9398 365.888 89.8228 369.874 90.2447 373.92Z" fill="#0C9300"/>
<path d="M60.0697 368.289C59.7062 368.288 59.3432 368.318 58.9848 368.379C58.4926 368.449 57.9803 368.55 57.3374 368.68C56.6966 368.808 56.0629 368.969 55.4389 369.162C54.7997 369.354 54.1752 369.593 53.5705 369.875L58.362 372.636L59.2159 372.335C60.4313 371.923 61.5765 371.582 62.6614 371.331C63.6736 371.06 64.7098 370.889 65.7553 370.819C66.7105 370.76 67.6693 370.824 68.6081 371.009C69.5609 371.21 70.4762 371.559 71.3203 372.044C72.1316 372.467 72.8226 373.089 73.3294 373.851C73.503 374.126 73.6193 374.433 73.671 374.754C73.7228 375.075 73.7091 375.403 73.6307 375.718C73.4269 376.421 73.0425 377.058 72.5157 377.566C71.8545 378.22 71.1197 378.797 70.3258 379.282L73.3394 381.039L71.6819 382.043L68.6081 380.266C67.1476 380.988 65.6202 381.567 64.0476 381.993C62.4035 382.451 60.7231 382.767 59.025 382.937L57.4178 380.066C57.8681 380.052 58.3173 380.015 58.7638 379.955C59.3565 379.885 60.0295 379.774 60.7729 379.614C61.5162 379.453 62.2897 379.252 63.1134 379.021C63.9139 378.788 64.6961 378.496 65.4539 378.148L60.6925 375.407L60.0697 375.618L59.4168 375.819C58.2214 376.21 57.1265 376.521 56.132 376.742C55.2088 376.957 54.2668 377.082 53.3193 377.114C52.489 377.146 51.6581 377.069 50.8482 376.883C50.0424 376.692 49.2702 376.381 48.5579 375.959C47.7704 375.545 47.0843 374.963 46.5489 374.252C46.1635 373.716 45.9755 373.064 46.0165 372.405C46.0852 371.721 46.3582 371.074 46.8 370.548C47.355 369.869 48.0085 369.276 48.7387 368.791L45.916 367.164L47.5735 366.16L50.366 367.777C51.6777 367.127 53.055 366.618 54.4745 366.261C55.8259 365.922 57.1985 365.673 58.583 365.518L60.0697 368.289ZM51.9431 373.309C52.5702 373.667 53.2935 373.822 54.0124 373.75C54.9839 373.641 55.9406 373.425 56.8653 373.108L52.3851 370.528C50.7511 371.605 50.6038 372.532 51.9431 373.309ZM67.6538 374.614C66.9694 374.244 66.1842 374.103 65.4137 374.212C64.3547 374.35 63.3095 374.578 62.2897 374.895L66.7397 377.505C68.6416 376.327 68.9463 375.363 67.6538 374.614Z" fill="#0C9300"/>
<path d="M57.498 380.025C57.498 379.904 57.498 378.408 57.498 378.408L59.3263 379.583L58.5327 380.808L57.498 380.025Z" fill="#0C9300"/>
<path d="M73.4305 381.038V379.432L69.4727 379.733L71.7429 381.279L73.4305 381.038Z" fill="#0C9300"/>
<path d="M73.7622 375.125V373.488L70.7988 374.563L73.7622 375.125Z" fill="#0C9300"/>
<path d="M61.4961 375.036L62.5006 374.092L65.9562 376.501L65.7352 377.214C65.7352 377.214 63.1435 376.12 63.0631 376.06C62.9828 375.999 61.4961 375.036 61.4961 375.036Z" fill="#0C9300"/>
<path d="M52.3945 369.955L57.0053 372.566L57.9495 371.883C57.9495 371.883 57.377 371.22 57.3368 371.16C56.9198 370.686 56.4318 370.28 55.8903 369.955C55.5487 369.895 53.3689 368.951 53.3689 368.951L52.3945 369.955Z" fill="#0C9300"/>
<path d="M60.0696 368.287V366.681L57.9501 365.988L57.498 367.253L57.6085 367.836L60.0696 368.287Z" fill="#0C9300"/>
<path d="M45.9961 367.124V365.518L48.4572 365.779L47.6636 367.345L45.9961 367.124Z" fill="#0C9300"/>
<path d="M46.0859 372.595V370.918H48.8986L48.2155 372.424L46.99 373.759L46.0859 372.595Z" fill="#0C9300"/>
<path d="M60.0697 366.683C59.7066 366.682 59.344 366.709 58.9848 366.763C58.4926 366.833 57.9803 366.934 57.3374 367.064C56.6945 367.195 56.0918 367.355 55.4389 367.546C54.8012 367.743 54.1771 367.981 53.5705 368.259L58.362 371.02L59.2159 370.719C60.4313 370.317 61.5765 369.976 62.6614 369.715C63.6736 369.444 64.7098 369.273 65.7553 369.203C66.7109 369.147 67.6697 369.214 68.6081 369.403C69.5648 369.611 70.481 369.974 71.3203 370.478C72.1305 370.907 72.821 371.532 73.3294 372.295C73.503 372.57 73.6193 372.877 73.671 373.198C73.7228 373.519 73.7091 373.847 73.6307 374.162C73.4288 374.863 73.044 375.497 72.5157 376C71.8576 376.661 71.1224 377.241 70.3258 377.727L73.3394 379.484L71.6819 380.437L68.6081 378.67C67.149 379.393 65.6212 379.968 64.0476 380.387C62.4035 380.845 60.7231 381.161 59.025 381.331L57.4178 378.46C57.8679 378.451 58.3173 378.417 58.7638 378.359C59.3565 378.289 60.0295 378.168 60.7729 378.018C61.5162 377.867 62.2897 377.656 63.1134 377.415C63.9139 377.182 64.6961 376.89 65.4539 376.542L60.6925 373.801L60.0697 374.012C59.8588 374.082 59.6478 374.152 59.4168 374.213C58.2214 374.604 57.1265 374.915 56.132 375.136C55.2091 375.354 54.2671 375.482 53.3193 375.518C52.4892 375.545 51.6589 375.468 50.8482 375.287C50.0438 375.092 49.2723 374.781 48.5579 374.363C47.7667 373.951 47.0797 373.363 46.5489 372.646C46.165 372.113 45.977 371.464 46.0165 370.809C46.0815 370.124 46.355 369.476 46.8 368.952C47.3497 368.268 48.004 367.675 48.7387 367.195L45.916 365.568L47.5735 364.564L50.366 366.181C51.6761 365.53 53.0539 365.024 54.4745 364.675C55.8249 364.331 57.1978 364.083 58.583 363.932L60.0697 366.683ZM51.9431 371.703C52.5685 372.066 53.2932 372.22 54.0124 372.144C54.9837 372.039 55.9404 371.827 56.8653 371.512L52.3851 368.922C50.7478 369.986 50.5971 370.919 51.9431 371.693V371.703ZM67.6538 373.008C66.9694 372.638 66.1842 372.497 65.4137 372.606C64.3545 372.748 63.3094 372.979 62.2897 373.299L66.7397 375.869C68.6416 374.698 68.9463 373.741 67.6538 372.998V373.008Z" fill="#14FF00"/>
<path d="M63.908 394.662C86.887 394.662 105.515 383.914 105.515 370.656C105.515 357.398 86.887 346.65 63.908 346.65C40.929 346.65 22.3008 357.398 22.3008 370.656C22.3008 383.914 40.929 394.662 63.908 394.662Z" fill="#0C9300"/>
<path d="M22.3105 371.017V360.084L30.5376 367.403L22.3105 371.017Z" fill="#0C9300"/>
<path d="M105.516 360.365V370.656L101.317 375.114L99.2578 363.337L105.516 360.365Z" fill="#0C9300"/>
<path d="M63.908 384.371C86.887 384.371 105.515 373.623 105.515 360.365C105.515 347.107 86.887 336.359 63.908 336.359C40.929 336.359 22.3008 347.107 22.3008 360.365C22.3008 373.623 40.929 384.371 63.908 384.371Z" fill="#76D36E"/>
<path d="M93.6421 361.108C93.2202 365.124 90.3372 369.14 84.973 372.233C73.3407 378.949 54.4858 378.949 42.8435 372.233C37.4793 369.14 34.6064 365.154 34.1945 361.108C33.6822 356.379 36.5753 351.54 42.8435 347.936C54.4858 341.209 73.3407 341.209 84.973 347.936C91.2412 351.54 94.1343 356.42 93.6421 361.108Z" fill="#0C9300"/>
<path d="M93.6409 361.109C93.219 365.125 90.336 369.141 84.9719 372.233C73.3395 378.95 54.4847 378.95 42.8423 372.233C37.4781 369.141 34.6052 365.155 34.1934 361.109C34.6052 357.093 37.4781 353.077 42.8423 349.994C54.4847 343.268 73.3395 343.268 84.9719 349.994C90.336 353.087 93.219 357.073 93.6409 361.109Z" fill="#0C9300"/>
<path d="M63.4754 355.485C63.1085 355.485 62.7423 355.515 62.3805 355.575C61.8883 355.646 61.3759 355.746 60.7331 355.867C60.0902 355.987 59.4975 356.158 58.8446 356.359C58.2027 356.543 57.5777 356.781 56.9762 357.071L61.7577 359.832L62.6115 359.521C63.837 359.12 64.9822 358.778 66.057 358.517C67.0693 358.247 68.1055 358.075 69.1509 358.005C70.1061 357.941 71.0657 358.005 72.0038 358.196C72.9623 358.403 73.8814 358.762 74.726 359.26C75.5393 359.681 76.231 360.303 76.7351 361.067C76.9078 361.343 77.0243 361.649 77.0777 361.97C77.1312 362.29 77.1205 362.618 77.0465 362.935C76.8385 363.638 76.4507 364.274 75.9214 364.782C75.2775 365.42 74.563 365.982 73.7918 366.459L76.8054 368.216L75.1479 369.22L72.1344 367.443C70.6702 368.165 69.1396 368.743 67.5638 369.17C65.9186 369.622 64.2386 369.938 62.5412 370.113L60.944 367.232C61.3908 367.223 61.8369 367.189 62.28 367.131C62.8827 367.061 63.5457 366.951 64.2891 366.79C65.0324 366.629 65.8059 366.429 66.6195 366.188C67.4204 365.959 68.2028 365.67 68.9601 365.324L64.2087 362.573L63.5859 362.794L62.933 362.995C61.7376 363.386 60.6326 363.698 59.6381 363.919C58.7182 364.133 57.7796 364.258 56.8355 364.29C56.0019 364.322 55.1677 364.245 54.3544 364.059C53.55 363.864 52.7784 363.553 52.064 363.136C51.2729 362.727 50.5856 362.143 50.055 361.429C49.6654 360.894 49.4736 360.241 49.5126 359.581C49.5884 358.899 49.8605 358.254 50.2961 357.724C50.8494 357.038 51.5029 356.439 52.2348 355.947L49.4121 354.32L51.0796 353.316L53.8722 354.923C55.1846 354.277 56.5618 353.772 57.9807 353.417C59.3287 353.078 60.6979 352.83 62.0791 352.674L63.4754 355.485ZM55.3388 360.505C55.9688 360.866 56.695 361.024 57.4181 360.957C58.3854 360.842 59.3382 360.626 60.2609 360.314L55.7808 357.734C54.1401 358.805 53.9927 359.725 55.3388 360.495V360.505ZM71.0495 361.82C70.367 361.445 69.58 361.304 68.8094 361.419C67.7497 361.552 66.7041 361.781 65.6853 362.101L70.1354 364.672C72.0339 363.507 72.3252 362.553 71.0495 361.81V361.82Z" fill="#0C9300"/>
<path d="M60.9043 367.212C60.9043 367.101 60.9043 365.605 60.9043 365.605L62.7325 366.78L61.939 367.995L60.9043 367.212Z" fill="#0C9300"/>
<path d="M76.827 368.237V366.631L72.8691 366.932L75.1494 368.478L76.827 368.237Z" fill="#0C9300"/>
<path d="M77.1684 362.322V360.686L74.2051 361.76L77.1684 362.322Z" fill="#0C9300"/>
<path d="M64.8926 362.233L65.8971 361.289L69.3125 363.689L69.1015 364.401C69.1015 364.401 66.5099 363.307 66.4195 363.237L64.8926 362.233Z" fill="#0C9300"/>
<path d="M55.8008 357.152L60.4115 359.763L61.3558 359.08C61.3558 359.08 60.7732 358.417 60.733 358.357C60.3225 357.881 59.8374 357.474 59.2965 357.152C58.955 357.092 56.7651 356.148 56.7651 356.148L55.8008 357.152Z" fill="#0C9300"/>
<path d="M63.4759 355.485V353.878L61.3563 353.186L60.9043 354.451L61.0148 355.033L63.4759 355.485Z" fill="#0C9300"/>
<path d="M49.3926 354.321V352.715L51.8537 352.976L51.0601 354.542L49.3926 354.321Z" fill="#0C9300"/>
<path d="M49.4824 359.792V358.115H52.2951L51.612 359.621L50.3865 360.957L49.4824 359.792Z" fill="#0C9300"/>
<path d="M63.4754 353.879C63.1088 353.874 62.7424 353.901 62.3805 353.959C61.8883 354.03 61.3759 354.13 60.7331 354.261C60.0902 354.391 59.4975 354.552 58.8446 354.742C58.2042 354.931 57.5795 355.17 56.9762 355.455L61.7577 358.216L62.6115 357.915C63.837 357.503 64.9822 357.162 66.057 356.911C67.0693 356.641 68.1055 356.469 69.1509 356.399C70.1061 356.34 71.065 356.404 72.0038 356.59C72.9623 356.797 73.8814 357.156 74.726 357.654C75.5393 358.075 76.231 358.697 76.7351 359.461C76.9078 359.737 77.0243 360.043 77.0777 360.364C77.1312 360.684 77.1205 361.012 77.0465 361.329C76.8407 362.033 76.4526 362.67 75.9214 363.176C75.2644 363.834 74.5329 364.414 73.7416 364.903L76.7552 366.66L75.0977 367.614L72.0841 365.847C70.6197 366.565 69.089 367.14 67.5136 367.564C65.8695 368.021 64.1891 368.337 62.491 368.507L60.8938 365.636C61.1851 365.636 61.6371 365.636 62.2298 365.535C62.8225 365.435 63.4955 365.345 64.2388 365.184C64.9822 365.023 65.7557 364.833 66.5693 364.592C67.3704 364.36 68.1528 364.068 68.9099 363.718L64.1585 360.977L63.5357 361.188L62.8827 361.389C61.6874 361.781 60.5824 362.092 59.5879 362.313C58.6682 362.53 57.7296 362.658 56.7853 362.694C55.9518 362.721 55.1183 362.644 54.3041 362.463C53.4979 362.269 52.7257 361.954 52.0138 361.53C51.2204 361.125 50.5325 360.54 50.0048 359.823C49.6135 359.293 49.4215 358.643 49.4623 357.985C49.5364 357.303 49.8088 356.657 50.2459 356.128C50.8108 355.432 51.482 354.828 52.2348 354.341L49.4121 352.714L51.0796 351.71L53.8521 353.407C55.1608 352.753 56.539 352.248 57.9606 351.901C59.3065 351.553 60.6764 351.304 62.059 351.158L63.4754 353.879ZM55.3388 358.899C55.968 359.262 56.6958 359.416 57.4181 359.341C58.3861 359.235 59.3394 359.023 60.2609 358.708L55.7808 356.118C54.1401 357.182 53.9927 358.106 55.3388 358.889V358.899ZM71.0495 360.204C70.3653 359.834 69.5799 359.693 68.8094 359.803C67.7504 359.945 66.7053 360.177 65.6853 360.495L70.1354 363.056C72.0339 361.891 72.3252 360.937 71.0495 360.194V360.204Z" fill="#14FF00"/>
<path d="M63.6463 383.267C86.6253 383.267 105.254 372.519 105.254 359.262C105.254 346.004 86.6253 335.256 63.6463 335.256C40.6673 335.256 22.0391 346.004 22.0391 359.262C22.0391 372.519 40.6673 383.267 63.6463 383.267Z" fill="#0C9300"/>
<path d="M22.0586 359.623V348.68L30.2756 355.999L22.0586 359.623Z" fill="#0C9300"/>
<path d="M105.254 348.971V359.262L101.055 363.72L98.9961 351.943L105.254 348.971Z" fill="#0C9300"/>
<path d="M63.6463 372.976C86.6253 372.976 105.254 362.228 105.254 348.97C105.254 335.713 86.6253 324.965 63.6463 324.965C40.6673 324.965 22.0391 335.713 22.0391 348.97C22.0391 362.228 40.6673 372.976 63.6463 372.976Z" fill="#76D36E"/>
<path d="M93.4212 349.714C92.9993 353.73 90.1163 357.746 84.7622 360.839C73.1199 367.545 54.265 367.545 42.6327 360.839C37.2685 357.736 34.3856 353.811 33.9737 349.714C33.4714 344.985 36.3645 340.146 42.6327 336.532C54.265 329.815 73.1199 329.815 84.7622 336.532C90.9903 340.146 93.8833 344.985 93.4212 349.714Z" fill="#0C9300"/>
<path d="M93.4202 349.713C92.9983 353.729 90.1153 357.745 84.7612 360.837C73.1188 367.544 54.264 367.544 42.6316 360.837C37.2675 357.735 34.3845 353.809 33.9727 349.713C34.3845 345.697 37.2675 341.681 42.6316 338.588C54.264 331.872 73.1188 331.872 84.7612 338.588C90.0751 341.691 92.9581 345.667 93.4202 349.713Z" fill="#0C9300"/>
<path d="M63.2145 344.091C62.8481 344.091 62.4821 344.118 62.1196 344.172C61.6374 344.242 61.1151 344.342 60.4822 344.473C59.8494 344.603 59.2366 344.764 58.5837 344.955C57.9445 345.147 57.32 345.385 56.7153 345.668L61.4968 348.388L62.3607 348.087C63.5761 347.686 64.7213 347.334 65.8062 347.083C66.8184 346.813 67.8546 346.641 68.9001 346.571C69.8519 346.517 70.8068 346.581 71.7429 346.762C72.7046 346.969 73.627 347.328 74.4752 347.826C75.2874 348.253 75.9785 348.878 76.4842 349.644C76.6579 349.918 76.7741 350.225 76.8259 350.546C76.8777 350.867 76.864 351.195 76.7856 351.511C76.6036 352.228 76.2324 352.883 75.7107 353.409C75.0585 354.072 74.3263 354.652 73.5309 355.135L76.5445 356.892L74.887 357.846L71.8132 356.079C70.3658 356.776 68.8556 357.334 67.3029 357.746C65.6588 358.203 63.9784 358.519 62.2803 358.69L60.6731 355.818C60.9644 355.818 61.4164 355.818 62.0191 355.718C62.6218 355.617 63.2848 355.527 64.0282 355.366C64.7715 355.206 65.545 355.015 66.3687 354.774C67.1665 354.542 67.9456 354.25 68.6992 353.9L63.9478 351.16L63.2848 351.401L62.6319 351.601C61.4365 351.993 60.3416 352.304 59.3471 352.525C58.4241 352.743 57.4821 352.87 56.5344 352.907C55.7043 352.934 54.874 352.856 54.0633 352.676C53.2545 352.48 52.4792 352.165 51.763 351.742C50.9716 351.334 50.2843 350.75 49.7539 350.035C49.3701 349.502 49.1821 348.853 49.2215 348.198C49.2866 347.513 49.56 346.865 50.0051 346.34C50.5547 345.656 51.209 345.063 51.9438 344.583L49.1211 342.957L50.7785 341.953L53.5711 343.569C54.8805 342.917 56.2585 342.412 57.6796 342.063C59.0287 341.714 60.402 341.465 61.7881 341.32L63.2145 344.091ZM55.0879 349.111C55.7133 349.475 56.438 349.629 57.1573 349.553C58.1283 349.446 59.0849 349.234 60.0101 348.921L55.5299 346.33C53.8825 347.385 53.7419 348.318 55.0879 349.101V349.111ZM70.7886 350.397C70.1048 350.024 69.319 349.884 68.5485 349.995C67.4897 350.138 66.4447 350.37 65.4244 350.688L69.8845 353.258C71.7864 352.1 72.0878 351.146 70.7886 350.397Z" fill="#0C9300"/>
<path d="M60.6426 355.818C60.6928 355.697 60.6426 354.201 60.6426 354.201L62.4708 355.416L61.6772 356.641L60.6426 355.818Z" fill="#0C9300"/>
<path d="M76.575 356.841V355.225L72.6172 355.526L74.8874 357.072L76.575 356.841Z" fill="#0C9300"/>
<path d="M76.9067 350.917V349.291L73.9434 350.365L76.9067 350.917Z" fill="#0C9300"/>
<path d="M64.6406 350.838L65.6451 349.895L69.1208 352.294L68.8998 352.997C68.8998 352.997 66.2981 351.903 66.1976 351.842L64.6406 350.838Z" fill="#0C9300"/>
<path d="M55.5391 345.758L60.1498 348.368L61.0941 347.686C61.0941 347.686 60.5215 347.023 60.4713 346.953C60.0575 346.482 59.5729 346.079 59.0348 345.758C58.6933 345.688 56.5034 344.754 56.5034 344.754L55.5391 345.758Z" fill="#0C9300"/>
<path d="M63.2142 344.09V342.474L61.0946 341.791L60.6426 343.056L60.7531 343.628L63.2142 344.09Z" fill="#0C9300"/>
<path d="M49.1406 342.927V341.311L51.5917 341.572L50.7981 343.138L49.1406 342.927Z" fill="#0C9300"/>
<path d="M49.2207 348.388V346.711H52.0334L51.3503 348.207L50.1248 349.552L49.2207 348.388Z" fill="#0C9300"/>
<path d="M63.214 342.474C62.8471 342.474 62.4808 342.504 62.119 342.565C61.6369 342.635 61.1145 342.736 60.4817 342.856C59.8488 342.976 59.2361 343.147 58.5831 343.348C57.9441 343.537 57.3197 343.772 56.7147 344.051L61.4962 346.812L62.3601 346.511C63.5756 346.109 64.7207 345.768 65.8056 345.507C66.8179 345.236 67.8541 345.064 68.8995 344.995C69.8514 344.93 70.8076 344.994 71.7423 345.185C72.7054 345.388 73.6285 345.747 74.4746 346.25C75.2859 346.673 75.977 347.295 76.4837 348.057C76.6573 348.332 76.7736 348.639 76.8254 348.96C76.8772 349.281 76.8634 349.609 76.785 349.924C76.5771 350.627 76.1893 351.264 75.66 351.772C75.0046 352.429 74.2728 353.005 73.4802 353.488L76.4937 355.245L74.8363 356.199L71.8428 354.412C70.3879 355.131 68.8675 355.709 67.3024 356.139C65.658 356.593 63.9776 356.906 62.2798 357.073L60.6725 354.201C61.1227 354.192 61.572 354.158 62.0186 354.101C62.6113 354.031 63.2843 353.92 64.0276 353.759C64.771 353.599 65.5444 353.398 66.3682 353.157C67.1657 352.929 67.9448 352.64 68.6986 352.294L63.9473 349.543L63.3245 349.764L62.6715 349.964C61.4761 350.356 60.3812 350.657 59.3867 350.888C58.4625 351.098 57.521 351.222 56.5741 351.259C55.7438 351.292 54.9128 351.214 54.103 351.029C53.2959 350.832 52.5213 350.521 51.8026 350.105C51.0134 349.694 50.3268 349.11 49.7936 348.398C49.4105 347.861 49.2226 347.209 49.2612 346.551C49.3262 345.866 49.5997 345.218 50.0447 344.693C50.597 344.012 51.2509 343.419 51.9834 342.936L49.1406 341.36L50.7981 340.406L53.5907 342.013C54.9038 341.369 56.2808 340.864 57.6991 340.507C59.0503 340.167 60.423 339.919 61.8076 339.764L63.214 342.474ZM55.0874 347.494C55.7133 347.857 56.4367 348.015 57.1567 347.946C58.1272 347.83 59.0832 347.615 60.0095 347.304L55.5294 344.723C53.882 345.788 53.7413 346.711 55.0874 347.484V347.494ZM70.788 348.8C70.1046 348.427 69.3174 348.289 68.548 348.408C67.4885 348.543 66.443 348.771 65.4239 349.091L69.884 351.661C71.7859 350.503 72.0872 349.546 70.788 348.79V348.8Z" fill="#14FF00"/>
<path d="M64.8924 370.447C87.8714 370.447 106.5 359.699 106.5 346.441C106.5 333.183 87.8714 322.436 64.8924 322.436C41.9133 322.436 23.2852 333.183 23.2852 346.441C23.2852 359.699 41.9133 370.447 64.8924 370.447Z" fill="#0C9300"/>
<path d="M23.3047 346.813V335.869L31.5217 343.188L23.3047 346.813Z" fill="#0C9300"/>
<path d="M106.5 336.15V346.441L102.301 350.899L100.242 339.122L106.5 336.15Z" fill="#0C9300"/>
<path d="M64.8924 360.156C87.8714 360.156 106.5 349.408 106.5 336.15C106.5 322.892 87.8714 312.145 64.8924 312.145C41.9133 312.145 23.2852 322.892 23.2852 336.15C23.2852 349.408 41.9133 360.156 64.8924 360.156Z" fill="#76D36E"/>
<path d="M94.6264 336.904C94.2045 340.92 91.3216 344.936 85.9574 348.018C74.3251 354.735 55.4702 354.735 43.8379 348.018C38.4738 344.926 35.5908 340.94 35.1789 336.904C34.6767 332.165 37.5596 327.326 43.8379 323.721C55.4702 317.004 74.3251 317.004 85.9574 323.721C92.2256 327.305 95.1187 332.165 94.6264 336.904Z" fill="#0C9300"/>
<path d="M94.6252 336.904C94.2034 340.92 91.3204 344.936 85.9562 348.018C74.3239 354.735 55.469 354.735 43.8367 348.018C38.4726 344.926 35.5896 340.94 35.1777 336.904C35.5896 332.888 38.4726 328.872 43.8367 325.779C55.469 319.053 74.3239 319.053 85.9562 325.779C91.3204 328.872 94.2034 332.858 94.6252 336.904Z" fill="#0C9300"/>
<path d="M64.4609 331.32C64.094 331.32 63.7278 331.35 63.366 331.411C62.8838 331.481 62.3614 331.581 61.7185 331.702C61.0756 331.822 60.483 331.993 59.83 332.194C59.1908 332.386 58.5664 332.624 57.9616 332.907L62.7431 335.668L63.607 335.356C64.8259 334.955 65.971 334.62 67.0425 334.352C68.0582 334.082 69.0977 333.91 70.1465 333.84C71.0983 333.781 72.0539 333.845 72.9893 334.031C73.9484 334.236 74.8679 334.595 75.7115 335.095C76.5438 335.512 77.256 336.134 77.7808 336.903C78.1221 337.462 78.2303 338.132 78.0822 338.77C77.8742 339.473 77.4864 340.11 76.9571 340.617C76.2997 341.272 75.5682 341.849 74.7773 342.334L77.7909 344.091L76.1234 345.095L73.1098 343.318C71.6485 344.038 70.1213 344.617 68.5493 345.045C66.9037 345.496 65.2239 345.812 63.5267 345.989L61.9194 343.117C62.3664 343.104 62.8123 343.067 63.2555 343.007C63.8582 342.937 64.5312 342.826 65.2645 342.666C65.9978 342.505 66.7813 342.304 67.605 342.063C68.4035 341.837 69.1828 341.549 69.9355 341.2L65.154 338.348L64.5312 338.569L63.8783 338.77C62.6829 339.162 61.588 339.473 60.5834 339.694C59.6635 339.908 58.7249 340.033 57.7808 340.065C56.9505 340.098 56.1196 340.02 55.3097 339.834C54.5007 339.644 53.7251 339.333 53.0094 338.911C52.2182 338.502 51.531 337.918 51.0003 337.204C50.6137 336.668 50.4222 336.016 50.4579 335.356C50.5331 334.673 50.8092 334.026 51.2514 333.499C51.8228 332.814 52.4932 332.219 53.2404 331.732L50.4277 330.106L52.0852 329.102L54.8778 330.708C56.1902 330.062 57.5674 329.558 58.9862 329.202C60.3374 328.862 61.7101 328.614 63.0947 328.459L64.4609 331.32ZM56.3343 336.34C56.9603 336.702 57.6836 336.86 58.4036 336.792C59.3749 336.681 60.3314 336.466 61.2565 336.15L56.7763 333.569C55.1289 334.583 54.9883 335.507 56.3343 336.28V336.34ZM72.035 337.656C71.3527 337.279 70.5654 337.138 69.7949 337.254C68.736 337.392 67.6909 337.621 66.6708 337.937L71.1209 340.507C73.0194 339.292 73.3308 338.348 72.035 337.595V337.656Z" fill="#0C9300"/>
<path d="M61.8887 343.007C61.8887 342.887 61.8887 341.391 61.8887 341.391L63.7169 342.565L62.9233 343.79L61.8887 343.007Z" fill="#0C9300"/>
<path d="M77.8211 344.022V342.416L73.8633 342.717L76.1335 344.263L77.8211 344.022Z" fill="#0C9300"/>
<path d="M78.1528 338.107V336.471L75.1895 337.545L78.1528 338.107Z" fill="#0C9300"/>
<path d="M65.877 338.018L66.8815 337.074L70.3169 339.474L70.106 340.187C70.106 340.187 67.5143 339.092 67.4239 339.032C67.3335 338.972 65.877 338.018 65.877 338.018Z" fill="#0C9300"/>
<path d="M56.7852 332.938L61.3959 335.548L62.3402 334.865C62.3402 334.865 61.7575 334.203 61.7174 334.142C61.3044 333.668 60.8197 333.262 60.2809 332.938C59.9393 332.877 57.7495 331.934 57.7495 331.934L56.7852 332.938Z" fill="#0C9300"/>
<path d="M64.4602 331.27V329.663L62.3407 328.971L61.8887 330.236L61.9992 330.818L64.4602 331.27Z" fill="#0C9300"/>
<path d="M50.3867 330.106V328.5L52.8377 328.761L52.0442 330.327L50.3867 330.106Z" fill="#0C9300"/>
<path d="M50.4766 335.577V333.9H53.2892L52.6061 335.406L51.3806 336.742L50.4766 335.577Z" fill="#0C9300"/>
<path d="M64.4609 329.664C64.0944 329.665 63.7285 329.691 63.366 329.745C62.8838 329.815 62.3614 329.915 61.7185 330.046C61.0756 330.177 60.483 330.337 59.83 330.528C59.1924 330.725 58.5682 330.963 57.9616 331.241L62.7431 334.002L63.607 333.701C64.8225 333.299 65.9677 332.948 67.0425 332.697C68.0582 332.426 69.0977 332.254 70.1465 332.184C71.0988 332.128 72.0543 332.196 72.9893 332.385C73.9492 332.582 74.8693 332.939 75.7115 333.439C76.5425 333.863 77.254 334.488 77.7808 335.257C78.1221 335.816 78.2303 336.486 78.0822 337.124C77.8761 337.825 77.4879 338.459 76.9571 338.961C76.3027 339.623 75.5708 340.203 74.7773 340.688L77.7909 342.445L76.1234 343.399L73.1098 341.632C71.6424 342.357 70.1084 342.939 68.5292 343.369C66.8847 343.825 65.2045 344.141 63.5066 344.313L61.8893 341.361C62.3361 341.352 62.7822 341.318 63.2253 341.261C63.828 341.19 64.5011 341.07 65.2344 340.909C65.9677 340.749 66.7512 340.558 67.5749 340.317C68.3721 340.083 69.1511 339.791 69.9054 339.443L65.154 336.702L64.5312 336.913L63.8783 337.114C62.6829 337.506 61.588 337.817 60.5834 338.038C59.6638 338.255 58.7252 338.383 57.7808 338.419C56.9507 338.447 56.1204 338.369 55.3097 338.188C54.5021 337.994 53.7272 337.683 53.0094 337.265C52.2153 336.856 51.5274 336.268 51.0003 335.548C50.6137 335.016 50.4221 334.367 50.4579 333.711C50.5313 333.026 50.8077 332.379 51.2514 331.853C51.8203 331.177 52.4914 330.595 53.2404 330.126L50.4277 328.5L52.0852 327.496L54.8778 329.112C56.1865 328.458 57.5646 327.953 58.9862 327.606C60.3364 327.262 61.7093 327.013 63.0947 326.863L64.4609 329.664ZM56.3343 334.684C56.9596 335.048 57.6844 335.202 58.4036 335.126C59.3747 335.019 60.3313 334.807 61.2565 334.494L56.7763 331.903C55.1289 332.968 54.9883 333.891 56.3343 334.674V334.684ZM72.035 335.99C71.3512 335.618 70.5654 335.477 69.7949 335.588C68.7359 335.731 67.6908 335.962 66.6708 336.281L71.1209 338.851C73.0194 337.676 73.3308 336.723 72.035 335.98V335.99Z" fill="#14FF00"/>
<path d="M62.3397 358.126C85.3187 358.126 103.947 347.379 103.947 334.121C103.947 320.863 85.3187 310.115 62.3397 310.115C39.3606 310.115 20.7324 320.863 20.7324 334.121C20.7324 347.379 39.3606 358.126 62.3397 358.126Z" fill="#0C9300"/>
<path d="M20.752 334.483V323.539L28.9689 330.858L20.752 334.483Z" fill="#0C9300"/>
<path d="M103.948 323.83V334.121L99.7487 338.579L97.6895 326.802L103.948 323.83Z" fill="#0C9300"/>
<path d="M62.3397 347.836C85.3187 347.836 103.947 337.088 103.947 323.83C103.947 310.572 85.3187 299.824 62.3397 299.824C39.3606 299.824 20.7324 310.572 20.7324 323.83C20.7324 337.088 39.3606 347.836 62.3397 347.836Z" fill="#76D36E"/>
<path d="M92.0737 324.574C91.6518 328.59 88.7688 332.606 83.4047 335.698C71.7723 342.405 52.9175 342.405 41.2851 335.698C35.921 332.596 33.038 328.62 32.6262 324.574C32.1139 319.835 35.0069 315.005 41.2851 311.391C52.9175 304.674 71.7723 304.674 83.4047 311.391C89.6729 315.005 92.5659 319.835 92.0737 324.574Z" fill="#0C9300"/>
<path d="M92.0725 324.572C91.6506 328.588 88.7677 332.604 83.4035 335.696C71.7712 342.403 52.9163 342.403 41.284 335.696C35.9198 332.594 33.0369 328.618 32.625 324.572C33.0369 320.556 35.9198 316.54 41.284 313.448C52.9163 306.731 71.7712 306.731 83.4035 313.448C88.7677 316.55 91.6506 320.526 92.0725 324.572Z" fill="#0C9300"/>
<path d="M61.9084 318.951C61.5418 318.946 61.1755 318.973 60.8135 319.031C60.3213 319.101 59.809 319.202 59.1661 319.332C58.5232 319.463 57.9305 319.623 57.2776 319.814C56.6384 320.006 56.014 320.245 55.4092 320.527L60.1907 323.288L61.0546 322.987C62.2701 322.585 63.4152 322.234 64.49 321.983C65.5057 321.712 66.5452 321.541 67.594 321.471C68.5459 321.417 69.5007 321.481 70.4368 321.662C71.3953 321.869 72.3144 322.228 73.1591 322.726C73.9733 323.15 74.6651 323.775 75.1681 324.543C75.3409 324.818 75.4573 325.125 75.5108 325.446C75.5642 325.766 75.5536 326.094 75.4795 326.41C75.2712 327.11 74.8834 327.744 74.3544 328.248C73.6974 328.906 72.9659 329.486 72.1746 329.975L75.1882 331.732L73.5207 332.685L70.5071 330.918C69.0427 331.637 67.512 332.212 65.9366 332.635C64.2925 333.093 62.6121 333.409 60.914 333.579L59.3168 330.708C59.6081 330.708 60.0601 330.708 60.6528 330.607C61.2455 330.507 61.9285 330.416 62.6618 330.256C63.3951 330.095 64.1786 329.904 65.0024 329.663C65.7996 329.43 66.5785 329.138 67.3328 328.79L62.5815 326.049L61.9587 326.26L61.3057 326.461C60.1103 326.852 59.0154 327.163 58.0109 327.384C57.0912 327.602 56.1526 327.73 55.2083 327.766C54.3781 327.793 53.5478 327.716 52.7372 327.535C51.9272 327.343 51.1514 327.028 50.4368 326.601C49.6434 326.196 48.9555 325.612 48.4278 324.894C48.0411 324.362 47.8496 323.714 47.8853 323.057C47.9588 322.373 48.2351 321.726 48.6789 321.2C49.2247 320.516 49.8757 319.923 50.6076 319.443L47.7949 317.816L49.4524 316.812L52.2449 318.429C53.5537 317.774 54.9318 317.269 56.3534 316.923C57.6993 316.574 59.0692 316.326 60.4519 316.18L61.9084 318.951ZM53.7718 323.971C54.401 324.333 55.1288 324.488 55.8512 324.412C56.8191 324.307 57.7725 324.094 58.694 323.78L54.2439 321.18C52.5898 322.257 52.4325 323.184 53.7718 323.961V323.971ZM69.4825 325.296C68.7983 324.925 68.0129 324.785 67.2424 324.894C66.1834 325.037 65.1383 325.269 64.1184 325.587L68.5684 328.157C70.467 326.963 70.7784 326.009 69.4825 325.296Z" fill="#0C9300"/>
<path d="M59.3359 330.677C59.3359 330.556 59.3359 329.061 59.3359 329.061L61.1642 330.235L60.3706 331.46L59.3359 330.677Z" fill="#0C9300"/>
<path d="M75.2586 331.7V330.084L71.3008 330.385L73.581 331.931L75.2586 331.7Z" fill="#0C9300"/>
<path d="M75.6001 325.777V324.15L72.6367 325.225L75.6001 325.777Z" fill="#0C9300"/>
<path d="M63.2832 325.698L64.2877 324.754L67.7634 327.153L67.5524 327.856C67.5524 327.856 64.9608 326.762 64.8703 326.702C64.7799 326.641 63.2832 325.698 63.2832 325.698Z" fill="#0C9300"/>
<path d="M54.2441 320.608L58.8549 323.228L59.7991 322.545C59.7991 322.545 59.2165 321.873 59.1763 321.812C58.7606 321.341 58.2763 320.935 57.7399 320.608C57.3983 320.547 55.2085 319.604 55.2085 319.604L54.2441 320.608Z" fill="#0C9300"/>
<path d="M61.9075 318.95V317.333L59.788 316.641L59.3359 317.906L59.4464 318.488L61.9075 318.95Z" fill="#0C9300"/>
<path d="M47.834 317.786V316.17L50.285 316.431L49.4914 317.997L47.834 317.786Z" fill="#0C9300"/>
<path d="M47.9238 323.287V321.58H50.7365L50.0534 323.076L48.8279 324.421L47.9238 323.287Z" fill="#0C9300"/>
<path d="M61.907 317.334C61.5402 317.333 61.1739 317.364 60.8121 317.424C60.3199 317.494 59.8076 317.585 59.1647 317.715C58.5218 317.846 57.9291 318.007 57.2762 318.207C56.6372 318.396 56.0128 318.631 55.4078 318.91L60.1893 321.671L61.0532 321.37C62.2653 320.968 63.4105 320.634 64.4887 320.366C65.5043 320.095 66.5438 319.924 67.5926 319.854C68.5445 319.79 69.5007 319.854 70.4354 320.045C71.3953 320.247 72.3151 320.607 73.1577 321.109C73.971 321.53 74.6627 322.152 75.1667 322.916C75.3395 323.191 75.4559 323.498 75.5094 323.819C75.5628 324.139 75.5522 324.467 75.4781 324.783C75.272 325.484 74.8838 326.118 74.353 326.621C73.712 327.265 72.9972 327.831 72.2235 328.308L75.237 330.065L73.5695 331.069L70.556 329.301C69.0918 330.023 67.5612 330.602 65.9854 331.028C64.3399 331.478 62.66 331.79 60.9628 331.962L59.3656 329.091C59.8124 329.082 60.2584 329.048 60.7016 328.99C61.3043 328.92 61.9774 328.81 62.7107 328.649C63.444 328.488 64.2275 328.287 65.0512 328.046C65.8467 327.812 66.6253 327.523 67.3817 327.183L62.6303 324.432L62.0075 324.653L61.3546 324.844C60.1592 325.245 59.0642 325.547 58.0597 325.777C57.1389 325.987 56.2007 326.111 55.2571 326.149C54.4268 326.182 53.5958 326.104 52.786 325.918C51.9778 325.725 51.2027 325.414 50.4856 324.994C49.6945 324.586 49.0072 324.002 48.4766 323.288C48.0914 322.751 47.9001 322.1 47.9342 321.44C48.0076 320.756 48.2839 320.109 48.7277 319.583C49.2763 318.901 49.9268 318.309 50.6564 317.826L47.8438 316.199L49.5012 315.195L52.2938 316.802C53.6043 316.152 54.982 315.647 56.4023 315.296C57.7492 314.952 59.1188 314.704 60.5007 314.553L61.907 317.334ZM53.7704 322.354C54.4004 322.715 55.1266 322.873 55.8498 322.806C56.8171 322.69 57.7698 322.475 58.6926 322.163L54.2425 319.573C52.5884 320.644 52.4311 321.567 53.7704 322.344V322.354ZM69.4811 323.659C68.7974 323.287 68.0105 323.149 67.241 323.267C66.1813 323.401 65.1358 323.63 64.117 323.95L68.567 326.52C70.4656 325.346 70.777 324.402 69.4811 323.649V323.659Z" fill="#14FF00"/>
<path d="M65.8357 346.902C88.8148 346.902 107.443 336.154 107.443 322.896C107.443 309.638 88.8148 298.891 65.8357 298.891C42.8567 298.891 24.2285 309.638 24.2285 322.896C24.2285 336.154 42.8567 346.902 65.8357 346.902Z" fill="#0C9300"/>
<path d="M24.2383 323.268V312.324L32.4553 319.643L24.2383 323.268Z" fill="#0C9300"/>
<path d="M107.444 312.615V322.896L103.235 327.364L101.176 315.577L107.444 312.615Z" fill="#0C9300"/>
<path d="M65.8357 336.621C88.8148 336.621 107.443 325.873 107.443 312.615C107.443 299.357 88.8148 288.609 65.8357 288.609C42.8567 288.609 24.2285 299.357 24.2285 312.615C24.2285 325.873 42.8567 336.621 65.8357 336.621Z" fill="#76D36E"/>
<path d="M95.5699 313.359C95.148 317.375 92.2651 321.391 86.9009 324.483C75.2686 331.19 56.4037 331.19 44.7713 324.483C39.4072 321.381 36.5242 317.395 36.1124 313.359C35.6101 308.62 38.5031 303.791 44.7713 300.176C56.4037 293.459 75.2686 293.459 86.9009 300.176C93.1691 303.791 96.0621 308.62 95.5699 313.359Z" fill="#0C9300"/>
<path d="M95.5689 313.357C95.147 317.373 92.264 321.389 86.8999 324.482C75.2675 331.188 56.4026 331.188 44.7703 324.482C39.4062 321.379 36.5232 317.393 36.1113 313.357C36.5232 309.341 39.4062 305.325 44.7703 302.233C56.4026 295.516 75.2675 295.516 86.8999 302.233C92.264 305.325 95.147 309.311 95.5689 313.357Z" fill="#0C9300"/>
<path d="M65.3936 307.726C65.0301 307.725 64.6672 307.755 64.3088 307.816C63.8165 307.886 63.3042 307.987 62.6614 308.117C62.0206 308.245 61.3869 308.406 60.7628 308.599C60.1236 308.792 59.4992 309.03 58.8944 309.312L63.686 312.073L64.5398 311.772C65.7553 311.36 66.9004 311.019 67.9853 310.768C68.9976 310.497 70.0338 310.326 71.0792 310.256C72.0344 310.197 72.9932 310.261 73.9321 310.447C74.8901 310.655 75.8089 311.015 76.6543 311.511C77.4656 311.935 78.1566 312.556 78.6634 313.318C78.837 313.593 78.9533 313.9 79.005 314.221C79.0568 314.542 79.0431 314.87 78.9647 315.186C78.7609 315.888 78.3765 316.525 77.8497 317.033C77.1891 317.691 76.4542 318.271 75.6598 318.76L78.6734 320.507L77.0159 321.511L73.9421 319.734C72.4816 320.456 70.9542 321.034 69.3816 321.461C67.7375 321.918 66.0571 322.234 64.359 322.404L62.7518 319.533C63.202 319.519 63.6513 319.482 64.0978 319.422C64.6905 319.352 65.3635 319.242 66.1069 319.081C66.8502 318.92 67.6237 318.72 68.4474 318.489C69.2479 318.255 70.0301 317.963 70.7879 317.615L66.0265 314.874L65.4037 315.085C65.1927 315.155 64.9818 315.226 64.7508 315.286C63.5554 315.678 62.4604 315.989 61.466 316.21C60.5428 316.425 59.6007 316.549 58.6533 316.581C57.8425 316.578 57.0355 316.47 56.2525 316.26C55.4467 316.069 54.6745 315.758 53.9622 315.336C53.1716 314.927 52.4846 314.343 51.9532 313.629C51.5693 313.096 51.3813 312.447 51.4208 311.792C51.4876 311.105 51.7607 310.454 52.2043 309.925C52.7609 309.264 53.4146 308.692 54.143 308.228L51.3203 306.591L52.9778 305.638L55.7703 307.224C57.082 306.574 58.4593 306.066 59.8788 305.708C61.2302 305.369 62.6028 305.121 63.9873 304.965L65.3936 307.726ZM57.2671 312.746C57.8941 313.104 58.6174 313.259 59.3364 313.188C60.3079 313.078 61.2645 312.862 62.1892 312.545L57.7091 309.965C56.0683 311.042 55.9177 311.969 57.257 312.746H57.2671ZM72.9778 314.051C72.2933 313.681 71.5081 313.54 70.7377 313.649C69.6786 313.787 68.6334 314.015 67.6136 314.332L72.0637 316.902C73.9589 315.751 74.2636 314.801 72.9778 314.051Z" fill="#0C9300"/>
<path d="M62.8223 319.462C62.8725 319.342 62.8223 317.846 62.8223 317.846L64.6505 319.02L63.8569 320.275L62.8223 319.462Z" fill="#0C9300"/>
<path d="M78.7547 320.476V318.869L74.7969 319.17L77.0671 320.716L78.7547 320.476Z" fill="#0C9300"/>
<path d="M79.0844 314.562V312.936L76.1211 314L79.0844 314.562Z" fill="#0C9300"/>
<path d="M66.8203 314.473L67.8248 313.529L71.3005 315.939L71.0795 316.642C71.0795 316.642 68.4878 315.547 68.4075 315.487C68.3271 315.427 66.8203 314.473 66.8203 314.473Z" fill="#0C9300"/>
<path d="M57.7188 309.393L62.3295 312.003L63.2738 311.32C63.2738 311.32 62.7012 310.658 62.661 310.597C62.244 310.124 61.7561 309.717 61.2145 309.393C60.8729 309.332 58.6931 308.389 58.6931 308.389L57.7188 309.393Z" fill="#0C9300"/>
<path d="M65.3938 307.725V306.119L63.2743 305.426L62.8223 306.691L62.9328 307.273L65.3938 307.725Z" fill="#0C9300"/>
<path d="M51.3203 306.561V304.955L53.7814 305.216L52.9878 306.782L51.3203 306.561Z" fill="#0C9300"/>
<path d="M51.4102 312.042V310.355H54.2429L53.5598 311.861L52.3142 313.247L51.4102 312.042Z" fill="#0C9300"/>
<path d="M65.3942 306.118C65.0237 306.12 64.654 306.153 64.2892 306.219C63.797 306.279 63.2847 306.379 62.6418 306.51C61.9989 306.641 61.3962 306.801 60.7433 306.992C60.1056 307.189 59.4815 307.427 58.8749 307.705L63.6664 310.466L64.5203 310.165C65.7357 309.763 66.8809 309.422 67.9658 309.161C68.9773 308.888 70.014 308.72 71.0597 308.659C72.0149 308.595 72.9744 308.659 73.9125 308.849C74.8715 309.05 75.7911 309.406 76.6348 309.904C77.445 310.333 78.1355 310.958 78.6438 311.721C78.8175 311.996 78.9337 312.303 78.9855 312.624C79.0373 312.945 79.0236 313.273 78.9452 313.588C78.7433 314.289 78.3584 314.923 77.8302 315.426C77.1721 316.087 76.4369 316.667 75.6403 317.152L78.6539 318.909L76.9964 319.863L73.9226 318.096C72.4635 318.819 70.9357 319.394 69.3621 319.813C67.718 320.271 66.0376 320.587 64.3395 320.757L62.7322 317.885C63.1824 317.876 63.6318 317.843 64.0783 317.785C64.6709 317.715 65.344 317.604 66.0873 317.444C66.8307 317.283 67.6042 317.082 68.4279 316.841C69.2283 316.608 70.0106 316.316 70.7684 315.968L66.007 313.227C65.8061 313.297 65.5951 313.377 65.3842 313.438C65.1732 313.498 64.9623 313.578 64.7312 313.638C63.5358 314.03 62.4409 314.341 61.4464 314.562C60.5235 314.78 59.5815 314.908 58.6338 314.944C57.8036 314.971 56.9733 314.894 56.1627 314.713C55.3583 314.518 54.5867 314.207 53.8724 313.789C53.0848 313.375 52.3988 312.792 51.8633 312.082C51.4802 311.545 51.2924 310.893 51.3309 310.235C51.396 309.55 51.6694 308.902 52.1144 308.377C52.6641 307.693 53.3184 307.1 54.0532 306.62L51.2305 304.994L52.8879 303.99L55.6805 305.606C56.9906 304.955 58.3684 304.45 59.789 304.1C61.1393 303.757 62.5122 303.508 63.8975 303.357L65.3942 306.118ZM57.2676 311.138C57.893 311.502 58.6177 311.656 59.3369 311.58C60.3082 311.475 61.2649 311.262 62.1898 310.948L57.7096 308.357C56.0723 309.422 55.9216 310.355 57.2576 311.128L57.2676 311.138ZM72.9783 312.444C72.2939 312.074 71.5087 311.933 70.7382 312.042C69.679 312.183 68.6339 312.415 67.6142 312.735L72.0642 315.255C73.9594 314.117 74.2641 313.177 72.9783 312.434V312.444Z" fill="#14FF00"/>
<path d="M63.6365 335.447C86.6156 335.447 105.244 324.699 105.244 311.441C105.244 298.183 86.6156 287.436 63.6365 287.436C40.6575 287.436 22.0293 298.183 22.0293 311.441C22.0293 324.699 40.6575 335.447 63.6365 335.447Z" fill="#0C9300"/>
<path d="M22.0488 311.803V300.869L30.2658 308.178L22.0488 311.803Z" fill="#0C9300"/>
<path d="M105.245 301.15V311.441L101.046 315.899L98.9863 304.122L105.245 301.15Z" fill="#0C9300"/>
<path d="M63.6365 325.156C86.6156 325.156 105.244 314.408 105.244 301.15C105.244 287.892 86.6156 277.145 63.6365 277.145C40.6575 277.145 22.0293 287.892 22.0293 301.15C22.0293 314.408 40.6575 325.156 63.6365 325.156Z" fill="#76D36E"/>
<path d="M93.4212 301.894C92.9993 305.91 90.1163 309.926 84.7522 313.018C73.1199 319.725 54.265 319.725 42.6327 313.018C37.2685 309.926 34.3856 305.99 33.9737 301.894C33.4714 297.165 36.3645 292.326 42.6327 288.711C54.265 281.995 73.1199 281.995 84.7522 288.711C90.9802 292.326 93.8733 297.185 93.4212 301.894Z" fill="#0C9300"/>
<path d="M93.4202 301.892C92.9983 305.908 90.1153 309.924 84.7512 313.017C73.1188 319.723 54.264 319.723 42.6316 313.017C37.2675 309.924 34.3845 305.989 33.9727 301.892C34.3845 297.876 37.2675 293.86 42.6316 290.768C54.264 284.051 73.1188 284.051 84.7512 290.768C90.0651 293.87 92.948 297.856 93.4202 301.892Z" fill="#0C9300"/>
<path d="M63.2036 296.271C62.8368 296.27 62.4705 296.3 62.1087 296.361C61.6265 296.431 61.1042 296.522 60.4613 296.652C59.8184 296.783 59.2257 296.943 58.5728 297.144C57.9338 297.333 57.3094 297.568 56.7044 297.847L61.4859 300.608L62.3498 300.307C63.5686 299.905 64.7137 299.571 65.7852 299.303C66.8011 299.033 67.8405 298.862 68.8892 298.791C69.8411 298.727 70.7972 298.791 71.732 298.982C72.6924 299.182 73.6125 299.542 74.4543 300.046C75.2865 300.463 75.9987 301.085 76.5236 301.853C76.8648 302.412 76.9731 303.083 76.8249 303.72C76.6188 304.421 76.2306 305.055 75.6999 305.558C75.0441 306.2 74.312 306.76 73.52 307.224L76.5336 308.981L74.8761 309.935L71.8325 308.228C70.3801 308.94 68.8631 309.512 67.3021 309.935C65.6566 310.385 63.9766 310.697 62.2795 310.869L60.6722 307.997C61.1191 307.988 61.5651 307.955 62.0082 307.897C62.611 307.827 63.284 307.716 64.0173 307.556C64.7506 307.395 65.5341 307.194 66.3578 306.953C67.1533 306.719 67.932 306.43 68.6883 306.09L63.9369 303.339L63.3141 303.56L62.6612 303.751C61.4658 304.152 60.3709 304.453 59.3764 304.684C58.4521 304.893 57.5106 305.018 56.5637 305.056C55.7334 305.088 54.9025 305.011 54.0926 304.825C53.2856 304.628 52.511 304.317 51.7923 303.901C51.0031 303.49 50.3164 302.907 49.7832 302.194C49.4051 301.654 49.2145 301.006 49.2408 300.347C49.3142 299.663 49.5906 299.016 50.0344 298.49C50.5867 297.808 51.2406 297.215 51.9731 296.733L49.1504 295.106L50.8079 294.152L53.6004 295.759C54.9117 295.11 56.2892 294.605 57.7089 294.253C59.059 293.908 60.432 293.66 61.8174 293.51L63.2036 296.271ZM55.0771 301.291C55.703 301.653 56.4264 301.811 57.1464 301.743C58.1169 301.627 59.0728 301.411 59.9992 301.1L55.519 298.52C53.8716 299.584 53.731 300.508 55.0771 301.281V301.291ZM70.7777 302.596C70.0943 302.223 69.3071 302.086 68.5376 302.204C67.4779 302.338 66.4324 302.566 65.4136 302.887L69.8636 305.457C71.7621 304.283 72.0735 303.339 70.7777 302.586V302.596Z" fill="#0C9300"/>
<path d="M60.6328 307.997C60.6328 307.887 60.6328 306.391 60.6328 306.391L62.461 307.565L61.6675 308.78L60.6328 307.997Z" fill="#0C9300"/>
<path d="M76.5652 309.021V307.404L72.6074 307.716L74.8776 309.262L76.5652 309.021Z" fill="#0C9300"/>
<path d="M76.8969 303.097V301.471L73.9336 302.545L76.8969 303.097Z" fill="#0C9300"/>
<path d="M64.6211 303.018L65.6256 302.074L69.1012 304.474L68.8802 305.187C68.8802 305.187 66.2886 304.092 66.1982 304.022L64.6211 303.018Z" fill="#0C9300"/>
<path d="M55.5293 297.938L60.14 300.548L61.0843 299.865C61.0843 299.865 60.5117 299.203 60.4615 299.132C60.0477 298.662 59.5631 298.259 59.025 297.938C58.6835 297.867 56.4936 296.934 56.4936 296.934L55.5293 297.938Z" fill="#0C9300"/>
<path d="M63.2044 296.27V294.653L61.0848 293.971L60.6328 295.236L60.7433 295.808L63.2044 296.27Z" fill="#0C9300"/>
<path d="M49.1309 295.107V293.49L51.5819 293.751L50.7883 295.318L49.1309 295.107Z" fill="#0C9300"/>
<path d="M49.2207 300.577V298.9H52.0334L51.3503 300.396L50.1248 301.742L49.2207 300.577Z" fill="#0C9300"/>
<path d="M63.2042 294.655C62.8373 294.655 62.4711 294.685 62.1093 294.745C61.6271 294.816 61.1047 294.916 60.4618 295.047C59.8246 295.175 59.1943 295.336 58.5733 295.528C57.9341 295.721 57.3097 295.959 56.7049 296.241L61.4865 299.002L62.3503 298.701C63.5658 298.289 64.711 297.948 65.7858 297.697C66.8016 297.427 67.8411 297.256 68.8898 297.185C69.8416 297.126 70.7972 297.19 71.7326 297.376C72.6917 297.581 73.6112 297.94 74.4548 298.44C75.2871 298.857 75.9993 299.479 76.5241 300.247C76.8654 300.806 76.9736 301.477 76.8255 302.115C76.6175 302.818 76.2297 303.455 75.7004 303.962C75.0455 304.623 74.3137 305.203 73.5206 305.689L76.5342 307.436L74.8767 308.44L71.8029 306.663C70.3583 307.355 68.8516 307.91 67.3026 308.319C65.6585 308.777 63.9782 309.093 62.28 309.263L60.6728 306.392C61.1198 306.378 61.5657 306.341 62.0088 306.281C62.6115 306.211 63.2845 306.101 64.0178 305.94C64.7511 305.779 65.5347 305.579 66.3584 305.348C67.1556 305.114 67.9346 304.822 68.6889 304.474L63.9375 301.733L63.3147 301.944L62.6617 302.145C61.4664 302.536 60.3714 302.848 59.377 303.068C58.4535 303.282 57.5116 303.407 56.5643 303.44C55.734 303.473 54.903 303.395 54.0932 303.209C53.2848 303.017 52.5095 302.706 51.7928 302.285C51.0015 301.877 50.3142 301.293 49.7838 300.579C49.4015 300.044 49.2104 299.397 49.2414 298.741C49.3164 298.054 49.5925 297.405 50.0349 296.874C50.5855 296.215 51.2323 295.643 51.9536 295.177L49.1309 293.541L50.7883 292.587L53.5809 294.173C54.8918 293.521 56.2693 293.013 57.6894 292.657C59.0406 292.317 60.4132 292.069 61.7979 291.914L63.2042 294.655ZM55.0776 299.675C55.7047 300.034 56.428 300.188 57.1469 300.117C58.1183 300.006 59.0748 299.79 59.9998 299.474L55.5196 296.894C53.8722 297.968 53.7316 298.892 55.0776 299.675ZM70.7783 300.98C70.0945 300.608 69.3087 300.467 68.5382 300.579C67.4793 300.717 66.4342 300.945 65.4141 301.261L69.8642 303.832C71.7627 302.677 72.0741 301.723 70.7783 300.98Z" fill="#14FF00"/>
<path opacity="0.3" d="M170.287 490.644C193.266 490.644 211.894 479.896 211.894 466.638C211.894 453.381 193.266 442.633 170.287 442.633C147.308 442.633 128.68 453.381 128.68 466.638C128.68 479.896 147.308 490.644 170.287 490.644Z" fill="#D6D8E5"/>
<path d="M180.584 484.47C203.563 484.47 222.191 473.723 222.191 460.465C222.191 447.207 203.563 436.459 180.584 436.459C157.605 436.459 138.977 447.207 138.977 460.465C138.977 473.723 157.605 484.47 180.584 484.47Z" fill="#0C9300"/>
<path d="M138.996 460.826V449.883L147.213 457.202L138.996 460.826Z" fill="#0C9300"/>
<path d="M222.19 450.174V460.465L217.991 464.923L215.932 453.136L222.19 450.174Z" fill="#0C9300"/>
<path d="M180.584 474.179C203.563 474.179 222.191 463.432 222.191 450.174C222.191 436.916 203.563 426.168 180.584 426.168C157.605 426.168 138.977 436.916 138.977 450.174C138.977 463.432 157.605 474.179 180.584 474.179Z" fill="#76D36E"/>
<path d="M210.318 450.917C209.896 454.933 207.013 458.949 201.649 462.042C190.016 468.748 171.161 468.748 159.529 462.042C154.165 458.939 151.282 454.963 150.87 450.917C150.368 446.178 153.261 441.349 159.529 437.735C171.161 431.018 190.016 431.018 201.649 437.735C207.937 441.349 210.82 446.178 210.318 450.917Z" fill="#0C9300"/>
<path d="M210.317 450.916C209.895 454.932 207.012 458.948 201.648 462.04C190.015 468.747 171.16 468.747 159.528 462.04C154.164 458.938 151.281 454.962 150.869 450.916C151.281 446.9 154.164 442.884 159.528 439.791C171.16 433.075 190.015 433.075 201.648 439.791C207.012 442.894 209.945 446.87 210.317 450.916Z" fill="#0C9300"/>
<path d="M180.151 445.293C179.784 445.293 179.419 445.32 179.056 445.374C178.574 445.444 178.051 445.544 177.409 445.675C176.766 445.805 176.173 445.966 175.52 446.157C174.881 446.349 174.256 446.587 173.652 446.87L178.433 449.631L179.297 449.329C180.513 448.928 181.658 448.576 182.733 448.325C183.747 448.045 184.787 447.864 185.836 447.783C186.788 447.729 187.743 447.793 188.679 447.974C189.638 448.179 190.558 448.538 191.402 449.038C192.235 449.458 192.947 450.084 193.471 450.856C193.812 451.415 193.92 452.085 193.772 452.723C193.564 453.423 193.176 454.056 192.647 454.56C191.992 455.221 191.26 455.801 190.467 456.287L193.481 458.044L191.813 458.998L188.8 457.231C187.338 457.948 185.811 458.523 184.239 458.948C182.595 459.404 180.915 459.719 179.217 459.892L177.609 457.02C177.901 457.02 178.353 457.02 178.945 456.92C179.538 456.819 180.221 456.729 180.955 456.568C181.688 456.408 182.471 456.217 183.295 455.976C184.092 455.742 184.871 455.45 185.626 455.102L180.814 452.362L180.191 452.572L179.538 452.773C178.343 453.165 177.248 453.476 176.243 453.697C175.324 453.914 174.385 454.042 173.441 454.078C172.611 454.106 171.78 454.028 170.97 453.847C170.16 453.654 169.385 453.339 168.669 452.914C167.876 452.509 167.188 451.924 166.66 451.207C166.278 450.673 166.087 450.026 166.118 449.37C166.191 448.685 166.468 448.038 166.911 447.512C167.46 446.831 168.11 446.238 168.84 445.755L166.027 444.129L167.685 443.125L170.477 444.741C171.787 444.088 173.165 443.583 174.586 443.235C175.935 442.886 177.308 442.637 178.694 442.492L180.151 445.293ZM172.024 450.313C172.65 450.676 173.374 450.831 174.094 450.755C175.065 450.648 176.021 450.436 176.946 450.123L172.466 447.532C170.819 448.597 170.678 449.52 172.024 450.303V450.313ZM187.725 451.619C187.041 451.247 186.255 451.106 185.485 451.217C184.426 451.359 183.381 451.591 182.361 451.91L186.811 454.48C188.709 453.305 189.021 452.351 187.725 451.609V451.619Z" fill="#0C9300"/>
<path d="M177.58 457.021C177.63 456.9 177.58 455.404 177.58 455.404L179.408 456.579L178.615 457.804L177.58 457.021Z" fill="#0C9300"/>
<path d="M193.511 458.044V456.428L189.553 456.729L191.823 458.275L193.511 458.044Z" fill="#0C9300"/>
<path d="M193.842 452.121V450.494L190.879 451.568L193.842 452.121Z" fill="#0C9300"/>
<path d="M181.568 452.041L182.573 451.098L186.049 453.497L185.828 454.2C185.828 454.2 183.236 453.106 183.145 453.045C183.055 452.985 181.568 452.041 181.568 452.041Z" fill="#0C9300"/>
<path d="M172.477 446.961L177.087 449.571L178.032 448.889C178.032 448.889 177.449 448.216 177.409 448.156C176.995 447.685 176.51 447.282 175.972 446.961C175.631 446.891 173.441 445.957 173.441 445.957L172.477 446.961Z" fill="#0C9300"/>
<path d="M180.152 445.293V443.677L178.032 442.994L177.58 444.259L177.691 444.831L180.152 445.293Z" fill="#0C9300"/>
<path d="M166.078 444.13V442.514L168.529 442.775L167.736 444.341L166.078 444.13Z" fill="#0C9300"/>
<path d="M166.168 449.6V447.924H168.981L168.298 449.42L167.072 450.795L166.168 449.6Z" fill="#0C9300"/>
<path d="M180.151 443.678C179.784 443.677 179.418 443.707 179.056 443.768C178.574 443.838 178.051 443.929 177.409 444.059C176.766 444.19 176.173 444.35 175.52 444.551C174.881 444.74 174.257 444.975 173.652 445.254L178.433 448.015L179.297 447.714C180.509 447.312 181.654 446.977 182.733 446.71C183.748 446.44 184.788 446.268 185.836 446.198C186.788 446.134 187.745 446.198 188.679 446.388C189.64 446.589 190.56 446.949 191.402 447.453C192.234 447.869 192.946 448.491 193.471 449.26C193.812 449.819 193.92 450.489 193.772 451.127C193.566 451.828 193.178 452.462 192.647 452.965C191.995 453.628 191.263 454.208 190.467 454.691L193.481 456.448L191.813 457.402L188.8 455.635C187.338 456.356 185.811 456.934 184.239 457.362C182.593 457.81 180.914 458.122 179.217 458.296L177.609 455.424C178.056 455.415 178.502 455.382 178.945 455.324C179.548 455.254 180.221 455.143 180.955 454.983C181.688 454.822 182.471 454.621 183.295 454.38C184.091 454.146 184.869 453.857 185.626 453.517L180.814 450.796L180.191 451.017L179.538 451.218C178.343 451.609 177.248 451.91 176.243 452.141C175.323 452.351 174.384 452.475 173.441 452.513C172.61 452.545 171.779 452.468 170.97 452.282C170.162 452.087 169.387 451.776 168.669 451.358C167.878 450.95 167.191 450.366 166.66 449.651C166.282 449.111 166.091 448.463 166.118 447.804C166.191 447.12 166.468 446.473 166.911 445.947C167.462 445.268 168.113 444.675 168.84 444.19L166.027 442.563L167.685 441.609L170.477 443.216C171.789 442.567 173.166 442.063 174.586 441.71C175.937 441.37 177.31 441.122 178.694 440.967L180.151 443.678ZM172.024 448.698C172.65 449.06 173.374 449.218 174.094 449.149C175.064 449.034 176.02 448.818 176.946 448.507L172.466 445.927C170.819 446.991 170.678 447.914 172.024 448.688V448.698ZM187.725 450.003C187.042 449.63 186.254 449.492 185.485 449.611C184.425 449.745 183.38 449.973 182.361 450.294L186.811 452.864C188.709 451.7 189.021 450.796 187.725 449.993V450.003Z" fill="#14FF00"/>
<path d="M183.988 471.66C206.967 471.66 225.595 460.912 225.595 447.654C225.595 434.396 206.967 423.648 183.988 423.648C161.009 423.648 142.381 434.396 142.381 447.654C142.381 460.912 161.009 471.66 183.988 471.66Z" fill="#0C9300"/>
<path d="M142.391 448.026V437.082L150.608 444.401L142.391 448.026Z" fill="#0C9300"/>
<path d="M225.594 437.373V447.654L221.385 452.122L219.326 440.335L225.594 437.373Z" fill="#0C9300"/>
<path d="M183.988 461.378C206.967 461.378 225.595 450.631 225.595 437.373C225.595 424.115 206.967 413.367 183.988 413.367C161.009 413.367 142.381 424.115 142.381 437.373C142.381 450.631 161.009 461.378 183.988 461.378Z" fill="#76D36E"/>
<path d="M213.722 438.117C213.3 442.133 210.417 446.149 205.053 449.241C193.421 455.948 174.556 455.948 162.924 449.241C157.56 446.139 154.677 442.153 154.265 438.117C153.762 433.378 156.655 428.548 162.924 424.934C174.556 418.217 193.421 418.217 205.053 424.934C211.321 428.548 214.214 433.378 213.722 438.117Z" fill="#0C9300"/>
<path d="M213.721 438.115C213.299 442.131 210.416 446.147 205.052 449.239C193.42 455.946 174.555 455.946 162.923 449.239C157.558 446.137 154.676 442.151 154.264 438.115C154.676 434.099 157.558 430.083 162.923 426.991C174.555 420.274 193.42 420.274 205.052 426.991C210.416 430.083 213.299 434.069 213.721 438.115Z" fill="#0C9300"/>
<path d="M183.546 432.483C183.182 432.483 182.82 432.513 182.461 432.573C181.969 432.644 181.457 432.744 180.814 432.875C180.171 433.005 179.568 433.166 178.915 433.357C178.276 433.549 177.651 433.787 177.047 434.069L181.838 436.83L182.692 436.529C183.908 436.118 185.053 435.776 186.138 435.525C187.15 435.255 188.186 435.083 189.232 435.013C190.187 434.954 191.146 435.018 192.084 435.204C193.042 435.413 193.961 435.772 194.807 436.268C195.618 436.692 196.309 437.313 196.816 438.075C196.989 438.35 197.106 438.657 197.157 438.978C197.209 439.299 197.195 439.627 197.117 439.943C196.915 440.646 196.531 441.284 196.002 441.79C195.341 442.449 194.606 443.028 193.812 443.517L196.826 445.264L195.168 446.268L192.094 444.491C190.634 445.213 189.107 445.791 187.534 446.218C185.89 446.675 184.209 446.991 182.511 447.162L180.904 444.29C181.354 444.277 181.804 444.24 182.25 444.18C182.926 444.104 183.597 443.99 184.259 443.838C185.003 443.678 185.776 443.477 186.6 443.246C187.4 443.012 188.182 442.72 188.94 442.372L184.179 439.632L183.556 439.842L182.913 440.043C181.708 440.435 180.613 440.746 179.618 440.967C178.698 441.181 177.76 441.306 176.816 441.338C175.982 441.371 175.148 441.294 174.335 441.107C173.529 440.917 172.757 440.606 172.044 440.184C171.254 439.775 170.567 439.191 170.035 438.477C169.651 437.944 169.463 437.295 169.503 436.64C169.57 435.952 169.843 435.302 170.286 434.772C170.839 434.094 171.493 433.505 172.225 433.025L169.402 431.389L171.06 430.385L173.852 432.001C175.164 431.351 176.541 430.843 177.961 430.485C179.312 430.146 180.685 429.898 182.069 429.742L183.546 432.483ZM175.419 437.503C176.05 437.863 176.777 438.018 177.499 437.945C178.467 437.834 179.42 437.618 180.342 437.302L175.861 434.732C174.227 435.803 174.08 436.727 175.419 437.503ZM191.13 438.808C190.446 438.438 189.66 438.298 188.89 438.407C187.831 438.544 186.786 438.773 185.766 439.089L190.216 441.66C192.118 440.508 192.423 439.558 191.13 438.808Z" fill="#0C9300"/>
<path d="M180.975 444.22C181.025 444.099 180.975 442.604 180.975 442.604L182.823 443.768L182.029 444.993L180.975 444.22Z" fill="#0C9300"/>
<path d="M196.907 445.233V443.627L192.949 443.928L195.219 445.474L196.907 445.233Z" fill="#0C9300"/>
<path d="M197.238 439.32V437.693L194.285 438.758L197.238 439.32Z" fill="#0C9300"/>
<path d="M184.973 439.231L185.977 438.287L189.453 440.697L189.242 441.4C189.242 441.4 186.64 440.305 186.56 440.245C186.479 440.185 184.973 439.231 184.973 439.231Z" fill="#0C9300"/>
<path d="M175.881 434.15L180.492 436.771L181.436 436.078C181.436 436.078 180.853 435.416 180.813 435.355C180.398 434.884 179.913 434.478 179.377 434.15C179.025 434.09 176.845 433.146 176.845 433.146L175.881 434.15Z" fill="#0C9300"/>
<path d="M183.546 432.483V430.876L181.437 430.184L180.975 431.449L181.085 432.031L183.546 432.483Z" fill="#0C9300"/>
<path d="M169.473 431.319V429.713L171.934 429.974L171.14 431.54L169.473 431.319Z" fill="#0C9300"/>
<path d="M169.562 436.8V435.113H172.385L171.692 436.619L170.467 437.955L169.562 436.8Z" fill="#0C9300"/>
<path d="M183.546 430.877C183.182 430.877 182.82 430.907 182.461 430.968C181.969 431.038 181.457 431.128 180.814 431.259C180.171 431.389 179.568 431.55 178.915 431.741C178.277 431.937 177.653 432.176 177.047 432.454L181.838 435.215L182.692 434.913C183.908 434.512 185.053 434.17 186.138 433.909C187.149 433.637 188.186 433.469 189.232 433.407C190.187 433.343 191.146 433.408 192.084 433.598C193.043 433.799 193.963 434.155 194.807 434.652C195.617 435.082 196.307 435.707 196.816 436.47C196.989 436.744 197.106 437.052 197.157 437.373C197.209 437.693 197.195 438.022 197.117 438.337C196.915 439.038 196.53 439.672 196.002 440.174C195.344 440.836 194.609 441.415 193.812 441.901L196.826 443.658L195.168 444.612L192.094 442.845C190.635 443.568 189.108 444.143 187.534 444.562C185.89 445.02 184.209 445.335 182.511 445.506L180.904 442.634C181.354 442.625 181.804 442.592 182.25 442.534C182.853 442.464 183.516 442.353 184.259 442.192C185.003 442.032 185.776 441.831 186.6 441.59C187.4 441.356 188.182 441.064 188.94 440.717L184.179 437.976C183.978 438.046 183.767 438.126 183.556 438.186L182.913 438.387C181.708 438.789 180.613 439.09 179.618 439.321C178.697 439.531 177.759 439.655 176.816 439.692C175.982 439.721 175.149 439.643 174.335 439.462C173.53 439.267 172.759 438.956 172.044 438.538C171.257 438.124 170.571 437.541 170.035 436.831C169.652 436.294 169.464 435.642 169.503 434.984C169.568 434.299 169.841 433.651 170.286 433.126C170.836 432.442 171.49 431.849 172.225 431.369L169.473 429.713L171.13 428.709L173.923 430.325C175.233 429.674 176.611 429.169 178.031 428.819C179.381 428.475 180.754 428.227 182.14 428.076L183.546 430.877ZM175.419 435.897C176.048 436.262 176.776 436.417 177.499 436.339C178.467 436.232 179.42 436.02 180.342 435.707L175.861 433.116C174.224 434.181 174.073 435.114 175.419 435.887V435.897ZM191.13 437.203C190.446 436.833 189.66 436.692 188.89 436.801C187.831 436.942 186.786 437.174 185.766 437.494L190.216 440.064C192.118 438.893 192.423 437.935 191.13 437.193V437.203Z" fill="#14FF00"/>
<path d="M181.437 459.339C204.416 459.339 223.045 448.592 223.045 435.334C223.045 422.076 204.416 411.328 181.437 411.328C158.458 411.328 139.83 422.076 139.83 435.334C139.83 448.592 158.458 459.339 181.437 459.339Z" fill="#0C9300"/>
<path d="M139.84 435.696V424.752L148.057 432.071L139.84 435.696Z" fill="#0C9300"/>
<path d="M223.044 425.043V435.334L218.835 439.792L216.775 428.015L223.044 425.043Z" fill="#0C9300"/>
<path d="M181.437 449.048C204.416 449.048 223.045 438.301 223.045 425.043C223.045 411.785 204.416 401.037 181.437 401.037C158.458 401.037 139.83 411.785 139.83 425.043C139.83 438.301 158.458 449.048 181.437 449.048Z" fill="#76D36E"/>
<path d="M211.172 425.786C210.75 429.802 207.867 433.818 202.503 436.911C190.87 443.618 172.005 443.618 160.373 436.911C155.009 433.808 152.126 429.833 151.714 425.786C151.212 421.058 154.105 416.218 160.373 412.604C172.005 405.887 190.87 405.887 202.503 412.604C208.771 416.218 211.664 421.058 211.172 425.786Z" fill="#0C9300"/>
<path d="M211.17 425.785C210.749 429.801 207.866 433.817 202.501 436.909C190.869 443.616 172.004 443.616 160.372 436.909C155.008 433.807 152.125 429.831 151.713 425.785C152.125 421.769 155.008 417.753 160.372 414.661C172.004 407.944 190.869 407.944 202.501 414.661C207.866 417.763 210.749 421.739 211.17 425.785Z" fill="#0C9300"/>
<path d="M180.995 420.163C180.632 420.163 180.269 420.19 179.91 420.243C179.418 420.313 178.905 420.414 178.262 420.544C177.619 420.675 177.017 420.835 176.364 421.026C175.726 421.223 175.102 421.461 174.495 421.739L179.287 424.5L180.141 424.199C181.356 423.797 182.501 423.446 183.586 423.195C184.599 422.924 185.635 422.753 186.68 422.683C187.636 422.627 188.595 422.695 189.533 422.884C190.492 423.084 191.412 423.44 192.255 423.938C193.084 424.361 193.792 424.986 194.315 425.755C194.488 426.03 194.604 426.337 194.656 426.658C194.708 426.979 194.694 427.307 194.616 427.623C194.414 428.323 194.029 428.957 193.501 429.46C192.843 430.121 192.108 430.701 191.311 431.187L194.325 432.944L192.667 433.898L189.593 432.13C188.132 432.849 186.605 433.424 185.033 433.847C183.389 434.305 181.708 434.621 180.01 434.791L178.403 431.92C178.853 431.911 179.303 431.877 179.749 431.819C180.342 431.749 181.015 431.628 181.758 431.468C182.501 431.307 183.275 431.116 184.099 430.875C184.899 430.642 185.681 430.35 186.439 430.002L181.678 427.261L181.055 427.472C180.844 427.542 180.633 427.612 180.402 427.673C179.207 428.064 178.112 428.376 177.117 428.596C176.194 428.815 175.252 428.942 174.305 428.978C173.474 429.005 172.644 428.928 171.833 428.747C171.029 428.552 170.257 428.241 169.543 427.823C168.752 427.411 168.065 426.824 167.534 426.106C167.15 425.574 166.962 424.925 167.002 424.269C167.067 423.584 167.34 422.936 167.785 422.412C168.349 421.732 169.017 421.145 169.764 420.675L166.941 419.048L168.599 418.044L171.371 419.671C172.681 419.02 174.059 418.515 175.48 418.165C176.83 417.821 178.203 417.573 179.588 417.422L180.995 420.163ZM172.868 425.183C173.493 425.546 174.218 425.701 174.937 425.625C175.909 425.519 176.865 425.307 177.79 424.992L173.31 422.402C171.673 423.466 171.522 424.4 172.868 425.173V425.183ZM188.579 426.488C187.894 426.118 187.109 425.977 186.339 426.086C185.279 426.228 184.234 426.46 183.215 426.779L187.665 429.349C189.567 428.178 189.871 427.221 188.579 426.478V426.488Z" fill="#0C9300"/>
<path d="M178.424 431.89C178.424 431.769 178.424 430.273 178.424 430.273L180.252 431.448L179.458 432.673L178.424 431.89Z" fill="#0C9300"/>
<path d="M194.356 432.913V431.297L190.398 431.598L192.669 433.154L194.356 432.913Z" fill="#0C9300"/>
<path d="M194.686 426.99V425.363L191.723 426.438L194.686 426.99Z" fill="#0C9300"/>
<path d="M182.422 426.911L183.426 425.967L186.902 428.366L186.691 429.069C186.691 429.069 184.089 427.975 184.009 427.915L182.422 426.911Z" fill="#0C9300"/>
<path d="M173.32 421.83L177.941 424.441L178.875 423.758C178.875 423.758 178.303 423.095 178.263 423.025C178.222 422.955 177.168 421.89 176.816 421.83C176.464 421.77 174.295 420.826 174.295 420.826L173.32 421.83Z" fill="#0C9300"/>
<path d="M180.995 420.162V418.546L178.876 417.863L178.424 419.128L178.534 419.701L180.995 420.162Z" fill="#0C9300"/>
<path d="M166.922 418.999V417.383L169.383 417.644L168.589 419.21L166.922 418.999Z" fill="#0C9300"/>
<path d="M167.012 424.47V422.793H169.824L169.141 424.289L167.916 425.634L167.012 424.47Z" fill="#0C9300"/>
<path d="M180.996 418.547C180.632 418.546 180.269 418.576 179.911 418.637C179.419 418.708 178.906 418.808 178.264 418.929C177.621 419.049 177.018 419.22 176.365 419.42C175.724 419.608 175.099 419.847 174.497 420.133L179.288 422.884L180.142 422.583C181.357 422.181 182.503 421.84 183.587 421.579C184.6 421.308 185.636 421.137 186.681 421.067C187.637 421.003 188.596 421.067 189.534 421.258C190.492 421.466 191.411 421.826 192.256 422.322C193.086 422.739 193.795 423.361 194.316 424.129C194.489 424.404 194.606 424.711 194.657 425.032C194.709 425.353 194.696 425.681 194.617 425.997C194.413 426.699 194.029 427.336 193.502 427.844C192.841 428.499 192.106 429.075 191.312 429.561L194.326 431.318L192.668 432.272L189.595 430.505C188.134 431.227 186.607 431.805 185.034 432.232C183.389 432.684 181.709 433 180.011 433.175L178.404 430.294C178.854 430.285 179.304 430.251 179.75 430.193C180.343 430.123 181.016 430.013 181.759 429.852C182.503 429.691 183.276 429.491 184.1 429.25C184.9 429.019 185.682 428.731 186.44 428.386L181.679 425.635L181.056 425.856L180.403 426.057C179.208 426.448 178.113 426.76 177.118 426.981C176.195 427.196 175.253 427.32 174.306 427.352C173.475 427.385 172.644 427.307 171.835 427.121C171.03 426.926 170.259 426.615 169.544 426.197C168.757 425.784 168.071 425.201 167.535 424.491C167.152 423.954 166.964 423.302 167.003 422.643C167.07 421.959 167.343 421.311 167.786 420.786C168.339 420.104 168.993 419.512 169.725 419.029L166.902 417.402L168.56 416.398L171.352 418.005C172.666 417.362 174.043 416.858 175.461 416.499C176.812 416.16 178.185 415.912 179.569 415.756L180.996 418.547ZM172.869 423.567C173.495 423.929 174.219 424.087 174.939 424.019C175.909 423.904 176.865 423.689 177.791 423.376L173.311 420.796C171.677 421.867 171.53 422.787 172.869 423.557V423.567ZM188.58 424.882C187.897 424.507 187.11 424.366 186.34 424.481C185.28 424.613 184.234 424.842 183.216 425.163L187.666 427.734C189.568 426.576 189.872 425.622 188.58 424.872V424.882Z" fill="#14FF00"/>
<path d="M184.972 447.453C207.951 447.453 226.58 436.705 226.58 423.447C226.58 410.189 207.951 399.441 184.972 399.441C161.993 399.441 143.365 410.189 143.365 423.447C143.365 436.705 161.993 447.453 184.972 447.453Z" fill="#0C9300"/>
<path d="M143.375 423.809V412.865L151.602 420.184L143.375 423.809Z" fill="#0C9300"/>
<path d="M226.579 413.156V423.437L222.38 427.905L220.311 416.118L226.579 413.156Z" fill="#0C9300"/>
<path d="M184.972 437.162C207.951 437.162 226.58 426.414 226.58 413.156C226.58 399.898 207.951 389.15 184.972 389.15C161.993 389.15 143.365 399.898 143.365 413.156C143.365 426.414 161.993 437.162 184.972 437.162Z" fill="#76D36E"/>
<path d="M214.707 413.9C214.285 417.916 211.402 421.932 206.038 425.024C194.405 431.731 175.54 431.731 163.908 425.024C158.544 421.922 155.661 417.946 155.249 413.9C154.747 409.161 157.64 404.332 163.908 400.717C175.54 394 194.405 394 206.038 400.717C212.306 404.332 215.199 409.161 214.707 413.9Z" fill="#0C9300"/>
<path d="M214.706 413.898C214.284 417.914 211.401 421.93 206.037 425.023C194.404 431.729 175.539 431.729 163.907 425.023C158.543 421.92 155.66 417.944 155.248 413.898C155.66 409.882 158.543 405.866 163.907 402.774C175.539 396.057 194.404 396.057 206.037 402.774C211.401 405.866 214.284 409.852 214.706 413.898Z" fill="#0C9300"/>
<path d="M184.541 408.276C184.175 408.27 183.808 408.297 183.446 408.356C182.954 408.426 182.442 408.527 181.799 408.657C181.156 408.788 180.563 408.948 179.9 409.139C179.264 409.33 178.643 409.568 178.042 409.852L182.824 412.643L183.677 412.342C184.893 411.93 186.048 411.589 187.123 411.338C188.135 411.067 189.171 410.896 190.217 410.826C191.172 410.767 192.131 410.831 193.07 411.017C194.028 411.224 194.947 411.583 195.792 412.081C196.621 412.498 197.33 413.12 197.851 413.888C198.024 414.163 198.14 414.47 198.192 414.791C198.244 415.112 198.23 415.44 198.152 415.756C197.956 416.462 197.571 417.1 197.037 417.603C196.385 418.241 195.66 418.8 194.878 419.27L197.891 421.027L196.234 421.98L193.22 420.213C191.755 420.93 190.225 421.505 188.65 421.93C187.006 422.388 185.325 422.704 183.627 422.874L182.03 420.003C182.477 419.989 182.923 419.952 183.366 419.892C184.041 419.816 184.712 419.702 185.375 419.551C186.108 419.39 186.892 419.199 187.705 418.958C188.507 418.727 189.289 418.435 190.046 418.085L185.285 415.344L184.662 415.555L184.019 415.756C182.824 416.147 181.719 416.458 180.724 416.679C179.804 416.892 178.865 417.02 177.921 417.061C177.088 417.088 176.254 417.011 175.44 416.83C174.634 416.636 173.862 416.321 173.15 415.896C172.357 415.491 171.669 414.907 171.141 414.189C170.75 413.66 170.558 413.009 170.599 412.352C170.673 411.67 170.945 411.024 171.382 410.495C171.932 409.811 172.586 409.218 173.321 408.738L170.498 407.111L172.166 406.107L174.958 407.724C176.264 407.071 177.639 406.566 179.057 406.218C180.406 405.87 181.779 405.621 183.165 405.475L184.541 408.276ZM176.405 413.296C177.034 413.659 177.762 413.814 178.484 413.738C179.452 413.632 180.405 413.42 181.327 413.105L176.847 410.515C175.206 411.586 175.059 412.509 176.405 413.286V413.296ZM192.115 414.601C191.431 414.23 190.646 414.09 189.875 414.199C188.816 414.342 187.771 414.574 186.751 414.892L191.201 417.452C193.103 416.294 193.408 415.341 192.115 414.591V414.601Z" fill="#0C9300"/>
<path d="M181.969 420.003C181.969 419.883 181.969 418.387 181.969 418.387L183.787 419.561L182.993 420.786L181.969 420.003Z" fill="#0C9300"/>
<path d="M197.891 421.027V419.41L193.934 419.711L196.214 421.258L197.891 421.027Z" fill="#0C9300"/>
<path d="M198.233 415.103V413.477L195.27 414.541L198.233 415.103Z" fill="#0C9300"/>
<path d="M185.957 415.014L186.962 414.08L190.437 416.48L190.226 417.182C190.226 417.182 187.625 416.088 187.544 416.028C187.464 415.968 185.957 415.014 185.957 415.014Z" fill="#0C9300"/>
<path d="M176.865 409.934L181.476 412.554L182.42 411.871C182.42 411.871 181.838 411.199 181.797 411.138C181.382 410.667 180.897 410.261 180.361 409.934C180.019 409.873 177.83 408.93 177.83 408.93L176.865 409.934Z" fill="#0C9300"/>
<path d="M184.54 408.276V406.659L182.421 405.977L181.969 407.232L182.079 407.814L184.54 408.276Z" fill="#0C9300"/>
<path d="M170.457 407.113V405.496L172.918 405.757L172.124 407.323L170.457 407.113Z" fill="#0C9300"/>
<path d="M170.547 412.583V410.896H173.37L172.676 412.403L171.461 413.748L170.547 412.583Z" fill="#0C9300"/>
<path d="M184.541 406.621C184.174 406.62 183.808 406.65 183.446 406.711C182.954 406.782 182.442 406.872 181.799 407.002C181.156 407.133 180.563 407.294 179.9 407.494C179.264 407.682 178.643 407.917 178.042 408.197L182.824 410.958L183.677 410.657C184.893 410.255 186.048 409.914 187.123 409.653C188.135 409.382 189.171 409.211 190.217 409.141C191.172 409.077 192.131 409.141 193.07 409.332C194.025 409.519 194.944 409.858 195.792 410.336C196.62 410.759 197.329 411.384 197.851 412.153C198.025 412.428 198.141 412.735 198.193 413.056C198.245 413.377 198.231 413.705 198.153 414.02C197.955 414.723 197.569 415.358 197.037 415.858C196.396 416.548 195.67 417.155 194.878 417.665L197.891 419.422L196.234 420.376L193.22 418.609C191.755 419.329 190.225 419.907 188.65 420.336C187.004 420.785 185.324 421.098 183.627 421.269L182.03 418.398C182.477 418.389 182.923 418.355 183.366 418.297C183.969 418.227 184.632 418.117 185.375 417.956C186.118 417.795 186.892 417.595 187.705 417.354C188.507 417.122 189.289 416.83 190.046 416.48L185.285 413.739L184.662 413.96L184.019 414.151C182.824 414.553 181.719 414.854 180.724 415.085C179.803 415.294 178.865 415.419 177.921 415.456C177.088 415.489 176.254 415.411 175.44 415.225C174.636 415.03 173.864 414.719 173.15 414.302C172.359 413.893 171.672 413.309 171.141 412.595C170.751 412.06 170.56 411.407 170.599 410.747C170.673 410.065 170.945 409.419 171.382 408.89C171.932 408.206 172.586 407.613 173.321 407.133L170.498 405.507L172.166 404.553L174.958 406.159C176.266 405.511 177.64 405.006 179.057 404.653C180.407 404.31 181.78 404.062 183.165 403.91L184.541 406.621ZM176.405 411.641C177.034 412.003 177.761 412.16 178.484 412.093C179.451 411.978 180.404 411.762 181.327 411.45L176.847 408.86C175.206 409.964 175.059 410.891 176.405 411.641ZM192.115 412.946C191.432 412.574 190.645 412.437 189.875 412.555C188.816 412.688 187.77 412.917 186.751 413.237L191.201 415.808C193.1 414.653 193.401 413.729 192.115 412.976V412.946Z" fill="#14FF00"/>
<path d="M182.422 435.123C205.401 435.123 224.029 424.375 224.029 411.117C224.029 397.859 205.401 387.111 182.422 387.111C159.443 387.111 140.814 397.859 140.814 411.117C140.814 424.375 159.443 435.123 182.422 435.123Z" fill="#0C9300"/>
<path d="M140.824 411.479V400.535L149.051 407.854L140.824 411.479Z" fill="#0C9300"/>
<path d="M224.028 400.826V411.117L219.819 415.575L217.76 403.798L224.028 400.826Z" fill="#0C9300"/>
<path d="M182.422 424.832C205.401 424.832 224.029 414.084 224.029 400.826C224.029 387.568 205.401 376.82 182.422 376.82C159.443 376.82 140.814 387.568 140.814 400.826C140.814 414.084 159.443 424.832 182.422 424.832Z" fill="#76D36E"/>
<path d="M212.156 401.599C211.734 405.615 208.851 409.631 203.487 412.723C191.855 419.43 172.99 419.43 161.358 412.723C155.993 409.631 153.11 405.615 152.689 401.599C152.186 396.87 155.079 392.031 161.348 388.416C172.98 381.7 191.845 381.7 203.477 388.416C209.755 392.001 212.648 396.84 212.156 401.599Z" fill="#0C9300"/>
<path d="M212.155 401.599C211.733 405.615 208.85 409.631 203.486 412.724C191.854 419.43 172.989 419.43 161.357 412.724C155.992 409.631 153.109 405.615 152.688 401.599C153.099 397.583 155.982 393.567 161.346 390.475C172.979 383.758 191.844 383.758 203.476 390.475C208.85 393.567 211.733 397.523 212.155 401.599Z" fill="#0C9300"/>
<path d="M181.98 395.947C181.617 395.946 181.254 395.977 180.895 396.037C180.403 396.107 179.891 396.198 179.248 396.328C178.605 396.459 178.012 396.62 177.349 396.81C176.714 397.005 176.093 397.243 175.491 397.523L180.272 400.284L181.126 399.983C182.342 399.581 183.497 399.24 184.572 398.979C185.583 398.707 186.62 398.538 187.666 398.477C188.621 398.413 189.58 398.477 190.519 398.668C191.478 398.866 192.398 399.223 193.241 399.722C194.051 400.152 194.741 400.776 195.25 401.539C195.423 401.814 195.54 402.121 195.592 402.442C195.643 402.763 195.63 403.091 195.551 403.407C195.353 404.109 194.968 404.744 194.436 405.244C193.78 405.908 193.045 406.488 192.246 406.971L195.26 408.728L193.602 409.682L190.529 407.915C189.069 408.637 187.542 409.213 185.968 409.631C184.324 410.089 182.644 410.405 180.945 410.575L179.348 407.704C179.795 407.694 180.241 407.661 180.684 407.603C181.287 407.533 181.95 407.423 182.693 407.262C183.437 407.101 184.21 406.9 185.024 406.66C185.825 406.428 186.607 406.136 187.364 405.786L182.603 403.045C182.402 403.115 182.201 403.196 181.98 403.256L181.337 403.457C180.132 403.858 179.037 404.16 178.042 404.39C177.122 404.6 176.183 404.724 175.24 404.762C174.406 404.795 173.572 404.717 172.759 404.531C171.954 404.336 171.183 404.025 170.468 403.607C169.677 403.199 168.99 402.615 168.459 401.901C168.07 401.366 167.878 400.713 167.917 400.053C167.986 399.37 168.259 398.723 168.7 398.196C169.25 397.512 169.904 396.919 170.639 396.439L167.816 394.812L169.474 393.808L172.266 395.425C173.577 394.774 174.954 394.269 176.375 393.919C177.725 393.576 179.098 393.328 180.483 393.176L181.98 395.947ZM173.854 400.967C174.483 401.33 175.211 401.485 175.933 401.409C176.901 401.302 177.854 401.09 178.776 400.776L174.296 398.186C172.658 399.25 172.508 400.184 173.854 400.957V400.967ZM189.564 402.272C188.88 401.901 188.094 401.763 187.324 401.88C186.264 402.014 185.219 402.243 184.2 402.563L188.65 405.133C190.552 403.962 190.857 403.005 189.564 402.262V402.272Z" fill="#0C9300"/>
<path d="M179.418 407.673C179.418 407.552 179.418 406.066 179.418 406.066L181.236 407.231L180.443 408.456L179.418 407.673Z" fill="#0C9300"/>
<path d="M195.341 408.696V407.08L191.383 407.381L193.653 408.937L195.341 408.696Z" fill="#0C9300"/>
<path d="M195.672 402.773V401.146L192.719 402.221L195.672 402.773Z" fill="#0C9300"/>
<path d="M183.406 402.694L184.411 401.75L187.886 404.15L187.676 404.852C187.676 404.852 185.074 403.768 184.993 403.698L183.406 402.694Z" fill="#0C9300"/>
<path d="M174.314 397.584L178.925 400.194L179.869 399.512C179.869 399.512 179.287 398.849 179.247 398.779C179.206 398.709 178.152 397.644 177.81 397.584C177.469 397.524 175.279 396.58 175.279 396.58L174.314 397.584Z" fill="#0C9300"/>
<path d="M181.98 395.946V394.329L179.87 393.646L179.408 394.912L179.529 395.484L181.98 395.946Z" fill="#0C9300"/>
<path d="M167.906 394.782V393.166L170.367 393.427L169.574 394.993L167.906 394.782Z" fill="#0C9300"/>
<path d="M167.996 400.255V398.588H170.819L170.126 400.084L168.91 401.429L167.996 400.255Z" fill="#0C9300"/>
<path d="M181.98 394.33C181.617 394.33 181.254 394.36 180.896 394.42C180.403 394.491 179.891 394.591 179.248 394.711C178.605 394.832 178.013 395.003 177.35 395.203C176.713 395.394 176.092 395.632 175.491 395.916L180.273 398.677L181.127 398.366C182.342 397.964 183.497 397.623 184.572 397.362C185.584 397.091 186.621 396.92 187.666 396.85C188.621 396.791 189.58 396.855 190.519 397.041C191.477 397.248 192.396 397.607 193.241 398.105C194.052 398.529 194.743 399.15 195.25 399.912C195.424 400.187 195.54 400.494 195.592 400.815C195.644 401.136 195.63 401.464 195.551 401.78C195.352 402.484 194.967 403.122 194.436 403.627C193.777 404.284 193.042 404.861 192.247 405.344L195.26 407.101L193.603 408.105L190.529 406.328C189.068 407.05 187.541 407.628 185.968 408.055C184.323 408.507 182.643 408.823 180.946 408.998L179.349 406.127C179.795 406.113 180.241 406.076 180.685 406.016C181.287 405.946 181.95 405.836 182.694 405.675C183.437 405.514 184.21 405.314 185.024 405.073C185.826 404.849 186.609 404.56 187.365 404.209L182.603 401.458L181.98 401.679L181.338 401.88C180.132 402.272 179.037 402.583 178.043 402.804C177.123 403.018 176.184 403.143 175.24 403.175C174.406 403.208 173.572 403.131 172.759 402.944C171.953 402.754 171.181 402.442 170.469 402.021C169.677 401.612 168.99 401.028 168.46 400.314C168.068 399.78 167.876 399.127 167.917 398.466C168 397.766 168.294 397.108 168.761 396.579C169.313 395.897 169.967 395.305 170.7 394.822L167.877 393.195L169.534 392.191L172.327 393.798C173.641 393.155 175.018 392.651 176.435 392.292C177.787 391.954 179.16 391.705 180.544 391.549L181.98 394.33ZM173.854 399.35C174.484 399.712 175.21 399.869 175.933 399.802C176.901 399.691 177.854 399.475 178.776 399.159L174.296 396.579C172.662 397.65 172.514 398.57 173.854 399.34V399.35ZM189.565 400.665C188.882 400.29 188.095 400.149 187.324 400.264C186.266 400.402 185.22 400.63 184.2 400.946L188.65 403.516C190.552 402.359 190.857 401.405 189.565 400.655V400.665Z" fill="#14FF00"/>
<path opacity="0.3" d="M41.6072 502C64.5863 502 83.2145 491.252 83.2145 477.994C83.2145 464.736 64.5863 453.988 41.6072 453.988C18.6282 453.988 0 464.736 0 477.994C0 491.252 18.6282 502 41.6072 502Z" fill="#D6D8E5"/>
<path d="M47.785 498.908C70.764 498.908 89.3922 488.16 89.3922 474.902C89.3922 461.644 70.764 450.896 47.785 450.896C24.8059 450.896 6.17773 461.644 6.17773 474.902C6.17773 488.16 24.8059 498.908 47.785 498.908Z" fill="#0C9300"/>
<path d="M6.1875 475.264V464.33L14.4145 471.649L6.1875 475.264Z" fill="#0C9300"/>
<path d="M89.3929 464.611V474.902L85.194 479.36L83.1348 467.583L89.3929 464.611Z" fill="#0C9300"/>
<path d="M47.785 488.617C70.764 488.617 89.3922 477.869 89.3922 464.611C89.3922 451.353 70.764 440.605 47.785 440.605C24.8059 440.605 6.17773 451.353 6.17773 464.611C6.17773 477.869 24.8059 488.617 47.785 488.617Z" fill="#76D36E"/>
<path d="M77.519 465.354C77.0971 469.37 74.2141 473.386 68.85 476.479C57.2176 483.185 38.3628 483.185 26.7204 476.479C21.3663 473.386 18.4833 469.4 18.0715 465.354C17.5592 460.625 20.4522 455.786 26.7204 452.182C38.3628 445.455 57.2176 445.455 68.85 452.182C75.1182 455.816 78.0112 460.625 77.519 465.354Z" fill="#0C9300"/>
<path d="M77.5198 465.355C77.0979 469.371 74.2149 473.387 68.8508 476.479C57.2184 483.186 38.3636 483.186 26.7212 476.479C21.3671 473.387 18.4841 469.401 18.0723 465.355C18.4841 461.339 21.3671 457.323 26.7212 454.24C38.3636 447.514 57.2184 447.514 68.8508 454.24C74.2149 457.333 77.0979 461.319 77.5198 465.355Z" fill="#0C9300"/>
<path d="M47.3532 459.731C46.9863 459.731 46.6201 459.761 46.2583 459.821C45.766 459.892 45.2537 459.992 44.6108 460.113C43.968 460.233 43.3753 460.404 42.7224 460.605C42.0834 460.793 41.4589 461.028 40.8539 461.307L45.6355 464.068L46.4893 463.767C47.7148 463.366 48.86 463.024 49.9348 462.763C50.9505 462.493 51.99 462.321 53.0388 462.251C53.9906 462.187 54.9468 462.251 55.8816 462.442C56.8401 462.649 57.7592 463.008 58.6038 463.506C59.4171 463.927 60.1088 464.549 60.6129 465.313C60.7856 465.589 60.9021 465.895 60.9555 466.216C61.009 466.536 60.9983 466.864 60.9243 467.181C60.7163 467.884 60.3285 468.521 59.7992 469.028C59.1418 469.683 58.4103 470.259 57.6194 470.745L60.6329 472.502L58.9755 473.456L55.9117 471.689C54.4476 472.411 52.9169 472.989 51.3411 473.416C49.6968 473.87 48.0164 474.182 46.3185 474.349L44.7213 471.478C45.1682 471.469 45.6142 471.435 46.0574 471.378C46.6601 471.307 47.3231 471.197 48.0664 471.036C48.8097 470.876 49.5832 470.675 50.3969 470.434C51.1977 470.205 51.9801 469.917 52.7374 469.57L47.986 466.819L47.3632 467.04L46.7103 467.241C45.5149 467.633 44.4099 467.944 43.4155 468.165C42.4956 468.379 41.5569 468.504 40.6129 468.536C39.7793 468.568 38.945 468.491 38.1317 468.305C37.3273 468.111 36.5557 467.799 35.8414 467.382C35.0502 466.973 34.363 466.389 33.8323 465.675C33.4427 465.141 33.251 464.487 33.2899 463.827C33.3651 463.144 33.6413 462.497 34.0835 461.97C34.632 461.289 35.2826 460.696 36.0122 460.213L33.1895 458.587L34.857 457.633L37.6495 459.239C38.962 458.594 40.3392 458.089 41.758 457.733C43.106 457.394 44.4752 457.146 45.8565 456.99L47.3532 459.731ZM39.2166 464.751C39.8466 465.112 40.5728 465.27 41.2959 465.203C42.2632 465.088 43.216 464.872 44.1387 464.56L39.6586 461.98C37.9978 463.051 37.837 463.971 39.1764 464.741L39.2166 464.751ZM54.9273 466.066C54.2448 465.691 53.4577 465.55 52.6872 465.665C51.6275 465.798 50.5819 466.027 49.5631 466.347L54.0132 468.868C55.9117 467.753 56.2532 466.799 54.9273 466.056V466.066Z" fill="#0C9300"/>
<path d="M44.7812 471.458C44.7812 471.348 44.7812 469.852 44.7812 469.852L46.6095 471.026L45.8159 472.241L44.7812 471.458Z" fill="#0C9300"/>
<path d="M60.7039 472.483V470.877L56.7461 471.178L59.0264 472.724L60.7039 472.483Z" fill="#0C9300"/>
<path d="M61.0454 466.568V464.932L58.082 466.006L61.0454 466.568Z" fill="#0C9300"/>
<path d="M48.7695 466.479L49.7741 465.535L53.2396 467.935L53.0287 468.648C53.0287 468.648 50.437 467.553 50.3466 467.483L48.7695 466.479Z" fill="#0C9300"/>
<path d="M39.6777 461.399L44.2885 464.009L45.2327 463.326C45.2327 463.326 44.6501 462.664 44.6099 462.603C44.1995 462.127 43.7143 461.72 43.1735 461.399C42.8319 461.338 40.6421 460.395 40.6421 460.395L39.6777 461.399Z" fill="#0C9300"/>
<path d="M47.3528 459.731V458.124L45.2333 457.432L44.7812 458.697L44.8917 459.279L47.3528 459.731Z" fill="#0C9300"/>
<path d="M33.2793 458.568V456.951L35.7303 457.222L34.9367 458.779L33.2793 458.568Z" fill="#0C9300"/>
<path d="M33.3594 464.038V462.361H36.162L35.4789 463.867L34.2534 465.203L33.3594 464.038Z" fill="#0C9300"/>
<path d="M47.3532 458.125C46.9864 458.115 46.6196 458.142 46.2583 458.206C45.766 458.276 45.2537 458.376 44.6108 458.507C43.968 458.637 43.3753 458.798 42.7223 458.989C42.0831 459.181 41.4587 459.419 40.8539 459.702L45.6355 462.463L46.4893 462.161C47.7148 461.75 48.86 461.408 49.9348 461.157C50.9505 460.887 51.99 460.715 53.0388 460.645C53.9906 460.586 54.9462 460.65 55.8816 460.836C56.8365 461.024 57.7555 461.363 58.6038 461.84C59.4171 462.261 60.1088 462.883 60.6129 463.647C60.7856 463.923 60.9021 464.229 60.9555 464.55C61.009 464.87 60.9983 465.198 60.9243 465.515C60.7185 466.219 60.3304 466.856 59.7992 467.362C59.1422 468.02 58.4106 468.6 57.6194 469.089L60.6329 470.836L58.9755 471.84L55.9117 470.063C54.4495 470.789 52.9184 471.368 51.3411 471.79C49.697 472.248 48.0167 472.563 46.3185 472.734L44.7816 469.872C45.2286 469.859 45.6745 469.822 46.1176 469.762C46.7931 469.685 47.4638 469.571 48.1267 469.42C48.86 469.26 49.6435 469.069 50.4572 468.828C51.2582 468.596 52.0406 468.304 52.7977 467.955L48.0463 465.214L47.4235 465.424L46.7706 465.625C45.5752 466.017 44.4702 466.328 43.4757 466.549C42.5552 466.762 41.617 466.889 40.6731 466.93C39.8391 466.959 39.0049 466.878 38.192 466.689C37.3862 466.499 36.614 466.188 35.9017 465.766C35.1082 465.361 34.4203 464.776 33.8926 464.059C33.5014 463.529 33.3093 462.879 33.3502 462.222C33.4243 461.527 33.7041 460.869 34.1538 460.334C34.7028 459.656 35.3533 459.067 36.0825 458.587L33.2598 456.961L34.9273 455.957L37.7198 457.573C39.03 456.92 40.4076 456.411 41.8283 456.057C43.1755 455.716 44.545 455.472 45.9268 455.324L47.3532 458.125ZM39.2166 463.145C39.8458 463.508 40.5735 463.663 41.2959 463.587C42.2639 463.481 43.2172 463.269 44.1387 462.955L39.6586 460.364C37.9978 461.435 37.837 462.359 39.1764 463.135L39.2166 463.145ZM54.9273 464.451C54.243 464.08 53.4577 463.939 52.6872 464.049C51.6282 464.191 50.5831 464.423 49.5631 464.742L54.0132 467.302C55.9117 466.137 56.2532 465.183 54.9273 464.441V464.451Z" fill="#14FF00"/>
</svg>
